Perun-SemiBoldItalic.ufo
<glyph name="exclam" format="2">
	<unicode hex="0021"/>
	<advance width="333"/>
	<outline>
		<contour>
			<point name="n00" x="341.333" y="481.333" type="line"/>
			<point name="n01" x="248.667" y="513" type="line"/>
			<point x="150.667" y="159" type="line"/>
			<point name="n03" x="208.667" y="127.333" type="line"/>
		</contour>
		<contour>
			<point name="n04" x="273.333" y="240.667" type="line"/>
			<point x="263.667" y="317.333" type="line"/>
			<point x="134.333" y="133" type="line"/>
			<point x="144" y="56.3333" type="line"/>
		</contour>
	</outline>
</glyph>
<glyph name="quotedbl" format="2">
	<unicode hex="0022"/>
	<advance width="496"/>
	<outline>
		<contour>
			<point x="525.667" y="722.667" type="line"/>
			<point name="n01" x="390.333" y="722.667" type="line"/>
			<point x="348.333" y="432.667" type="line"/>
			<point name="n03" x="433.667" y="432.667" type="line"/>
		</contour>
		<contour>
			<point x="441" y="722" type="line"/>
			<point x="305.667" y="722" type="line"/>
			<point x="263.667" y="432" type="line"/>
			<point x="349" y="432" type="line"/>
		</contour>
	</outline>
</glyph>
<glyph name="numbersign" format="2">
	<unicode hex="0023"/>
	<advance width="726"/>
	<outline>
		<contour>
			<point x="802" y="530.333" type="line"/>
			<point x="686.333" y="530.333" type="line"/>
			<point name="n02" x="788.667" y="722" type="line"/>
			<point x="697.333" y="722" type="line"/>
			<point x="595" y="530.333" type="line"/>
			<point x="470" y="530.333" type="line"/>
			<point x="572.667" y="722" type="line"/>
			<point x="481" y="722" type="line"/>
			<point x="378.667" y="530.333" type="line"/>
			<point name="n09" x="265" y="530.333" type="line"/>
			<point name="n10" x="223" y="454" type="line"/>
			<point x="339.333" y="454" type="line"/>
			<point x="253.333" y="292" type="line"/>
			<point x="139.333" y="292" type="line"/>
			<point x="96.3333" y="215.667" type="line"/>
			<point x="212.333" y="215.667" type="line"/>
			<point name="n16" x="98.6667" y="0" type="line"/>
			<point x="190" y="0" type="line"/>
			<point name="n18" x="303.667" y="215.667" type="line"/>
			<point x="429" y="215.667" type="line"/>
			<point x="315" y="-0.666667" type="line"/>
			<point x="406.333" y="0" type="line"/>
			<point x="519.667" y="215.667" type="line"/>
			<point x="633.333" y="215.667" type="line"/>
			<point x="676.333" y="292" type="line"/>
			<point x="560.667" y="292" type="line"/>
			<point x="646" y="454" type="line"/>
			<point x="760" y="454" type="line"/>
		</contour>
		<contour>
			<point x="555.667" y="454" type="line"/>
			<point x="470.333" y="292" type="line"/>
			<point name="n30" x="344.333" y="292" type="line"/>
			<point x="430" y="454" type="line"/>
		</contour>
	</outline>
</glyph>
<glyph name="dollar" format="2">
	<unicode hex="0024"/>
	<advance width="568"/>
	<outline>
		<contour>
			<point x="518.333" y="320" type="curve"/>
			<point x="497.667" y="395"/>
			<point x="411" y="408.667"/>
			<point x="361.667" y="444" type="curve"/>
			<point x="354.411" y="485.174"/>
			<point x="355.952" y="503.438"/>
			<point x="384" y="506.333" type="curve"/>
			<point x="372.333" y="519"/>
			<point x="373.333" y="530.667"/>
			<point x="373.333" y="537.667" type="curve" smooth="yes"/>
			<point x="373.333" y="577"/>
			<point x="424" y="599.333"/>
			<point name="n12" x="460.333" y="592.667" type="curve"/>
			<point x="498.68" y="592.667"/>
			<point x="542.464" y="582.667"/>
			<point name="n15" x="550" y="544.667" type="curve"/>
			<point x="551.333" y="544.333"/>
			<point x="551.667" y="543.333"/>
			<point x="549.667" y="542" type="curve"/>
			<point x="569.315" y="579.333"/>
			<point x="596" y="587"/>
			<point x="581" y="587" type="curve"/>
			<point x="533" y="601"/>
			<point x="489.333" y="587.667"/>
			<point x="489.333" y="543.667" type="curve"/>
			<point x="489.333" y="585"/>
			<point x="457.667" y="608.667"/>
			<point x="421.333" y="601" type="curve"/>
			<point x="321.974" y="600.34"/>
			<point x="229.221" y="517.695"/>
			<point x="232" y="409.667" type="curve"/>
			<point x="252.667" y="341"/>
			<point x="330" y="318.667"/>
			<point x="379.333" y="287" type="curve"/>
			<point x="386.509" y="244.47"/>
			<point x="383.417" y="224.682"/>
			<point x="353" y="222.667" type="curve"/>
			<point x="358.667" y="214.667"/>
			<point x="366.667" y="206.667"/>
			<point x="366.667" y="197.333" type="curve" smooth="yes"/>
			<point x="366.667" y="147.333"/>
			<point x="304.667" y="132.333"/>
			<point x="260.667" y="138.667" type="curve"/>
			<point x="218.744" y="138.667"/>
			<point x="175.419" y="154"/>
			<point x="168.333" y="192" type="curve"/>
			<point x="166.333" y="193"/>
			<point x="166.667" y="195"/>
			<point x="169.333" y="200" type="curve"/>
			<point x="150.086" y="157.667"/>
			<point x="128.368" y="148.667"/>
			<point x="148" y="148.667" type="curve"/>
			<point x="200.333" y="132.667"/>
			<point x="242" y="152.333"/>
			<point x="242" y="198.333" type="curve"/>
			<point x="242" y="154"/>
			<point x="283.667" y="121.667"/>
			<point x="322.333" y="130" type="curve"/>
			<point x="421.732" y="130.65"/>
			<point x="521.121" y="209.97"/>
		</contour>
		<contour>
			<point x="322.333" y="199" type="line"/>
			<point x="340" y="199" type="line"/>
			<point x="409.333" y="497.667" type="line"/>
			<point x="391.667" y="497.667" type="line"/>
		</contour>
	</outline>
</glyph>
<glyph name="percent" format="2">
  <advance width="976"/>
  <unicode hex="0025"/>
  <outline>
    <contour>
      <point x="157.333" y="477" type="curve" smooth="yes"/>
      <point x="157.333" y="380.333"/>
      <point x="218.333" y="328.333"/>
      <point x="308.667" y="328.333" type="curve" smooth="yes"/>
      <point x="446.333" y="328.333"/>
      <point x="554.333" y="448.667"/>
      <point x="554.333" y="577.333" type="curve" smooth="yes"/>
      <point x="554.333" y="672"/>
      <point x="495.667" y="728"/>
      <point x="401.667" y="728" type="curve" smooth="yes"/>
      <point x="265" y="728"/>
      <point x="157.333" y="606.667"/>
    </contour>
    <contour>
      <point x="322.667" y="394.333" type="curve" smooth="yes"/>
      <point x="273.667" y="394.333"/>
      <point x="254" y="424.667"/>
      <point x="254" y="475.333" type="curve" smooth="yes"/>
      <point x="254" y="548.333"/>
      <point x="295.333" y="660.333"/>
      <point x="387" y="660.333" type="curve" smooth="yes"/>
      <point x="435.667" y="660.333"/>
      <point x="454.667" y="628.667"/>
      <point x="454.667" y="578" type="curve" smooth="yes"/>
      <point x="454.667" y="504.667"/>
      <point x="415" y="394.333"/>
    </contour>
    <contour>
      <point x="226.333" y="-14" type="line"/>
      <point x="325.333" y="-14" type="line"/>
      <point x="923.667" y="736" type="line"/>
      <point x="824.667" y="736" type="line"/>
    </contour>
    <contour>
      <point x="586.333" y="142" type="curve" smooth="yes"/>
      <point x="586.333" y="47.3333"/>
      <point x="645" y="-6"/>
      <point x="737" y="-6" type="curve" smooth="yes"/>
      <point x="875" y="-6"/>
      <point x="984.667" y="113.333"/>
      <point x="984.667" y="245" type="curve" smooth="yes"/>
      <point x="984.667" y="341.333"/>
      <point x="925" y="394"/>
      <point x="833.667" y="394" type="curve" smooth="yes"/>
      <point x="695.333" y="394"/>
      <point x="586.333" y="272"/>
    </contour>
    <contour>
      <point x="751" y="60" type="curve" smooth="yes"/>
      <point x="702" y="60"/>
      <point x="683" y="90.6667"/>
      <point x="683" y="141.667" type="curve" smooth="yes"/>
      <point x="683" y="215.333"/>
      <point x="723.333" y="326.333"/>
      <point x="816.333" y="326.333" type="curve" smooth="yes"/>
      <point x="866" y="326.333"/>
      <point x="885" y="295.667"/>
      <point x="885" y="244.667" type="curve" smooth="yes"/>
      <point x="885" y="171.667"/>
      <point x="845.333" y="60"/>
    </contour>
  </outline>
  <guideline angle="0" x="0" y="543"/>
</glyph>
<glyph name="ampersand" format="2">
  <advance width="781"/>
  <unicode hex="0026"/>
  <outline>
    <contour>
      <point x="96" y="150" type="curve" smooth="yes"/>
      <point x="96" y="41.3333"/>
      <point x="192.333" y="-14.3333"/>
      <point x="322.667" y="-14.3333" type="curve" smooth="yes"/>
      <point x="401.667" y="-14.3333"/>
      <point x="502" y="12.3333"/>
      <point x="560.333" y="57" type="curve"/>
      <point x="572.132" y="40.7417"/>
      <point x="597.303" y="10.5822"/>
      <point x="608.333" y="-0.666667" type="curve"/>
      <point x="769.667" y="-0.666667" type="line"/>
      <point x="717" y="47.3333"/>
      <point x="684" y="78.6667"/>
      <point x="649" y="136" type="curve"/>
      <point x="703" y="209"/>
      <point x="747.333" y="306.333"/>
      <point x="770" y="394.333" type="curve"/>
      <point x="644" y="394.333" type="line"/>
      <point x="643" y="362"/>
      <point x="613.667" y="269.667"/>
      <point x="583.333" y="217.667" type="curve"/>
      <point x="531.333" y="280"/>
      <point x="487" y="340.333"/>
      <point x="456.333" y="396.667" type="curve"/>
      <point x="549.333" y="443.333"/>
      <point x="656.333" y="522"/>
      <point x="656.333" y="624" type="curve" smooth="yes"/>
      <point x="656.333" y="709"/>
      <point x="564.333" y="735.333"/>
      <point x="492.667" y="735.333" type="curve" smooth="yes"/>
      <point x="378.667" y="735.333"/>
      <point x="249.333" y="669.333"/>
      <point x="249.333" y="543.667" type="curve" smooth="yes"/>
      <point x="249.333" y="494.667"/>
      <point x="271.333" y="451"/>
      <point x="303" y="414.667" type="curve"/>
      <point x="192.333" y="361.667"/>
      <point x="96" y="282.667"/>
    </contour>
    <contour>
      <point x="410" y="458.333" type="curve"/>
      <point x="383.333" y="496.667"/>
      <point x="369.667" y="529.667"/>
      <point x="369.667" y="556.667" type="curve" smooth="yes"/>
      <point x="369.667" y="612.667"/>
      <point x="425.667" y="643.667"/>
      <point x="474.333" y="643.667" type="curve" smooth="yes"/>
      <point x="507.667" y="643.667"/>
      <point x="540.333" y="619.333"/>
      <point x="540.333" y="588.333" type="curve" smooth="yes"/>
      <point x="540.333" y="533.667"/>
      <point x="452.333" y="481.333"/>
    </contour>
    <contour>
      <point x="225.667" y="179.667" type="curve" smooth="yes"/>
      <point x="225.667" y="244"/>
      <point x="292.667" y="312"/>
      <point x="344.667" y="340.333" type="curve"/>
      <point x="385.333" y="270.667"/>
      <point x="437.667" y="199.667"/>
      <point x="502.333" y="128" type="curve"/>
      <point x="457.333" y="94.6667"/>
      <point x="404.667" y="80"/>
      <point x="346" y="80" type="curve" smooth="yes"/>
      <point x="286.667" y="80"/>
      <point x="225.667" y="117"/>
    </contour>
  </outline>
</glyph>
<glyph name="quotesingle" format="2">
	<unicode hex="0027"/>
	<advance width="348"/>
	<outline>
		<contour>
			<point name="n00" x="405.667" y="722" type="line"/>
			<point name="n01" x="270.333" y="722" type="line"/>
			<point name="n02" x="228.333" y="432.667" type="line"/>
			<point name="n03" x="313.667" y="432.667" type="line"/>
		</contour>
	</outline>
</glyph>
<glyph name="parenleft" format="2">
	<unicode hex="0028"/>
	<advance width="376"/>
	<outline>
		<contour>
			<point name="n00" x="256" y="-132" type="line"/>
			<point x="249" y="-72.3333"/>
			<point x="245" y="-14.3333"/>
			<point x="245" y="41.6667" type="curve" smooth="yes"/>
			<point x="245" y="298"/>
			<point x="326" y="515.667"/>
			<point name="n06" x="456" y="736" type="curve"/>
			<point x="361.333" y="736" type="line"/>
			<point x="225" y="546.333"/>
			<point x="134.333" y="315"/>
			<point x="134.333" y="79.6667" type="curve" smooth="yes"/>
			<point x="134.333" y="7"/>
			<point x="143" y="-63.3333"/>
			<point name="n13" x="161" y="-132" type="curve"/>
		</contour>
	</outline>
</glyph>
<glyph name="asterisk" format="2">
  <advance width="645"/>
  <unicode hex="002A"/>
  <outline>
    <contour>
      <point x="636" y="486.667" type="line"/>
      <point x="658.333" y="582" type="line"/>
      <point x="494.333" y="557.667" type="line"/>
      <point x="624.333" y="685" type="line"/>
      <point x="550" y="730.667" type="line"/>
      <point x="459.333" y="588" type="line"/>
      <point x="435.333" y="730.667" type="line"/>
      <point x="338" y="685" type="line"/>
      <point x="410" y="557.667" type="line"/>
      <point x="257.333" y="582" type="line"/>
      <point x="235" y="486.667" type="line"/>
      <point x="399" y="511" type="line"/>
      <point x="269" y="383.667" type="line"/>
      <point x="344" y="337" type="line"/>
      <point x="434.667" y="480.667" type="line"/>
      <point x="458.667" y="337" type="line"/>
      <point x="555.333" y="383.667" type="line"/>
      <point x="483.333" y="511" type="line"/>
    </contour>
  </outline>
</glyph>
<glyph name="plus" format="2">
  <advance width="900"/>
  <unicode hex="002B"/>
  <outline>
    <contour>
      <point x="812" y="269" type="line"/>
      <point x="826" y="331" type="line"/>
      <point x="557" y="331" type="line"/>
      <point x="620" y="600" type="line"/>
      <point x="558" y="600" type="line"/>
      <point x="495" y="331" type="line"/>
      <point x="226" y="331" type="line"/>
      <point x="212" y="269" type="line"/>
      <point x="481" y="269" type="line"/>
      <point x="419" y="0" type="line"/>
      <point x="481" y="0" type="line"/>
      <point x="543" y="269" type="line"/>
    </contour>
  </outline>
</glyph>
<glyph name="comma" format="2">
	<unicode hex="002C"/>
	<advance width="298"/>
	<outline>
		<contour>
			<point name="n00" x="279.333" y="123" type="line"/>
			<point name="n01" x="148.667" y="123" type="line"/>
			<point name="n02" x="18.3333" y="-128.333" type="line"/>
			<point name="n03" x="105" y="-128.333" type="line"/>
		</contour>
	</outline>
</glyph>
<glyph name="hyphen" format="2">
	<unicode hex="002D"/>
	<advance width="330"/>
	<outline>
		<contour>
			<point name="n00" x="336.333" y="194.333" type="line"/>
			<point name="n01" x="362.667" y="309" type="line"/>
			<point x="111.333" y="309" type="line"/>
			<point name="n03" x="85" y="194.333" type="line"/>
		</contour>
	</outline>
</glyph>
<glyph name="period" format="2">
	<unicode hex="002E"/>
	<advance width="287"/>
	<outline>
		<contour>
			<point name="n00" x="218" y="0" type="line"/>
			<point name="n01" x="247.333" y="129" type="line"/>
			<point x="127.333" y="129" type="line"/>
			<point name="n03" x="98" y="0" type="line"/>
		</contour>
	</outline>
</glyph>
<glyph name="slash" format="2">
	<unicode hex="002F"/>
	<advance width="416"/>
	<outline>
		<contour>
			<point name="n00" x="541" y="736" type="line"/>
			<point x="452" y="736" type="line"/>
			<point x="34" y="-52" type="line"/>
			<point x="123" y="-52" type="line"/>
		</contour>
	</outline>
</glyph>
<glyph name="zero" format="2">
	<unicode hex="0030"/>
	<advance width="595"/>
	<outline>
		<contour>
			<point x="646.667" y="530.667" type="curve" smooth="yes"/>
			<point x="646.667" y="662"/>
			<point x="582.667" y="738.667"/>
			<point x="460.333" y="738.667" type="curve" smooth="yes"/>
			<point x="429.333" y="738.667"/>
			<point x="407.667" y="735"/>
			<point x="385.333" y="728.333" type="curve"/>
			<point x="385.333" y="624.667" type="line"/>
			<point x="408" y="634.667"/>
			<point x="424.667" y="635.667"/>
			<point x="444" y="635.667" type="curve" smooth="yes"/>
			<point x="488.333" y="635.667"/>
			<point x="522.333" y="609.667"/>
			<point x="522.333" y="493.333" type="curve" smooth="yes"/>
			<point x="522.333" y="371.667"/>
			<point x="465.333" y="138.667"/>
			<point x="365.333" y="100.667" type="curve"/>
			<point x="365.333" y="-3" type="line"/>
			<point x="547.667" y="45.6667"/>
			<point x="646.667" y="295.667"/>
		</contour>
		<contour>
			<point x="104" y="194.667" type="curve" smooth="yes"/>
			<point x="104" y="63.3333"/>
			<point x="168" y="-13.3333"/>
			<point x="290.333" y="-13.3333" type="curve" smooth="yes"/>
			<point x="321.333" y="-13.3333"/>
			<point x="343" y="-9.66667"/>
			<point x="365.333" y="-3" type="curve"/>
			<point x="365.333" y="100.667" type="line"/>
			<point x="342.667" y="90.6667"/>
			<point x="326" y="89.6667"/>
			<point x="306.667" y="89.6667" type="curve" smooth="yes"/>
			<point x="262.333" y="89.6667"/>
			<point x="228.333" y="115.667"/>
			<point x="228.333" y="232" type="curve" smooth="yes"/>
			<point x="228.333" y="353.667"/>
			<point x="285.333" y="586.667"/>
			<point x="385.333" y="624.667" type="curve"/>
			<point x="385.333" y="728.333" type="line"/>
			<point x="203" y="679.667"/>
			<point x="104" y="429.667"/>
		</contour>
	</outline>
	<guideline x="0" y="769" angle="0"/>
</glyph>
<glyph name="one" format="2">
	<unicode hex="0031"/>
	<advance width="523"/>
	<outline>
		<contour>
			<point name="n00" x="379.667" y="0" type="line"/>
			<point name="n01" x="546.667" y="722" type="line"/>
			<point x="430" y="722" type="line"/>
			<point x="381.333" y="681.333"/>
			<point x="302" y="635"/>
			<point x="233" y="607.333" type="curve"/>
			<point name="n06" x="207.333" y="497.667" type="line"/>
			<point x="277.333" y="521.333"/>
			<point x="340.667" y="550.667"/>
			<point x="394.333" y="586.667" type="curve"/>
			<point x="258.667" y="0" type="line"/>
		</contour>
	</outline>
</glyph>
<glyph name="two" format="2">
	<unicode hex="0032"/>
	<advance width="568"/>
	<outline>
		<contour>
			<point x="40.3333" y="0" type="line"/>
			<point name="n01" x="525.333" y="0" type="line"/>
			<point name="n02" x="548.667" y="102.667" type="line"/>
			<point x="203.667" y="102.667" type="line"/>
			<point x="409.333" y="244" type="line"/>
			<point x="537" y="334"/>
			<point x="653.667" y="442.333"/>
			<point x="653.667" y="577" type="curve" smooth="yes"/>
			<point x="653.667" y="674.333"/>
			<point x="583" y="736"/>
			<point name="n10" x="467.667" y="736" type="curve" smooth="yes"/>
			<point x="338.667" y="736"/>
			<point x="216.333" y="659.333"/>
			<point x="182" y="524" type="curve"/>
			<point x="312.667" y="524" type="line"/>
			<point x="331.667" y="592"/>
			<point x="381.667" y="635"/>
			<point name="n17" x="444.667" y="635" type="curve" smooth="yes"/>
			<point x="496" y="635"/>
			<point x="525.333" y="606"/>
			<point x="525.333" y="561.333" type="curve" smooth="yes"/>
			<point x="525.333" y="472"/>
			<point x="435.667" y="391.667"/>
			<point x="356" y="330.667" type="curve"/>
			<point x="67.3333" y="117" type="line"/>
		</contour>
	</outline>
</glyph>
<glyph name="three" format="2">
  <advance width="568"/>
  <unicode hex="0033"/>
  <outline>
    <contour>
      <point x="92" y="199.333" type="line"/>
      <point x="86.6667" y="176.667"/>
      <point x="84.6667" y="156"/>
      <point x="84.6667" y="138.667" type="curve" smooth="yes"/>
      <point x="84.6667" y="38.6667"/>
      <point x="153.333" y="-13.3333"/>
      <point x="279" y="-13.3333" type="curve" smooth="yes"/>
      <point x="423.333" y="-13.3333"/>
      <point x="574.667" y="99"/>
      <point x="574.667" y="235.333" type="curve" smooth="yes"/>
      <point x="574.667" y="312"/>
      <point x="526.667" y="358.667"/>
      <point x="460" y="377.667" type="curve"/>
      <point x="561" y="418.333"/>
      <point x="635.333" y="483.667"/>
      <point x="635.333" y="583" type="curve" smooth="yes"/>
      <point x="635.333" y="680.333"/>
      <point x="564.333" y="737.333"/>
      <point x="449.667" y="737.333" type="curve" smooth="yes"/>
      <point x="320.333" y="737.333"/>
      <point x="210.333" y="663.667"/>
      <point x="174.667" y="534" type="curve"/>
      <point x="302" y="534" type="line"/>
      <point x="322.667" y="601"/>
      <point x="370" y="638.333"/>
      <point x="426.667" y="638.333" type="curve" smooth="yes"/>
      <point x="473.333" y="638.333"/>
      <point x="505.667" y="612"/>
      <point x="505.667" y="562.667" type="curve" smooth="yes"/>
      <point x="505.667" y="464.333"/>
      <point x="410.667" y="426"/>
      <point x="315.667" y="426" type="curve" smooth="yes"/>
      <point x="306" y="426" type="line"/>
      <point x="282.667" y="326" type="line"/>
      <point x="326" y="326" type="line" smooth="yes"/>
      <point x="397" y="326"/>
      <point x="445" y="304.667"/>
      <point x="445" y="236.667" type="curve" smooth="yes"/>
      <point x="445" y="159.333"/>
      <point x="381.667" y="85.6667"/>
      <point x="297.667" y="85.6667" type="curve" smooth="yes"/>
      <point x="245.333" y="85.6667"/>
      <point x="216.333" y="114"/>
      <point x="216.333" y="161.333" type="curve" smooth="yes"/>
      <point x="216.333" y="173.333"/>
      <point x="218.333" y="186"/>
      <point x="221.333" y="199.333" type="curve"/>
    </contour>
  </outline>
</glyph>
<glyph name="four" format="2">
	<unicode hex="0034"/>
	<advance width="568"/>
	<outline>
		<contour>
			<point name="n00" x="582" y="164" type="line"/>
			<point name="n01" x="606.333" y="268.333" type="line"/>
			<point x="516.667" y="268.333" type="line"/>
			<point name="n03" x="621.667" y="722" type="line"/>
			<point x="468.333" y="722" type="line"/>
			<point x="90.3333" y="285.667" type="line"/>
			<point x="62.3333" y="164" type="line"/>
			<point x="371.333" y="164" type="line"/>
			<point name="n08" x="333.667" y="0" type="line"/>
			<point x="454.667" y="0" type="line"/>
			<point x="492.333" y="164" type="line"/>
		</contour>
		<contour>
			<point x="395.667" y="268.333" type="line"/>
			<point x="195.333" y="268.333" type="line"/>
			<point x="471.333" y="597.333" type="line"/>
		</contour>
	</outline>
</glyph>
<glyph name="five" format="2">
	<unicode hex="0035"/>
	<advance width="568"/>
	<outline>
		<contour>
			<point name="n00" x="85.3333" y="181.333" type="line"/>
			<point x="82" y="165"/>
			<point x="80.6667" y="149.667"/>
			<point x="80.6667" y="136.667" type="curve" smooth="yes"/>
			<point x="80.6667" y="36"/>
			<point x="155.333" y="-13.3333"/>
			<point x="267.667" y="-13.3333" type="curve" smooth="yes"/>
			<point x="447" y="-13.3333"/>
			<point x="591.333" y="133.667"/>
			<point x="591.333" y="310.333" type="curve" smooth="yes"/>
			<point x="591.333" y="407"/>
			<point x="538.667" y="474"/>
			<point name="n12" x="435.667" y="474" type="curve" smooth="yes"/>
			<point x="382" y="474"/>
			<point x="311" y="455.333"/>
			<point x="276" y="417.333" type="curve"/>
			<point x="325" y="617.667" type="line"/>
			<point name="n17" x="622" y="617.667" type="line"/>
			<point name="n18" x="646.333" y="722" type="line"/>
			<point x="225.333" y="722" type="line"/>
			<point x="126.333" y="295.333" type="line"/>
			<point x="236.667" y="295.333" type="line"/>
			<point x="274.333" y="353.667"/>
			<point x="317" y="381.333"/>
			<point name="n24" x="375" y="381.333" type="curve" smooth="yes"/>
			<point x="434" y="381.333"/>
			<point x="462.333" y="353.333"/>
			<point x="462.333" y="292.667" type="curve" smooth="yes"/>
			<point x="462.333" y="202.667"/>
			<point x="400" y="86.6667"/>
			<point x="289" y="86.6667" type="curve" smooth="yes"/>
			<point x="239.667" y="86.6667"/>
			<point x="206.333" y="109.667"/>
			<point x="206.333" y="155.333" type="curve" smooth="yes"/>
			<point x="206.333" y="163.667"/>
			<point x="207.333" y="172.333"/>
			<point name="n36" x="209.667" y="181.333" type="curve"/>
		</contour>
	</outline>
</glyph>
<glyph name="six" format="2">
  <advance width="568"/>
  <unicode hex="0036"/>
  <outline>
    <contour>
      <point x="92.3333" y="177.667" type="curve" smooth="yes"/>
      <point x="92.3333" y="56"/>
      <point x="160.333" y="-13.3333"/>
      <point x="279.667" y="-13.3333" type="curve" smooth="yes"/>
      <point x="455" y="-13.3333"/>
      <point x="593.333" y="132"/>
      <point x="593.333" y="297.667" type="curve" smooth="yes"/>
      <point x="593.333" y="392.667"/>
      <point x="531.667" y="456"/>
      <point x="433" y="456" type="curve" smooth="yes"/>
      <point x="357" y="456"/>
      <point x="301.667" y="424.333"/>
      <point x="249" y="367.333" type="curve"/>
      <point x="273" y="469"/>
      <point x="332.667" y="637.667"/>
      <point x="449" y="637.667" type="curve" smooth="yes"/>
      <point x="492.333" y="637.667"/>
      <point x="517.333" y="607.667"/>
      <point x="517.333" y="567.333" type="curve" smooth="yes"/>
      <point x="517.333" y="560"/>
      <point x="517" y="552.333"/>
      <point x="515" y="544.333" type="curve"/>
      <point x="641" y="544.333" type="line"/>
      <point x="643.667" y="554.667"/>
      <point x="645" y="565"/>
      <point x="645" y="577.333" type="curve" smooth="yes"/>
      <point x="645" y="673.667"/>
      <point x="570.667" y="737.333"/>
      <point x="464" y="737.333" type="curve" smooth="yes"/>
      <point x="215.333" y="737.333"/>
      <point x="92.3333" y="390.333"/>
    </contour>
    <contour>
      <point x="227" y="175.333" type="curve" smooth="yes"/>
      <point x="227" y="257"/>
      <point x="277.333" y="363"/>
      <point x="378.333" y="363" type="curve" smooth="yes"/>
      <point x="435" y="363"/>
      <point x="458.667" y="328.667"/>
      <point x="458.667" y="271.667" type="curve" smooth="yes"/>
      <point x="458.667" y="191"/>
      <point x="410" y="84.3333"/>
      <point x="308.333" y="84.3333" type="curve" smooth="yes"/>
      <point x="252" y="84.3333"/>
      <point x="227" y="117.667"/>
    </contour>
  </outline>
</glyph>
<glyph name="seven" format="2">
	<unicode hex="0037"/>
	<advance width="568"/>
	<outline>
		<contour>
			<point x="657.333" y="595.333" type="line"/>
			<point x="687" y="722" type="line"/>
			<point name="n02" x="216" y="722" type="line"/>
			<point name="n03" x="191.667" y="618.667" type="line"/>
			<point x="543.333" y="618.667" type="line"/>
			<point name="n05" x="131" y="0" type="line"/>
			<point x="278.333" y="0" type="line"/>
		</contour>
	</outline>
</glyph>
<glyph name="eight" format="2">
	<unicode hex="0038"/>
	<advance width="568"/>
	<outline>
		<contour>
			<point x="73.6667" y="135.333" type="curve" smooth="yes"/>
			<point x="73.6667" y="31"/>
			<point x="160.333" y="-13.3333"/>
			<point x="277.333" y="-13.3333" type="curve" smooth="yes"/>
			<point x="440.667" y="-13.3333"/>
			<point x="581.667" y="74.6667"/>
			<point x="581.667" y="243.333" type="curve" smooth="yes"/>
			<point x="581.667" y="330"/>
			<point x="531" y="361"/>
			<point x="467.333" y="386.667" type="curve"/>
			<point x="569.333" y="427"/>
			<point x="647.667" y="486.667"/>
			<point x="647.667" y="588.667" type="curve" smooth="yes"/>
			<point x="647.667" y="692.667"/>
			<point x="567" y="737.333"/>
			<point x="457.667" y="737.333" type="curve" smooth="yes"/>
			<point x="314.333" y="737.333"/>
			<point x="174.333" y="659.667"/>
			<point x="174.333" y="511.667" type="curve" smooth="yes"/>
			<point x="174.333" y="447.667"/>
			<point x="213.667" y="409.333"/>
			<point x="271" y="386.333" type="curve"/>
			<point x="155" y="341.667"/>
			<point x="73.6667" y="262.667"/>
		</contour>
		<contour>
			<point name="n24" x="381.667" y="432.667" type="curve" smooth="yes"/>
			<point x="332.333" y="432.667"/>
			<point x="301.667" y="461"/>
			<point x="301.667" y="511" type="curve" smooth="yes"/>
			<point x="301.667" y="578"/>
			<point x="356.333" y="637"/>
			<point x="429" y="637" type="curve" smooth="yes"/>
			<point x="479" y="637"/>
			<point x="510" y="609.333"/>
			<point x="510" y="559" type="curve" smooth="yes"/>
			<point x="510" y="492"/>
			<point x="453.667" y="432.667"/>
		</contour>
		<contour>
			<point x="211.333" y="175" type="curve" smooth="yes"/>
			<point x="211.333" y="254.667"/>
			<point x="270.667" y="332.333"/>
			<point name="n39" x="358.333" y="332.333" type="curve" smooth="yes"/>
			<point x="417.333" y="332.333"/>
			<point x="450.667" y="297"/>
			<point x="450.667" y="239" type="curve" smooth="yes"/>
			<point x="450.667" y="159.333"/>
			<point x="389.333" y="85"/>
			<point x="300.667" y="85" type="curve" smooth="yes"/>
			<point x="241.333" y="85"/>
			<point x="211.333" y="117.667"/>
		</contour>
	</outline>
</glyph>
<glyph name="nine" format="2">
	<unicode hex="0039"/>
	<advance width="568"/>
	<outline>
		<contour>
			<point x="220" y="177.333" type="curve"/>
			<point x="95" y="177.333" type="line"/>
			<point x="93" y="165.667"/>
			<point x="91.6667" y="154.333"/>
			<point x="91.6667" y="140" type="curve" smooth="yes"/>
			<point x="91.6667" y="43.3333"/>
			<point x="163" y="-13.3333"/>
			<point x="266.333" y="-13.3333" type="curve" smooth="yes"/>
			<point x="522" y="-13.3333"/>
			<point x="643" y="334"/>
			<point x="643" y="546.333" type="curve" smooth="yes"/>
			<point x="643" y="660"/>
			<point x="589" y="737.333"/>
			<point x="454.667" y="737.333" type="curve" smooth="yes"/>
			<point x="266.667" y="737.333"/>
			<point x="142.667" y="605.333"/>
			<point x="142.667" y="425" type="curve" smooth="yes"/>
			<point x="142.667" y="332.333"/>
			<point x="199.667" y="263.333"/>
			<point x="297.667" y="263.333" type="curve" smooth="yes"/>
			<point x="388.667" y="263.333"/>
			<point x="432.333" y="291.667"/>
			<point x="489" y="352" type="curve"/>
			<point x="467" y="257.333"/>
			<point x="404" y="84.3333"/>
			<point x="289.667" y="84.3333" type="curve" smooth="yes"/>
			<point x="240.667" y="84.3333"/>
			<point x="217" y="109.667"/>
			<point x="217" y="150.667" type="curve" smooth="yes"/>
			<point x="217" y="158.667"/>
			<point x="218" y="168"/>
		</contour>
		<contour>
			<point x="358.667" y="356.333" type="curve" smooth="yes"/>
			<point x="300.333" y="356.333"/>
			<point x="276.333" y="390"/>
			<point x="276.333" y="443.667" type="curve" smooth="yes"/>
			<point x="276.333" y="528.667"/>
			<point x="323.667" y="637.333"/>
			<point x="427" y="637.333" type="curve" smooth="yes"/>
			<point x="485.333" y="637.333"/>
			<point x="509.333" y="604"/>
			<point x="509.333" y="550.333" type="curve" smooth="yes"/>
			<point x="509.333" y="465"/>
			<point x="461.667" y="356.333"/>
		</contour>
	</outline>
</glyph>
<glyph name="colon" format="2">
	<unicode hex="003A"/>
	<advance width="298"/>
	<outline>
		<contour>
			<point name="n00" x="329.667" y="371" type="line"/>
			<point name="n01" x="359" y="500" type="line"/>
			<point x="239" y="500" type="line"/>
			<point x="209.667" y="371" type="line"/>
		</contour>
		<contour>
			<point name="n04" x="244" y="0" type="line"/>
			<point name="n05" x="273.333" y="129" type="line"/>
			<point x="153.333" y="129" type="line"/>
			<point name="n07" x="124" y="0" type="line"/>
		</contour>
	</outline>
</glyph>
<glyph name="semicolon" format="2">
	<unicode hex="003B"/>
	<advance width="298"/>
	<outline>
		<contour>
			<point name="n00" x="319.667" y="371" type="line"/>
			<point name="n01" x="349" y="500" type="line"/>
			<point x="229" y="500" type="line"/>
			<point x="199.667" y="371" type="line"/>
		</contour>
		<contour>
			<point x="280.667" y="129" type="line"/>
			<point x="150" y="129" type="line"/>
			<point name="n06" x="19.6667" y="-122.333" type="line"/>
			<point x="106.333" y="-122.333" type="line"/>
		</contour>
	</outline>
</glyph>
<glyph name="less" format="2">
	<unicode hex="003C"/>
	<advance width="900"/>
	<outline>
		<contour>
			<point name="n00" x="759" y="39" type="line"/>
			<point x="773" y="101" type="line"/>
			<point x="283" y="300" type="line"/>
			<point x="865" y="499" type="line"/>
			<point name="n04" x="880" y="561" type="line"/>
			<point x="226" y="331" type="line"/>
			<point name="n06" x="212" y="269" type="line"/>
		</contour>
	</outline>
</glyph>
<glyph name="equal" format="2">
  <advance width="900"/>
  <unicode hex="003D"/>
  <outline>
    <contour>
      <point x="833" y="360" type="line"/>
      <point x="847" y="422" type="line"/>
      <point x="247" y="422" type="line"/>
      <point x="233" y="360" type="line"/>
    </contour>
    <contour>
      <point x="791" y="178" type="line"/>
      <point x="805" y="240" type="line"/>
      <point x="205" y="240" type="line"/>
      <point x="191" y="178" type="line"/>
    </contour>
  </outline>
</glyph>
<glyph name="greater" format="2">
	<unicode hex="003E"/>
	<advance width="900"/>
	<outline>
		<contour>
			<point x="812" y="269" type="line"/>
			<point name="n01" x="826" y="331" type="line"/>
			<point x="280" y="561" type="line"/>
			<point name="n03" x="265" y="499" type="line"/>
			<point x="755" y="300" type="line"/>
			<point x="173" y="101" type="line"/>
			<point name="n06" x="159" y="39" type="line"/>
		</contour>
	</outline>
</glyph>
<glyph name="question" format="2">
  <advance width="531"/>
  <unicode hex="003F"/>
  <outline>
    <contour>
      <point x="246.333" y="284.333" type="curve" smooth="yes"/>
      <point x="221.333" y="175.667" type="line"/>
      <point x="314.667" y="175.667" type="line"/>
      <point x="329.667" y="244.667" type="line" smooth="yes"/>
      <point x="341" y="296.667"/>
      <point x="397.333" y="337.333"/>
      <point x="454.333" y="377.667" type="curve" smooth="yes"/>
      <point x="528.667" y="430"/>
      <point x="606.667" y="489"/>
      <point x="606.667" y="585.667" type="curve" smooth="yes"/>
      <point x="606.667" y="684.333"/>
      <point x="525" y="736"/>
      <point x="404" y="736" type="curve" smooth="yes"/>
      <point x="303.333" y="736"/>
      <point x="213.667" y="675.333"/>
      <point x="161.333" y="597" type="curve"/>
      <point x="235.333" y="540.333" type="line"/>
      <point x="276.333" y="602.667"/>
      <point x="320.333" y="641.333"/>
      <point x="388.333" y="641.333" type="curve" smooth="yes"/>
      <point x="446" y="641.333"/>
      <point x="477.667" y="612.333"/>
      <point x="477.667" y="566.333" type="curve" smooth="yes"/>
      <point x="477.667" y="490.333"/>
      <point x="412" y="441.667"/>
      <point x="349" y="395.667" type="curve" smooth="yes"/>
      <point x="302.667" y="362.667"/>
      <point x="257.333" y="329.667"/>
    </contour>
    <contour>
      <point x="282" y="-2" type="line"/>
      <point x="306.667" y="104.333" type="line"/>
      <point x="193.333" y="104.333" type="line"/>
      <point x="168.667" y="-2" type="line"/>
    </contour>
  </outline>
</glyph>
<glyph name="A" format="2">
  <advance width="723"/>
  <unicode hex="0041"/>
  <anchor x="361.667" y="-60" name="bottom"/>
  <anchor x="610.333" y="10" name="bottomUC"/>
  <anchor x="536.333" y="800" name="top"/>
  <outline>
    <contour>
      <point x="711.667" y="0" type="line"/>
      <point x="595.667" y="721.333" type="line"/>
      <point x="459.667" y="721.333" type="line"/>
      <point x="11.6667" y="0" type="line"/>
      <point x="142.667" y="0" type="line"/>
      <point x="244.667" y="167" type="line"/>
      <point x="552.667" y="167" type="line"/>
      <point x="579.667" y="0" type="line"/>
    </contour>
    <contour>
      <point x="534.333" y="272.667" type="line"/>
      <point x="309.333" y="272.667" type="line"/>
      <point x="494" y="578.333" type="line"/>
    </contour>
  </outline>
</glyph>
<glyph name="B" format="2">
  <advance width="663"/>
  <unicode hex="0042"/>
  <anchor x="286.667" y="-60" name="bottom"/>
  <anchor x="442" y="800" name="top"/>
  <outline>
    <contour>
      <point x="67" y="0" type="line"/>
      <point x="377" y="0" type="line" smooth="yes"/>
      <point x="506.333" y="0"/>
      <point x="660" y="96.6667"/>
      <point x="660" y="232.333" type="curve" smooth="yes"/>
      <point x="660" y="322.667"/>
      <point x="592.333" y="358.333"/>
      <point x="528.667" y="375.667" type="curve"/>
      <point x="529" y="380" type="line"/>
      <point x="624.333" y="408.667"/>
      <point x="710" y="482.333"/>
      <point x="710" y="582.667" type="curve" smooth="yes"/>
      <point x="710" y="677.667"/>
      <point x="633.667" y="722"/>
      <point x="528.667" y="722" type="curve" smooth="yes"/>
      <point x="233.333" y="722" type="line"/>
    </contour>
    <contour>
      <point x="298.333" y="424.667" type="line"/>
      <point x="342.333" y="617" type="line"/>
      <point x="466" y="617" type="line" smooth="yes"/>
      <point x="529" y="617"/>
      <point x="569.667" y="590.667"/>
      <point x="569.667" y="539" type="curve" smooth="yes"/>
      <point x="569.667" y="456.667"/>
      <point x="487.667" y="424.667"/>
      <point x="414" y="424.667" type="curve" smooth="yes"/>
    </contour>
    <contour>
      <point x="224" y="105" type="line"/>
      <point x="274" y="321" type="line"/>
      <point x="409.333" y="321" type="line" smooth="yes"/>
      <point x="476.667" y="321"/>
      <point x="528" y="296.333"/>
      <point x="528" y="230.667" type="curve" smooth="yes"/>
      <point x="528" y="140.333"/>
      <point x="430.667" y="105"/>
      <point x="346.333" y="105" type="curve" smooth="yes"/>
    </contour>
  </outline>
</glyph>
<glyph name="C" format="2">
	<unicode hex="0043"/>
	<advance width="705"/>
	<outline>
		<contour>
			<point x="120" y="219" type="curve"/>
			<point x="124" y="82.6667"/>
			<point x="191.333" y="-13.3333"/>
			<point x="364" y="-13.3333" type="curve" smooth="yes"/>
			<point x="529" y="-13.3333"/>
			<point x="662.333" y="74"/>
			<point x="704" y="227" type="curve"/>
			<point x="563" y="227" type="line"/>
			<point x="531.333" y="139.667"/>
			<point x="478.667" y="89.6667"/>
			<point x="386" y="89.6667" type="curve" smooth="yes"/>
			<point x="284.667" y="89.6667"/>
			<point x="253.667" y="148.667"/>
			<point x="253.667" y="227.667" type="curve" smooth="yes"/>
			<point x="253.667" y="385"/>
			<point x="326.667" y="634.333"/>
			<point x="520.333" y="634.333" type="curve" smooth="yes"/>
			<point x="593" y="634.333"/>
			<point x="635.667" y="606.333"/>
			<point x="635.667" y="545.667" type="curve" smooth="yes"/>
			<point x="635.667" y="534"/>
			<point x="634" y="521.333"/>
			<point x="630.667" y="507" type="curve"/>
			<point x="761.333" y="507" type="line"/>
			<point x="765.333" y="525.333"/>
			<point x="767.333" y="545.333"/>
			<point x="767.333" y="563.667" type="curve" smooth="yes"/>
			<point x="767.333" y="680.667"/>
			<point x="683.667" y="737.333"/>
			<point x="536" y="737.333" type="curve" smooth="yes"/>
			<point x="264.333" y="737.333"/>
			<point x="120" y="458"/>
		</contour>
	</outline>
</glyph>
<glyph name="D" format="2">
  <advance width="715"/>
  <unicode hex="0044"/>
  <anchor x="439.333" y="800" name="top"/>
  <outline>
    <contour>
      <point x="758.333" y="465" type="curve" smooth="yes"/>
      <point x="758.333" y="634"/>
      <point x="642" y="720.667"/>
      <point x="453.333" y="720.667" type="curve" smooth="yes"/>
      <point x="232.333" y="720.667" type="line"/>
      <point x="66" y="-0.666667" type="line"/>
      <point x="287" y="-0.666667" type="line" smooth="yes"/>
      <point x="553" y="-0.666667"/>
      <point x="758.333" y="193"/>
    </contour>
    <contour>
      <point x="311.667" y="104.333" type="curve" smooth="yes"/>
      <point x="223.667" y="104.333" type="line"/>
      <point x="342" y="615" type="line"/>
      <point x="437.667" y="615" type="line" smooth="yes"/>
      <point x="561.333" y="615"/>
      <point x="624" y="558"/>
      <point x="624" y="446.667" type="curve" smooth="yes"/>
      <point x="624" y="258.667"/>
      <point x="503.667" y="104.333"/>
    </contour>
  </outline>
</glyph>
<glyph name="E" format="2">
	<unicode hex="0045"/>
	<advance width="610"/>
	<outline>
		<contour>
			<point name="n00" x="543.667" y="0" type="line"/>
			<point name="n01" x="568.333" y="105.667" type="line"/>
			<point x="221.667" y="105.667" type="line"/>
			<point name="n03" x="271.333" y="321.333" type="line"/>
			<point x="591.333" y="321.333" type="line"/>
			<point x="614.667" y="423.667" type="line"/>
			<point name="n06" x="294.667" y="423.667" type="line"/>
			<point x="339.333" y="616.333" type="line"/>
			<point name="n08" x="676" y="616.333" type="line"/>
			<point name="n09" x="700.667" y="722" type="line"/>
			<point x="233.667" y="722" type="line"/>
			<point x="66.6667" y="0" type="line"/>
		</contour>
	</outline>
</glyph>
<glyph name="F" format="2">
	<unicode hex="0046"/>
	<advance width="569"/>
	<outline>
		<contour>
			<point name="n00" x="655" y="616.333" type="line"/>
			<point name="n01" x="679.667" y="722" type="line"/>
			<point x="233.667" y="722" type="line"/>
			<point name="n03" x="66.6667" y="0" type="line"/>
			<point x="200.333" y="0" type="line"/>
			<point name="n05" x="274" y="318.667" type="line"/>
			<point x="566.333" y="318.667" type="line"/>
			<point x="590.333" y="424.333" type="line"/>
			<point name="n08" x="298" y="424.333" type="line"/>
			<point x="342.667" y="616.333" type="line"/>
		</contour>
	</outline>
</glyph>
<glyph name="H" format="2">
  <advance width="702"/>
  <unicode hex="0048"/>
  <anchor x="403.333" y="-70" name="bottom"/>
  <anchor x="518.333" y="800" name="top"/>
  <outline>
    <contour>
      <point x="634.667" y="0" type="line"/>
      <point x="801.667" y="722" type="line"/>
      <point x="671.333" y="722" type="line"/>
      <point x="602.667" y="427.667" type="line"/>
      <point x="297" y="427.667" type="line"/>
      <point x="365.667" y="722" type="line"/>
      <point x="235.333" y="722" type="line"/>
      <point x="68.3333" y="0" type="line"/>
      <point x="198.667" y="0" type="line"/>
      <point x="273" y="322" type="line"/>
      <point x="578.667" y="322" type="line"/>
      <point x="504.333" y="0" type="line"/>
    </contour>
  </outline>
</glyph>
<glyph name="J" format="2">
  <advance width="597"/>
  <unicode hex="004A"/>
  <anchor x="632" y="800" name="top"/>
  <outline>
    <contour>
      <point x="103" y="216" type="line"/>
      <point x="95.6667" y="185"/>
      <point x="92.3333" y="157.667"/>
      <point x="92.3333" y="134" type="curve" smooth="yes"/>
      <point x="92.3333" y="33.6667"/>
      <point x="155.333" y="-14"/>
      <point x="284.333" y="-14" type="curve" smooth="yes"/>
      <point x="419.667" y="-14"/>
      <point x="549.667" y="76.3333"/>
      <point x="580.667" y="213.667" type="curve" smooth="yes"/>
      <point x="698.333" y="722.667" type="line"/>
      <point x="564.667" y="722.667" type="line"/>
      <point x="448.333" y="219.667" type="line" smooth="yes"/>
      <point x="429" y="136.333"/>
      <point x="387" y="91.3333"/>
      <point x="304.667" y="91.3333" type="curve" smooth="yes"/>
      <point x="255.333" y="91.3333"/>
      <point x="230" y="117"/>
      <point x="230" y="167.667" type="curve" smooth="yes"/>
      <point x="230" y="181.333"/>
      <point x="231.667" y="198"/>
      <point x="236" y="216" type="curve"/>
    </contour>
  </outline>
</glyph>
<glyph name="M" format="2">
	<unicode hex="004D"/>
	<advance width="905"/>
	<outline>
		<contour>
			<point name="n00" x="839.333" y="0" type="line"/>
			<point name="n01" x="1007" y="724.667" type="line"/>
			<point x="794" y="724.667" type="line"/>
			<point x="494" y="180" type="line"/>
			<point x="446.667" y="722" type="line"/>
			<point x="233.667" y="722" type="line"/>
			<point x="66.6667" y="0" type="line"/>
			<point x="193.667" y="0" type="line"/>
			<point x="334.333" y="607.333" type="line"/>
			<point x="391.333" y="0" type="line"/>
			<point x="514" y="0" type="line"/>
			<point x="853.333" y="609" type="line"/>
			<point x="712.333" y="0" type="line"/>
		</contour>
	</outline>
</glyph>
<glyph name="Q" format="2">
  <advance width="824"/>
  <unicode hex="0051"/>
  <anchor x="562.333" y="800" name="top"/>
  <outline>
    <contour>
      <point x="123.667" y="250" type="curve" smooth="yes"/>
      <point x="123.667" y="89.6667"/>
      <point x="214" y="-13.3333"/>
      <point x="389.333" y="-13.3333" type="curve" smooth="yes"/>
      <point x="434.333" y="-13.3333"/>
      <point x="468.667" y="-10.3333"/>
      <point x="509" y="-6.66667" type="curve" smooth="yes"/>
      <point x="542.667" y="-3.66667"/>
      <point x="587" y="0"/>
      <point x="637" y="0" type="curve" smooth="yes"/>
      <point x="785.333" y="0" type="line"/>
      <point x="810.333" y="107.667" type="line"/>
      <point x="750.333" y="105.667"/>
      <point x="693.333" y="99.3333"/>
      <point x="638.667" y="85.3333" type="curve"/>
      <point x="754.667" y="177"/>
      <point x="827" y="332.667"/>
      <point x="827" y="478.333" type="curve" smooth="yes"/>
      <point x="827" y="642.333"/>
      <point x="734.667" y="735.333"/>
      <point x="564" y="735.333" type="curve" smooth="yes"/>
      <point x="290.667" y="735.333"/>
      <point x="123.667" y="496"/>
    </contour>
    <contour>
      <point x="258.667" y="253.333" type="curve" smooth="yes"/>
      <point x="258.667" y="419.667"/>
      <point x="341.333" y="632"/>
      <point x="541.667" y="632" type="curve" smooth="yes"/>
      <point x="651" y="632"/>
      <point x="692" y="569.333"/>
      <point x="692" y="468" type="curve" smooth="yes"/>
      <point x="692" y="307.333"/>
      <point x="603.333" y="90"/>
      <point x="407.333" y="90" type="curve" smooth="yes"/>
      <point x="306.333" y="90"/>
      <point x="258.667" y="149.667"/>
    </contour>
  </outline>
</glyph>
<glyph name="U" format="2">
  <advance width="736"/>
  <unicode hex="0055"/>
  <anchor x="372" y="10" name="bottomUC"/>
  <anchor x="531.667" y="800" name="top"/>
  <outline>
    <contour>
      <point x="123" y="195.333" type="curve" smooth="yes"/>
      <point x="123" y="51"/>
      <point x="209.333" y="-13.3333"/>
      <point x="363" y="-13.3333" type="curve" smooth="yes"/>
      <point x="565" y="-13.3333"/>
      <point x="688.667" y="96.6667"/>
      <point x="737.333" y="306.667" type="curve" smooth="yes"/>
      <point x="833.667" y="722" type="line"/>
      <point x="703.333" y="722" type="line"/>
      <point x="607" y="306.667" type="line" smooth="yes"/>
      <point x="575.333" y="168.333"/>
      <point x="508" y="92"/>
      <point x="387.667" y="92" type="curve" smooth="yes"/>
      <point x="297" y="92"/>
      <point x="255.333" y="135.667"/>
      <point x="255.333" y="217" type="curve" smooth="yes"/>
      <point x="255.333" y="244"/>
      <point x="260" y="273.667"/>
      <point x="267.333" y="306.667" type="curve" smooth="yes"/>
      <point x="363.667" y="722" type="line"/>
      <point x="233.333" y="722" type="line"/>
      <point x="137.333" y="306.667" type="line" smooth="yes"/>
      <point x="127.667" y="265.667"/>
      <point x="123" y="228.667"/>
    </contour>
  </outline>
</glyph>
<glyph name="W" format="2">
  <advance width="991"/>
  <unicode hex="0057"/>
  <anchor x="486.667" y="-60" name="bottom"/>
  <anchor x="672.333" y="800" name="top"/>
  <outline>
    <contour>
      <point x="1146" y="722" type="line"/>
      <point x="1004" y="722" type="line"/>
      <point x="752.333" y="170" type="line"/>
      <point x="735" y="722" type="line"/>
      <point x="589.667" y="722" type="line"/>
      <point x="317.667" y="170" type="line"/>
      <point x="320.667" y="722" type="line"/>
      <point x="178.667" y="722" type="line"/>
      <point x="203" y="0" type="line"/>
      <point x="346.333" y="0" type="line"/>
      <point x="625" y="561.333" type="line"/>
      <point x="644.333" y="0" type="line"/>
      <point x="787.667" y="0" type="line"/>
    </contour>
  </outline>
</glyph>
<glyph name="X" format="2">
	<unicode hex="0058"/>
	<advance width="689"/>
	<outline>
		<contour>
			<point name="n00" x="678.333" y="0" type="line"/>
			<point x="507.333" y="379" type="line"/>
			<point name="n02" x="820.333" y="722" type="line"/>
			<point x="677.667" y="722" type="line"/>
			<point x="462" y="471.333" type="line"/>
			<point x="360" y="722" type="line"/>
			<point x="204" y="722" type="line"/>
			<point x="355.667" y="379" type="line"/>
			<point x="11.6667" y="0" type="line"/>
			<point x="151" y="0" type="line"/>
			<point x="400.333" y="287.333" type="line"/>
			<point x="522.333" y="0" type="line"/>
		</contour>
	</outline>
</glyph>
<glyph name="Y" format="2">
  <advance width="657"/>
  <unicode hex="0059"/>
  <anchor x="506" y="800" name="top"/>
  <outline>
    <contour>
      <point x="813.333" y="722" type="line"/>
      <point x="664.667" y="722" type="line"/>
      <point x="424.667" y="404.333" type="line"/>
      <point x="330.333" y="722" type="line"/>
      <point x="178.667" y="722" type="line"/>
      <point x="326" y="277.667" type="line"/>
      <point x="262" y="0" type="line"/>
      <point x="395.667" y="0" type="line"/>
      <point x="459.667" y="277.667" type="line"/>
    </contour>
  </outline>
</glyph>
<glyph name="Z" format="2">
  <advance width="630"/>
  <unicode hex="005A"/>
  <anchor x="479.333" y="800" name="top"/>
  <outline>
    <contour>
      <point x="584" y="0" type="line"/>
      <point x="608.667" y="105.667" type="line"/>
      <point x="223.333" y="105.667" type="line"/>
      <point x="714.333" y="602" type="line"/>
      <point x="742.333" y="722" type="line"/>
      <point x="235" y="722" type="line"/>
      <point x="210.333" y="616.333" type="line"/>
      <point x="565.667" y="616.333" type="line"/>
      <point x="74.3333" y="120" type="line"/>
      <point x="46.6667" y="0" type="line"/>
    </contour>
  </outline>
</glyph>
<glyph name="bracketleft" format="2">
	<unicode hex="005B"/>
	<advance width="392"/>
	<outline>
		<contour>
			<point name="n00" x="256.667" y="-198" type="line"/>
			<point name="n01" x="274.667" y="-121" type="line"/>
			<point x="171.333" y="-121" type="line"/>
			<point x="348.333" y="645" type="line"/>
			<point name="n04" x="451.667" y="645" type="line"/>
			<point name="n05" x="469.667" y="722" type="line"/>
			<point x="257.667" y="722" type="line"/>
			<point x="44.6667" y="-198" type="line"/>
		</contour>
	</outline>
</glyph>
<glyph name="backslash" format="2">
  <advance width="416"/>
  <unicode hex="005C"/>
  <outline>
    <contour>
      <point x="359" y="-52" type="line"/>
      <point x="305" y="736" type="line"/>
      <point x="216" y="736" type="line"/>
      <point x="270" y="-52" type="line"/>
    </contour>
  </outline>
</glyph>
<glyph name="bracketright" format="2">
	<unicode hex="005D"/>
	<advance width="392"/>
	<outline>
		<contour>
			<point x="256.667" y="-198" type="line"/>
			<point x="469.667" y="722" type="line"/>
			<point name="n02" x="257.667" y="722" type="line"/>
			<point name="n03" x="239.667" y="645" type="line"/>
			<point x="342.667" y="645" type="line"/>
			<point x="165.667" y="-121" type="line"/>
			<point name="n06" x="62.6667" y="-121" type="line"/>
			<point name="n07" x="44.6667" y="-198" type="line"/>
		</contour>
	</outline>
</glyph>
<glyph name="asciicircum" format="2">
	<unicode hex="005E"/>
	<advance width="874"/>
	<outline>
		<contour>
			<point name="n00" x="700" y="10" type="line"/>
			<point x="609" y="610" type="line"/>
			<point name="n02" x="547" y="610" type="line"/>
			<point name="n03" x="178" y="10" type="line"/>
			<point x="240" y="10" type="line"/>
			<point name="n05" x="563" y="546" type="line"/>
			<point x="638" y="10" type="line"/>
		</contour>
	</outline>
</glyph>
<glyph name="underscore" format="2">
  <advance width="500"/>
  <unicode hex="005F"/>
  <outline>
    <contour>
      <point x="480" y="-129" type="line"/>
      <point x="495.333" y="-53.3333" type="line"/>
      <point x="-4.66667" y="-53.3333" type="line"/>
      <point x="-21" y="-129" type="line"/>
    </contour>
  </outline>
</glyph>
<glyph name="grave" format="2">
  <advance width="244"/>
  <unicode hex="0060"/>
  <outline>
    <contour>
      <point x="328.333" y="600" type="line"/>
      <point x="274.667" y="777" type="line"/>
      <point x="154.333" y="777" type="line"/>
      <point x="261.333" y="600" type="line"/>
    </contour>
  </outline>
</glyph>
<glyph name="a" format="2">
  <advance width="621"/>
  <unicode hex="0061"/>
  <anchor x="273" y="-60" name="bottom"/>
  <anchor x="425" y="580" name="top"/>
  <outline>
    <contour>
      <point x="102" y="177" type="curve" smooth="yes"/>
      <point x="102" y="67.3333"/>
      <point x="158.333" y="-13.3333"/>
      <point x="281.667" y="-13.3333" type="curve" smooth="yes"/>
      <point x="344.333" y="-13.3333"/>
      <point x="405.667" y="30.3333"/>
      <point x="440.667" y="62.6667" type="curve"/>
      <point x="426.333" y="0" type="line"/>
      <point x="546.333" y="0" type="line"/>
      <point x="661.333" y="500" type="line"/>
      <point x="541.333" y="500" type="line"/>
      <point x="529.667" y="447.667" type="line"/>
      <point x="510.667" y="484.333"/>
      <point x="473" y="513.333"/>
      <point x="401.333" y="513.333" type="curve" smooth="yes"/>
      <point x="222.333" y="513.333"/>
      <point x="102" y="336.667"/>
    </contour>
    <contour>
      <point x="223.333" y="181.667" type="curve" smooth="yes"/>
      <point x="223.333" y="282.333"/>
      <point x="289.333" y="434.667"/>
      <point x="398.667" y="434.667" type="curve" smooth="yes"/>
      <point x="466.333" y="434.667"/>
      <point x="493.667" y="385"/>
      <point x="493.667" y="319.667" type="curve" smooth="yes"/>
      <point x="493.667" y="221.667"/>
      <point x="433.333" y="67"/>
      <point x="316.333" y="67" type="curve" smooth="yes"/>
      <point x="246" y="67"/>
      <point x="223.333" y="123"/>
    </contour>
  </outline>
</glyph>
<glyph name="c" format="2">
	<unicode hex="0063"/>
	<advance width="501"/>
	<outline>
		<contour>
			<point name="n00" x="543" y="341" type="line"/>
			<point x="561" y="453"/>
			<point x="497" y="512"/>
			<point name="n03" x="386" y="512" type="curve" smooth="yes"/>
			<point x="237" y="512"/>
			<point x="132" y="399"/>
			<point x="96" y="244" type="curve" smooth="yes"/>
			<point x="58" y="79"/>
			<point x="118" y="-14"/>
			<point name="n09" x="262" y="-14" type="curve" smooth="yes"/>
			<point x="377" y="-14"/>
			<point x="476" y="58"/>
			<point name="n12" x="507" y="167" type="curve"/>
			<point name="n13" x="412" y="167" type="line"/>
			<point x="393" y="95"/>
			<point x="341" y="50"/>
			<point name="n16" x="276" y="50" type="curve" smooth="yes"/>
			<point x="190" y="50"/>
			<point x="162" y="118"/>
			<point x="194" y="255" type="curve" smooth="yes"/>
			<point x="214" y="342"/>
			<point x="262" y="447"/>
			<point name="n22" x="372" y="447" type="curve" smooth="yes"/>
			<point x="432" y="447"/>
			<point x="457" y="402"/>
			<point name="n25" x="448" y="341" type="curve"/>
		</contour>
	</outline>
</glyph>
<glyph name="d" format="2">
  <advance width="625"/>
  <unicode hex="0064"/>
  <anchor x="269.333" y="-60" name="bottom"/>
  <anchor x="749.667" y="722.667" name="dcaron"/>
  <anchor x="657" y="800" name="top"/>
  <outline>
    <contour>
      <point x="101.333" y="171.333" type="curve" smooth="yes"/>
      <point x="101.333" y="57.6667"/>
      <point x="157.667" y="-13.3333"/>
      <point x="281" y="-13.3333" type="curve" smooth="yes"/>
      <point x="343.667" y="-13.3333"/>
      <point x="405" y="30.3333"/>
      <point x="440" y="62.3333" type="curve"/>
      <point x="425.667" y="-0.666667" type="line"/>
      <point x="545.667" y="-0.666667" type="line"/>
      <point x="712" y="721.333" type="line"/>
      <point x="592" y="721.333" type="line"/>
      <point x="529" y="447.667" type="line"/>
      <point x="506" y="489"/>
      <point x="472.333" y="513.333"/>
      <point x="394.667" y="513.333" type="curve" smooth="yes"/>
      <point x="214.333" y="513.333"/>
      <point x="101.333" y="330.667"/>
    </contour>
    <contour>
      <point x="222.667" y="181.333" type="curve" smooth="yes"/>
      <point x="222.667" y="282.333"/>
      <point x="288.667" y="434.667"/>
      <point x="398" y="434.667" type="curve" smooth="yes"/>
      <point x="465.667" y="434.667"/>
      <point x="493" y="385"/>
      <point x="493" y="319.667" type="curve" smooth="yes"/>
      <point x="493" y="221.333"/>
      <point x="432.667" y="67"/>
      <point x="315.667" y="67" type="curve" smooth="yes"/>
      <point x="245.333" y="67"/>
      <point x="222.667" y="122.667"/>
    </contour>
  </outline>
</glyph>
<glyph name="e" format="2">
	<unicode hex="0065"/>
	<advance width="547"/>
	<outline>
		<contour>
			<point x="87.6667" y="160" type="curve" smooth="yes"/>
			<point x="87.6667" y="52"/>
			<point x="142.667" y="-14"/>
			<point name="n03" x="276" y="-14" type="curve" smooth="yes"/>
			<point x="403.333" y="-14"/>
			<point x="493.333" y="46.3333"/>
			<point x="533" y="156.667" type="curve"/>
			<point x="410" y="156.667" type="line"/>
			<point x="392" y="104"/>
			<point x="350.333" y="65"/>
			<point name="n10" x="290.667" y="65" type="curve" smooth="yes"/>
			<point x="231" y="65"/>
			<point x="209" y="104.333"/>
			<point x="209" y="154" type="curve" smooth="yes"/>
			<point x="209" y="176.667"/>
			<point x="214" y="203.333"/>
			<point x="219" y="226.667" type="curve"/>
			<point x="553.333" y="226.667" type="line"/>
			<point x="563.667" y="267.333" type="line" smooth="yes"/>
			<point x="570.333" y="294.333"/>
			<point x="573.667" y="320.667"/>
			<point x="573.667" y="344.333" type="curve" smooth="yes"/>
			<point x="573.667" y="442.667"/>
			<point x="519.667" y="512.667"/>
			<point name="n24" x="398" y="512.667" type="curve" smooth="yes"/>
			<point x="203" y="512.667"/>
			<point x="87.6667" y="333.333"/>
		</contour>
		<contour>
			<point x="237.667" y="305" type="line"/>
			<point x="256" y="382.333"/>
			<point x="302.667" y="434.333"/>
			<point name="n30" x="372.333" y="434.333" type="curve" smooth="yes"/>
			<point x="431.667" y="434.333"/>
			<point x="452.333" y="397"/>
			<point x="452.333" y="350.667" type="curve" smooth="yes"/>
			<point x="452.333" y="336.333"/>
			<point x="450.333" y="321"/>
			<point x="446.667" y="305" type="curve"/>
		</contour>
	</outline>
	<anchor name="top" x="351.667" y="600"/>
</glyph>
<glyph name="h" format="2">
  <advance width="607"/>
  <unicode hex="0068"/>
  <anchor x="301.667" y="-60" name="bottom"/>
  <anchor x="312" y="800" name="top"/>
  <outline>
    <contour>
      <point x="79.6667" y="0" type="line"/>
      <point x="199.667" y="0" type="line"/>
      <point x="266.667" y="292.333" type="line" smooth="yes"/>
      <point x="284" y="366.667"/>
      <point x="356" y="436.333"/>
      <point x="424" y="436.333" type="curve" smooth="yes"/>
      <point x="468.333" y="436.333"/>
      <point x="491.667" y="408"/>
      <point x="491.667" y="357.333" type="curve" smooth="yes"/>
      <point x="491.667" y="342.333"/>
      <point x="489" y="324.333"/>
      <point x="484.667" y="304" type="curve" smooth="yes"/>
      <point x="415" y="0" type="line"/>
      <point x="535" y="0" type="line"/>
      <point x="610" y="329.333" type="line" smooth="yes"/>
      <point x="615.667" y="352.667"/>
      <point x="618.333" y="373.667"/>
      <point x="618.333" y="393" type="curve" smooth="yes"/>
      <point x="618.333" y="470.667"/>
      <point x="572.667" y="513.333"/>
      <point x="479.667" y="513.333" type="curve" smooth="yes"/>
      <point x="404.333" y="513.333"/>
      <point x="350.667" y="485"/>
      <point x="301.333" y="440.333" type="curve"/>
      <point x="366" y="722" type="line"/>
      <point x="246" y="722" type="line"/>
    </contour>
  </outline>
</glyph>
<glyph name="i" format="2">
  <advance width="271"/>
  <unicode hex="0069"/>
  <anchor x="128.333" y="-60" name="bottom"/>
  <anchor x="136" y="10" name="bottomUC"/>
  <outline>
    <contour>
      <point x="194.333" y="0" type="line"/>
      <point x="309.333" y="500" type="line"/>
      <point x="189.333" y="500" type="line"/>
      <point x="74.3333" y="0" type="line"/>
    </contour>
    <contour>
      <point x="343.333" y="604.667" type="line"/>
      <point x="370.667" y="722" type="line"/>
      <point x="232" y="722" type="line"/>
      <point x="204.667" y="604.667" type="line"/>
    </contour>
  </outline>
</glyph>
<glyph name="j" format="2">
  <advance width="312"/>
  <unicode hex="006A"/>
  <outline>
    <contour>
      <point x="22.3333" y="-208" type="line"/>
      <point x="52.3333" y="-208" type="line" smooth="yes"/>
      <point x="143" y="-208"/>
      <point x="208.333" y="-182.333"/>
      <point x="232.333" y="-78" type="curve" smooth="yes"/>
      <point x="365" y="500" type="line"/>
      <point x="245" y="500" type="line"/>
      <point x="118.667" y="-48" type="line" smooth="yes"/>
      <point x="109.333" y="-86"/>
      <point x="94.6667" y="-113"/>
      <point x="53.3333" y="-113" type="curve" smooth="yes"/>
      <point x="43.3333" y="-113" type="line"/>
    </contour>
    <contour>
      <point x="260.667" y="604.667" type="line"/>
      <point x="399.333" y="604.667" type="line"/>
      <point x="426.667" y="722" type="line"/>
      <point x="288" y="722" type="line"/>
    </contour>
  </outline>
</glyph>
<glyph name="k" format="2">
	<unicode hex="006B"/>
	<advance width="526"/>
	<outline>
		<contour>
			<point name="n00" x="509.667" y="0" type="line"/>
			<point x="372.667" y="283.333" type="line"/>
			<point name="n02" x="608.667" y="500" type="line"/>
			<point x="463" y="500" type="line"/>
			<point x="248.333" y="298" type="line"/>
			<point name="n05" x="347" y="722" type="line"/>
			<point x="227" y="722" type="line"/>
			<point x="60" y="0" type="line"/>
			<point x="180" y="0" type="line"/>
			<point x="240.667" y="263" type="line"/>
			<point x="360.667" y="0" type="line"/>
		</contour>
	</outline>
</glyph>
<glyph name="l" format="2">
	<unicode hex="006C"/>
	<advance width="253"/>
	<outline>
		<contour>
			<point name="n00" x="186.667" y="0" type="line"/>
			<point name="n01" x="353.667" y="722" type="line"/>
			<point x="233.667" y="722" type="line"/>
			<point name="n03" x="66.6667" y="0" type="line"/>
		</contour>
	</outline>
</glyph>
<glyph name="o" format="2">
  <advance width="615"/>
  <unicode hex="006F"/>
  <anchor x="294" y="-60" name="bottom"/>
  <anchor x="438.333" y="580" name="top"/>
  <outline>
    <contour>
      <point x="103" y="185" type="curve" smooth="yes"/>
      <point x="103" y="59"/>
      <point x="183.333" y="-13.3333"/>
      <point x="307" y="-13.3333" type="curve" smooth="yes"/>
      <point x="488.333" y="-13.3333"/>
      <point x="632" y="144"/>
      <point x="632" y="317.333" type="curve" smooth="yes"/>
      <point x="632" y="440"/>
      <point x="553" y="513.333"/>
      <point x="429.333" y="513.333" type="curve" smooth="yes"/>
      <point x="248.333" y="513.333"/>
      <point x="103" y="355"/>
    </contour>
    <contour>
      <point x="225.667" y="181.667" type="curve" smooth="yes"/>
      <point x="225.667" y="284.667"/>
      <point x="290" y="434.333"/>
      <point x="411.667" y="434.333" type="curve" smooth="yes"/>
      <point x="480.667" y="434.333"/>
      <point x="509.333" y="386"/>
      <point x="509.333" y="317.333" type="curve" smooth="yes"/>
      <point x="509.333" y="214.333"/>
      <point x="445.667" y="65.6667"/>
      <point x="323.667" y="65.6667" type="curve" smooth="yes"/>
      <point x="254.333" y="65.6667"/>
      <point x="225.667" y="113.333"/>
    </contour>
  </outline>
</glyph>
<glyph name="p" format="2">
  <advance width="626"/>
  <unicode hex="0070"/>
  <anchor x="332" y="-60" name="bottom"/>
  <anchor x="448.333" y="580" name="top"/>
  <outline>
    <contour>
      <point x="37.6667" y="-200" type="line"/>
      <point x="157.667" y="-200" type="line"/>
      <point x="214.667" y="50" type="line"/>
      <point x="239" y="11"/>
      <point x="294.667" y="-13.3333"/>
      <point x="348.333" y="-13.3333" type="curve" smooth="yes"/>
      <point x="531" y="-13.3333"/>
      <point x="644.667" y="165"/>
      <point x="644.667" y="324.667" type="curve" smooth="yes"/>
      <point x="644.667" y="436.333"/>
      <point x="589.667" y="513.333"/>
      <point x="471.667" y="513.333" type="curve" smooth="yes"/>
      <point x="404.667" y="513.333"/>
      <point x="342" y="470.333"/>
      <point x="303" y="428.333" type="curve"/>
      <point x="318.333" y="500" type="line"/>
      <point x="198.667" y="500" type="line"/>
    </contour>
    <contour>
      <point x="250.667" y="175.333" type="curve" smooth="yes"/>
      <point x="250.667" y="275.667"/>
      <point x="311" y="432"/>
      <point x="433" y="432" type="curve" smooth="yes"/>
      <point x="498" y="432"/>
      <point x="524.667" y="387"/>
      <point x="524.667" y="322" type="curve" smooth="yes"/>
      <point x="524.667" y="220.667"/>
      <point x="460" y="64.6667"/>
      <point x="341" y="64.6667" type="curve" smooth="yes"/>
      <point x="273" y="64.6667"/>
      <point x="250.667" y="115"/>
    </contour>
  </outline>
</glyph>
<glyph name="q" format="2">
	<unicode hex="0071"/>
	<advance width="569"/>
	<outline>
		<contour>
			<point x="192" y="251" type="curve" smooth="yes"/>
			<point x="216" y="356"/>
			<point x="282" y="450"/>
			<point name="n03" x="385" y="450" type="curve" smooth="yes"/>
			<point x="484" y="450"/>
			<point x="511" y="362"/>
			<point x="485" y="251" type="curve" smooth="yes"/>
			<point x="459" y="140"/>
			<point x="392" y="52"/>
			<point name="n09" x="293" y="52" type="curve" smooth="yes"/>
			<point x="190" y="52"/>
			<point x="168" y="146"/>
		</contour>
		<contour>
			<point x="473" y="-200" type="line"/>
			<point name="n13" x="634" y="500" type="line"/>
			<point name="hr01" x="544" y="500" type="line"/>
			<point x="530" y="437" type="line"/>
			<point x="485" y="487"/>
			<point x="452" y="513"/>
			<point name="n18" x="389" y="513" type="curve" smooth="yes"/>
			<point x="227" y="513"/>
			<point x="133" y="405"/>
			<point x="97" y="250" type="curve" smooth="yes"/>
			<point x="61" y="94"/>
			<point x="104" y="-13"/>
			<point name="n24" x="266" y="-13" type="curve" smooth="yes"/>
			<point x="316" y="-13"/>
			<point x="374" y="11"/>
			<point x="439" y="53" type="curve"/>
			<point x="381" y="-200" type="line"/>
		</contour>
	</outline>
</glyph>
<glyph name="t" format="2">
	<unicode hex="0074"/>
	<advance width="370"/>
	<outline>
		<contour>
			<point x="250" y="131" type="line"/>
			<point name="n01" x="320" y="435" type="line"/>
			<point x="430" y="435" type="line"/>
			<point name="n03" x="445" y="500" type="line"/>
			<point name="n04" x="335" y="500" type="line"/>
			<point x="367" y="636" type="line"/>
			<point x="268" y="599" type="line"/>
			<point x="245" y="500" type="line"/>
			<point x="155" y="500" type="line"/>
			<point name="n09" x="140" y="435" type="line"/>
			<point x="230" y="435" type="line"/>
			<point x="160" y="131" type="line" smooth="yes"/>
			<point x="138" y="35"/>
			<point x="154" y="-14"/>
			<point x="240" y="-14" type="curve" smooth="yes"/>
			<point name="n15" x="252" y="-14" type="line"/>
			<point x="281" y="-13"/>
			<point x="307" y="-9"/>
			<point x="330" y="-2" type="curve"/>
			<point x="344" y="62" type="line"/>
			<point x="327" y="57"/>
			<point x="308" y="54"/>
			<point x="287" y="53" type="curve"/>
			<point name="n23" x="281" y="53" type="line" smooth="yes"/>
			<point x="243" y="53"/>
			<point x="240" y="83"/>
			<point x="250" y="128" type="curve"/>
		</contour>
	</outline>
</glyph>
<glyph name="v" format="2">
	<unicode hex="0076"/>
	<advance width="540"/>
	<outline>
		<contour>
			<point name="n00" x="644.333" y="500" type="line"/>
			<point x="516.667" y="500" type="line"/>
			<point x="304" y="137.333" type="line"/>
			<point x="257.667" y="500" type="line"/>
			<point x="126.667" y="500" type="line"/>
			<point name="n05" x="205.333" y="0" type="line"/>
			<point x="336" y="0" type="line"/>
		</contour>
	</outline>
</glyph>
<glyph name="w" format="2">
	<unicode hex="0077"/>
	<advance width="841"/>
	<outline>
		<contour>
			<point name="n00" x="945.333" y="500" type="line"/>
			<point x="820.667" y="500" type="line"/>
			<point x="636.667" y="150" type="line"/>
			<point x="608" y="500" type="line"/>
			<point x="464" y="500" type="line"/>
			<point x="274" y="150" type="line"/>
			<point name="n06" x="251.333" y="500" type="line"/>
			<point name="n07" x="126.667" y="500" type="line"/>
			<point name="n08" x="170" y="0" type="line"/>
			<point x="306.667" y="0" type="line"/>
			<point x="507" y="371.667" type="line"/>
			<point x="535.333" y="0" type="line"/>
			<point x="672" y="0" type="line"/>
		</contour>
	</outline>
</glyph>
<glyph name="x" format="2">
	<unicode hex="0078"/>
	<advance width="543"/>
	<outline>
		<contour>
			<point name="n00" x="532" y="0" type="line"/>
			<point x="410.333" y="265" type="line"/>
			<point name="n02" x="631.333" y="500" type="line"/>
			<point x="496.333" y="500" type="line"/>
			<point x="360.667" y="342.333" type="line"/>
			<point x="287.667" y="500" type="line"/>
			<point x="143" y="500" type="line"/>
			<point x="258" y="265" type="line"/>
			<point x="11.6667" y="0" type="line"/>
			<point x="146.667" y="0" type="line"/>
			<point x="306.333" y="185" type="line"/>
			<point x="387.333" y="0" type="line"/>
		</contour>
	</outline>
</glyph>
<glyph name="y" format="2">
  <advance width="562"/>
  <unicode hex="0079"/>
  <anchor x="450" y="-60" name="bottom"/>
  <anchor x="400" y="580" name="top"/>
  <outline>
    <contour>
      <point x="109.667" y="-200" type="line"/>
      <point x="239" y="-200" type="line"/>
      <point x="657.667" y="500" type="line"/>
      <point x="530" y="500" type="line"/>
      <point x="330.333" y="161.333" type="line"/>
      <point x="277.667" y="500" type="line"/>
      <point x="140.667" y="500" type="line"/>
      <point x="230" y="0.333333" type="line"/>
    </contour>
  </outline>
</glyph>
<glyph name="z" format="2">
	<unicode hex="007A"/>
	<advance width="487"/>
	<outline>
		<contour>
			<point name="n00" x="444.667" y="0" type="line"/>
			<point name="n01" x="463.333" y="80" type="line"/>
			<point x="188.667" y="80" type="line"/>
			<point x="528.667" y="402.333" type="line"/>
			<point x="551" y="500" type="line"/>
			<point name="n05" x="168.333" y="500" type="line"/>
			<point name="n06" x="150.333" y="420" type="line"/>
			<point x="405.667" y="420" type="line"/>
			<point x="65.6667" y="97.6667" type="line"/>
			<point x="43.3333" y="0" type="line"/>
		</contour>
	</outline>
</glyph>
<glyph name="asciitilde" format="2">
  <advance width="636"/>
  <unicode hex="007E"/>
  <outline>
    <contour>
      <point x="96.3333" y="181.667" type="curve"/>
      <point x="187.333" y="181.667" type="line"/>
      <point x="211.333" y="212"/>
      <point x="246.667" y="231.333"/>
      <point x="273.667" y="231.333" type="curve" smooth="yes"/>
      <point x="312.667" y="231.333"/>
      <point x="398.667" y="184.667"/>
      <point x="474.333" y="184.667" type="curve" smooth="yes"/>
      <point x="537" y="184.667"/>
      <point x="639.333" y="272.333"/>
      <point x="662.667" y="328.333" type="curve"/>
      <point x="574.667" y="328.333" type="line"/>
      <point x="555.667" y="301.667"/>
      <point x="515.333" y="279.667"/>
      <point x="488.333" y="279.667" type="curve" smooth="yes"/>
      <point x="449.333" y="279.667"/>
      <point x="360.333" y="326.333"/>
      <point x="283.667" y="326.333" type="curve" smooth="yes"/>
      <point x="221.333" y="326.333"/>
      <point x="119" y="238"/>
    </contour>
  </outline>
</glyph>
<glyph name="exclamdown" format="2">
	<unicode hex="00A1"/>
	<advance width="333"/>
	<outline>
		<contour>
			<point name="n00" x="267.333" y="190.667" type="line"/>
			<point x="325.333" y="443.667" type="line"/>
			<point x="211" y="443.667" type="line"/>
			<point name="n03" x="153" y="190.667" type="line"/>
		</contour>
		<contour>
			<point name="n04" x="230.667" y="3" type="line"/>
			<point name="n05" x="298.333" y="372.667" type="line"/>
			<point x="199.667" y="372.667" type="line"/>
			<point x="97.3333" y="3" type="line"/>
		</contour>
	</outline>
</glyph>
<glyph name="currency" format="2">
  <advance width="612"/>
  <unicode hex="00A4"/>
  <outline>
    <contour>
      <point x="360.333" y="202" type="curve" smooth="yes"/>
      <point x="500" y="202"/>
      <point x="640.667" y="336.667"/>
      <point x="640.667" y="475" type="curve" smooth="yes"/>
      <point x="640.667" y="578.333"/>
      <point x="563.333" y="653"/>
      <point x="459.667" y="653" type="curve" smooth="yes"/>
      <point x="321.667" y="653"/>
      <point x="177.333" y="520.333"/>
      <point x="177.333" y="379.667" type="curve" smooth="yes"/>
      <point x="177.333" y="273.667"/>
      <point x="259" y="202"/>
    </contour>
    <contour>
      <point x="379.667" y="301" type="curve" smooth="yes"/>
      <point x="323" y="301"/>
      <point x="280.667" y="342"/>
      <point x="280.667" y="400" type="curve" smooth="yes"/>
      <point x="280.667" y="480.667"/>
      <point x="359.667" y="554"/>
      <point x="437.333" y="554" type="curve" smooth="yes"/>
      <point x="497" y="554"/>
      <point x="537.333" y="510"/>
      <point x="537.333" y="455" type="curve" smooth="yes"/>
      <point x="537.333" y="376.333"/>
      <point x="458.333" y="301"/>
    </contour>
    <contour>
      <point x="335.667" y="599" type="line"/>
      <point x="238" y="725.333" type="line"/>
      <point x="164.333" y="670" type="line"/>
      <point x="267" y="535.667" type="line"/>
    </contour>
    <contour>
      <point x="486" y="251.667" type="line"/>
      <point x="579.333" y="131.333" type="line"/>
      <point x="651.667" y="190" type="line"/>
      <point x="555.667" y="313.667" type="line"/>
    </contour>
    <contour>
      <point x="206.333" y="319.333" type="line"/>
      <point x="51.6667" y="194" type="line"/>
      <point x="107.667" y="124.667" type="line"/>
      <point x="266" y="253.333" type="line"/>
    </contour>
    <contour>
      <point x="611.667" y="535.667" type="line"/>
      <point x="770.333" y="665.333" type="line"/>
      <point x="714" y="733.333" type="line"/>
      <point x="555.667" y="604.333" type="line"/>
    </contour>
  </outline>
  <guideline angle="90" x="203" y="0"/>
</glyph>
<glyph name="yen" format="2">
  <advance width="568"/>
  <unicode hex="00A5"/>
  <outline>
    <contour>
      <point x="733.667" y="722" type="line"/>
      <point x="599.333" y="722" type="line"/>
      <point x="377.667" y="401" type="line"/>
      <point x="304" y="722" type="line"/>
      <point x="169.667" y="722" type="line"/>
      <point x="223.333" y="518" type="line"/>
      <point x="133" y="518" type="line"/>
      <point x="119.333" y="457" type="line"/>
      <point x="239.333" y="457" type="line"/>
      <point x="269.333" y="338" type="line"/>
      <point x="91.3333" y="338" type="line"/>
      <point x="77.3333" y="277" type="line"/>
      <point x="287" y="277" type="line"/>
      <point x="223" y="0" type="line"/>
      <point x="346.333" y="0" type="line"/>
      <point x="410.333" y="277" type="line"/>
      <point x="620" y="277" type="line"/>
      <point x="634" y="338" type="line"/>
      <point x="456.667" y="338" type="line"/>
      <point x="542.667" y="457" type="line"/>
      <point x="662" y="457" type="line"/>
      <point x="675.667" y="518" type="line"/>
      <point x="585.333" y="518" type="line"/>
    </contour>
  </outline>
</glyph>
<glyph name="dieresis" format="2">
	<unicode hex="00A8"/>
	<advance width="309"/>
	<outline>
		<contour>
			<point name="n00" x="388.333" y="630" type="line"/>
			<point name="n01" x="414.333" y="740.667" type="line"/>
			<point x="311" y="740.667" type="line"/>
			<point name="n03" x="285" y="630" type="line"/>
		</contour>
		<contour>
			<point x="315" y="630" type="line"/>
			<point name="n05" x="341" y="740.667" type="line"/>
			<point x="237.667" y="740.667" type="line"/>
			<point x="211.667" y="630" type="line"/>
		</contour>
	</outline>
</glyph>
<glyph name="ordfeminine" format="2">
  <advance width="445"/>
  <unicode hex="00AA"/>
  <outline>
    <component base="a" xScale="0.7154" yScale="0.7154" xOffset="81.3333" yOffset="351"/>
    <contour>
      <point x="461.667" y="235.667" type="line"/>
      <point x="471.333" y="279.333" type="line"/>
      <point x="122.333" y="279.333" type="line"/>
      <point x="112.667" y="235.667" type="line"/>
    </contour>
  </outline>
</glyph>
<glyph name="guillemotleft" format="2">
	<unicode hex="00AB"/>
	<advance width="588"/>
	<outline>
		<contour>
			<point name="n00" x="476.667" y="57" type="line"/>
			<point x="421.667" y="252" type="line"/>
			<point x="566.667" y="447" type="line"/>
			<point name="n03" x="454" y="447" type="line"/>
			<point name="n04" x="290" y="252" type="line"/>
			<point x="364" y="57" type="line"/>
		</contour>
		<contour>
			<point x="369.667" y="57" type="line"/>
			<point x="314.667" y="252" type="line"/>
			<point name="n08" x="459.667" y="447" type="line"/>
			<point x="347" y="447" type="line"/>
			<point x="183" y="252" type="line"/>
			<point x="257" y="57" type="line"/>
		</contour>
	</outline>
</glyph>
<glyph name="logicalnot" format="2">
  <advance width="663"/>
  <unicode hex="00AC"/>
  <outline>
    <contour>
      <point x="665" y="169" type="line"/>
      <point x="726" y="440" type="line"/>
      <point x="139.333" y="440" type="line"/>
      <point x="114.667" y="326" type="line"/>
      <point x="588" y="326" type="line"/>
      <point x="551.667" y="169" type="line"/>
    </contour>
  </outline>
</glyph>
<glyph name="uni00AD" format="2">
  <advance width="334"/>
  <unicode hex="00AD"/>
  <outline>
    <contour>
      <point x="354" y="242" type="line"/>
      <point x="377.333" y="356" type="line"/>
      <point x="120.667" y="356" type="line"/>
      <point x="97.3333" y="242" type="line"/>
    </contour>
  </outline>
</glyph>
<glyph name="registered" format="2">
  <advance width="497"/>
  <unicode hex="00AE"/>
  <outline>
    <contour>
      <point x="321" y="421.333" type="curve" smooth="yes"/>
      <point x="262.333" y="421.333"/>
      <point x="219.333" y="466.333"/>
      <point x="219.333" y="520" type="curve" smooth="yes"/>
      <point x="219.333" y="618"/>
      <point x="282.333" y="717.667"/>
      <point x="414" y="717.667" type="curve" smooth="yes"/>
      <point x="471.667" y="717.667"/>
      <point x="512.667" y="668.667"/>
      <point x="512.667" y="618" type="curve" smooth="yes"/>
      <point x="512.667" y="512.333"/>
      <point x="438.667" y="421.333"/>
    </contour>
    <contour>
      <point x="582.667" y="611" type="curve" smooth="yes"/>
      <point x="582.667" y="710.333"/>
      <point x="511.333" y="780.667"/>
      <point x="423.333" y="780.667" type="curve" smooth="yes"/>
      <point x="265.667" y="780.667"/>
      <point x="149.333" y="662.333"/>
      <point x="149.333" y="520" type="curve" smooth="yes"/>
      <point x="149.333" y="428.667"/>
      <point x="220.667" y="358.333"/>
      <point x="322" y="358.333" type="curve" smooth="yes"/>
      <point x="454.333" y="358.333"/>
      <point x="582.667" y="477.667"/>
    </contour>
    <contour>
      <point x="271.667" y="475.667" type="line"/>
      <point x="329.333" y="475.667" type="line"/>
      <point x="345" y="551.667" type="line"/>
      <point x="351" y="551.667" type="line" smooth="yes"/>
      <point x="362" y="551.667"/>
      <point x="371" y="545.667"/>
      <point x="371" y="527.667" type="curve" smooth="yes"/>
      <point x="371" y="514.667"/>
      <point x="367.333" y="489.667"/>
      <point x="367.333" y="475.667" type="curve"/>
      <point x="430" y="475.667" type="line"/>
      <point x="429" y="494.667"/>
      <point x="432" y="523.667"/>
      <point x="432" y="551.667" type="curve" smooth="yes"/>
      <point x="432" y="563.667"/>
      <point x="425" y="572.667"/>
      <point x="411" y="576.667" type="curve"/>
      <point x="439" y="584.667"/>
      <point x="453" y="605.667"/>
      <point x="453" y="631.667" type="curve" smooth="yes"/>
      <point x="453" y="655.667"/>
      <point x="433.333" y="673.667"/>
      <point x="393.333" y="673.667" type="curve" smooth="yes"/>
      <point x="311.667" y="673.667" type="line"/>
    </contour>
    <contour>
      <point x="353.333" y="592.667" type="line"/>
      <point x="363" y="637.333" type="line"/>
      <point x="368" y="637.333" type="line" smooth="yes"/>
      <point x="388" y="637.333"/>
      <point x="393" y="632.333"/>
      <point x="393" y="617.333" type="curve" smooth="yes"/>
      <point x="393" y="598.667"/>
      <point x="380.333" y="592.667"/>
      <point x="356.333" y="592.667" type="curve" smooth="yes"/>
    </contour>
  </outline>
  <guideline angle="0" x="0" y="722"/>
  <guideline angle="0" x="0" y="413"/>
</glyph>
<glyph name="macron" format="2">
  <advance width="309"/>
  <unicode hex="00AF"/>
  <outline>
    <contour>
      <point x="453" y="630" type="line"/>
      <point x="470.333" y="705.667" type="line"/>
      <point x="159" y="705.667" type="line"/>
      <point x="142.333" y="630" type="line"/>
    </contour>
  </outline>
</glyph>
<glyph name="degree" format="2">
	<unicode hex="00B0"/>
	<advance width="319"/>
	<outline>
		<contour>
			<point name="n00" x="312.333" y="660" type="curve" smooth="yes"/>
			<point x="258.667" y="660"/>
			<point x="210.667" y="638"/>
			<point x="204.333" y="610.333" type="curve" smooth="yes"/>
			<point x="198" y="582.667"/>
			<point x="235.333" y="560.333"/>
			<point name="n06" x="289" y="560.333" type="curve" smooth="yes"/>
			<point x="342.667" y="560.333"/>
			<point x="391.333" y="582.667"/>
			<point x="397.667" y="610.333" type="curve" smooth="yes"/>
			<point x="404" y="637.333"/>
			<point x="365.333" y="660"/>
		</contour>
		<contour>
			<point name="n12" x="298.667" y="600" type="curve" smooth="yes"/>
			<point x="252.333" y="600"/>
			<point x="216.333" y="605"/>
			<point name="n15" x="217.667" y="610.667" type="curve" smooth="yes"/>
			<point x="219" y="616.333"/>
			<point x="256.667" y="620.667"/>
			<point name="n18" x="303" y="620.667" type="curve" smooth="yes"/>
			<point x="349.333" y="620.667"/>
			<point x="385.667" y="616.333"/>
			<point name="n21" x="384.333" y="610.667" type="curve" smooth="yes"/>
			<point x="383" y="604.667"/>
			<point x="344.667" y="600"/>
		</contour>
	</outline>
</glyph>
<glyph name="twosuperior" format="2">
  <advance width="365"/>
  <unicode hex="00B2"/>
  <outline>
    <contour>
      <point x="109.667" y="351" type="line"/>
      <point x="411.333" y="351" type="line"/>
      <point x="425.333" y="411.333" type="line"/>
      <point x="222.667" y="411.333" type="line"/>
      <point x="270.333" y="440.333" type="line" smooth="yes"/>
      <point x="443.333" y="545.333"/>
      <point x="484" y="584.667"/>
      <point x="484" y="655" type="curve" smooth="yes"/>
      <point x="484" y="715"/>
      <point x="427.667" y="744.333"/>
      <point x="359.333" y="744.333" type="curve" smooth="yes"/>
      <point x="281.667" y="744.333"/>
      <point x="197.333" y="698.333"/>
      <point x="180" y="627.333" type="curve"/>
      <point x="276.333" y="627.333" type="line"/>
      <point x="286.333" y="663.333"/>
      <point x="311.333" y="684"/>
      <point x="345.333" y="684" type="curve" smooth="yes"/>
      <point x="373.667" y="684"/>
      <point x="388" y="670"/>
      <point x="388" y="647.667" type="curve" smooth="yes"/>
      <point x="388" y="596.333"/>
      <point x="305.333" y="536.667"/>
      <point x="168" y="446.667" type="curve" smooth="yes"/>
      <point x="125.333" y="418.667" type="line"/>
    </contour>
  </outline>
</glyph>
<glyph name="threesuperior" format="2">
  <advance width="368"/>
  <unicode hex="00B3"/>
  <outline>
    <contour>
      <point x="352.667" y="541.333" type="line"/>
      <point x="433" y="559.333"/>
      <point x="474" y="596.333"/>
      <point x="474" y="650.667" type="curve" smooth="yes"/>
      <point x="474" y="706.667"/>
      <point x="428.667" y="740"/>
      <point x="352.333" y="740" type="curve" smooth="yes"/>
      <point x="265.333" y="740"/>
      <point x="199" y="697"/>
      <point x="183" y="629.667" type="curve"/>
      <point x="271.667" y="629.667" type="line"/>
      <point x="283" y="666"/>
      <point x="304.333" y="683"/>
      <point x="337" y="683" type="curve" smooth="yes"/>
      <point x="365.333" y="683"/>
      <point x="378.667" y="670"/>
      <point x="378.667" y="643.667" type="curve" smooth="yes"/>
      <point x="378.667" y="599"/>
      <point x="342.333" y="575.667"/>
      <point x="272.667" y="575.667" type="curve"/>
      <point x="259.333" y="518.667" type="line"/>
      <point x="321.333" y="518.667"/>
      <point x="348.333" y="504"/>
      <point x="348.333" y="470" type="curve" smooth="yes"/>
      <point x="348.333" y="431.667"/>
      <point x="313" y="400.333"/>
      <point x="268" y="400.333" type="curve" smooth="yes"/>
      <point x="239.333" y="400.333"/>
      <point x="225.667" y="412.333"/>
      <point x="225.667" y="437.667" type="curve" smooth="yes"/>
      <point x="225.667" y="444.667"/>
      <point x="226.333" y="451"/>
      <point x="228" y="458.333" type="curve"/>
      <point x="137" y="458.333" type="line"/>
      <point x="135.333" y="449"/>
      <point x="133.667" y="439.667"/>
      <point x="133.667" y="428.667" type="curve" smooth="yes"/>
      <point x="133.667" y="373.667"/>
      <point x="178.333" y="341.333"/>
      <point x="257" y="341.333" type="curve" smooth="yes"/>
      <point x="364.333" y="341.333"/>
      <point x="440.333" y="391.333"/>
      <point x="440.333" y="463.667" type="curve" smooth="yes"/>
      <point x="440.333" y="510"/>
      <point x="408.667" y="543.667"/>
      <point x="353.333" y="555.333" type="curve"/>
      <point x="358" y="548.333" type="line"/>
    </contour>
  </outline>
</glyph>
<glyph name="acute" format="2">
  <advance width="201"/>
  <unicode hex="00B4"/>
  <outline>
    <contour>
      <point x="397" y="760.667" type="line"/>
      <point x="277" y="760.667" type="line"/>
      <point x="152.667" y="570.667" type="line"/>
      <point x="222.667" y="570.667" type="line"/>
    </contour>
  </outline>
</glyph>
<glyph name="paragraph" format="2">
  <advance width="559"/>
  <unicode hex="00B6"/>
  <outline>
    <contour>
      <point x="666" y="675.667" type="line"/>
      <point x="677" y="722" type="line"/>
      <point x="413.667" y="722" type="line" smooth="yes"/>
      <point x="295.333" y="722"/>
      <point x="162.667" y="604"/>
      <point x="162.667" y="484.333" type="curve" smooth="yes"/>
      <point x="162.667" y="397.333"/>
      <point x="232.667" y="352"/>
      <point x="320" y="352" type="curve"/>
      <point x="202" y="-160" type="line"/>
      <point x="265.333" y="-160" type="line"/>
      <point x="458.333" y="675.667" type="line"/>
      <point x="541.667" y="675.667" type="line"/>
      <point x="348.667" y="-160" type="line"/>
      <point x="412" y="-160" type="line"/>
      <point x="605" y="675.667" type="line"/>
    </contour>
  </outline>
</glyph>
<glyph name="periodcentered" format="2">
	<unicode hex="00B7"/>
	<advance width="280"/>
	<outline>
		<contour>
			<point name="n00" x="264.667" y="276.667" type="line"/>
			<point name="n01" x="294.333" y="405.667" type="line"/>
			<point x="174.333" y="405.667" type="line"/>
			<point name="n03" x="144.667" y="276.667" type="line"/>
		</contour>
	</outline>
</glyph>
<glyph name="cedilla" format="2">
	<unicode hex="00B8"/>
	<advance width="250"/>
	<outline>
		<contour>
			<point x="256.333" y="-154.667" type="line"/>
			<point x="272.667" y="-84.6667"/>
			<point x="231.667" y="-50"/>
			<point name="n03" x="136.333" y="-50.6667" type="curve"/>
			<point name="n04" x="148.333" y="-0.666667" type="line"/>
			<point x="101.667" y="-0.666667" type="line"/>
			<point x="78.6667" y="-100.667" type="line"/>
			<point name="n07" x="107.333" y="-100.667" type="line" smooth="yes"/>
			<point x="131" y="-100.667"/>
			<point x="156" y="-110.333"/>
			<point x="163.667" y="-129.667" type="curve"/>
			<point x="172.333" y="-144"/>
			<point x="167" y="-157.333"/>
			<point x="148.667" y="-169.333" type="curve"/>
			<point x="145.044" y="-184"/>
			<point x="129.141" y="-191.333"/>
			<point name="n16" x="104" y="-191.333" type="curve" smooth="yes"/>
			<point x="74" y="-191.333"/>
			<point x="40" y="-187.333"/>
			<point x="2" y="-178.667" type="curve"/>
			<point name="n20" x="-10.6667" y="-235.333" type="line"/>
			<point x="27.3333" y="-241.333"/>
			<point x="57.6667" y="-244.333"/>
			<point name="n23" x="82.6667" y="-244.333" type="curve" smooth="yes"/>
			<point x="152" y="-244.333"/>
			<point x="241" y="-221"/>
			<point name="n26" x="256.333" y="-156" type="curve"/>
		</contour>
	</outline>
</glyph>
<glyph name="onesuperior" format="2">
  <advance width="290"/>
  <unicode hex="00B9"/>
  <outline>
    <contour>
      <point x="309.333" y="350.667" type="line"/>
      <point x="398" y="734.333" type="line"/>
      <point x="320.667" y="734.333" type="line"/>
      <point x="299.333" y="720.333" type="line" smooth="yes"/>
      <point x="274.333" y="703"/>
      <point x="233.333" y="685.333"/>
      <point x="202" y="675.333" type="curve"/>
      <point x="187.667" y="613" type="line"/>
      <point x="221.667" y="621.333"/>
      <point x="257" y="639.333"/>
      <point x="293" y="662.333" type="curve"/>
      <point x="221.333" y="350.667" type="line"/>
    </contour>
  </outline>
</glyph>
<glyph name="ordmasculine" format="2">
  <advance width="413"/>
  <unicode hex="00BA"/>
  <outline>
    <contour>
      <point x="143" y="477.333" type="curve" smooth="yes"/>
      <point x="143" y="390"/>
      <point x="196.667" y="339.333"/>
      <point x="282.667" y="339.333" type="curve" smooth="yes"/>
      <point x="409" y="339.333"/>
      <point x="511" y="449"/>
      <point x="511" y="571" type="curve" smooth="yes"/>
      <point x="511" y="659"/>
      <point x="457.667" y="709.333"/>
      <point x="372.333" y="709.333" type="curve" smooth="yes"/>
      <point x="245.667" y="709.333"/>
      <point x="143" y="597.333"/>
    </contour>
    <contour>
      <point x="228.333" y="476.333" type="curve" smooth="yes"/>
      <point x="228.333" y="547.667"/>
      <point x="272.333" y="654"/>
      <point x="357.667" y="654" type="curve" smooth="yes"/>
      <point x="405.667" y="654"/>
      <point x="424.667" y="620.667"/>
      <point x="424.667" y="572.667" type="curve" smooth="yes"/>
      <point x="424.667" y="501.333"/>
      <point x="381.667" y="394.667"/>
      <point x="296.667" y="394.667" type="curve" smooth="yes"/>
      <point x="248" y="394.667"/>
      <point x="228.333" y="428.333"/>
    </contour>
    <contour>
      <point x="439.333" y="234" type="line"/>
      <point x="449.333" y="277.667" type="line"/>
      <point x="97" y="277.667" type="line"/>
      <point x="87" y="234" type="line"/>
    </contour>
  </outline>
</glyph>
<glyph name="guillemotright" format="2">
  <advance width="588"/>
  <unicode hex="00BB"/>
  <outline>
    <contour>
      <point x="521.667" y="252" type="line"/>
      <point x="447.667" y="447" type="line"/>
      <point x="335" y="447" type="line"/>
      <point x="389.667" y="252" type="line"/>
      <point x="245" y="57" type="line"/>
      <point x="357.667" y="57" type="line"/>
    </contour>
    <contour>
      <point x="414.667" y="252" type="line"/>
      <point x="340.667" y="447" type="line"/>
      <point x="228" y="447" type="line"/>
      <point x="282.667" y="252" type="line"/>
      <point x="138" y="57" type="line"/>
      <point x="250.667" y="57" type="line"/>
    </contour>
  </outline>
</glyph>
<glyph name="Adieresis" format="2">
	<unicode hex="00C4"/>
	<advance width="750"/>
	<outline>
		<contour>
			<point name="n00" x="573" y="278" type="line"/>
			<point x="300" y="278" type="line"/>
			<point x="512" y="611" type="line"/>
		</contour>
		<contour>
			<point name="n03" x="735" y="0" type="line"/>
			<point name="n04" x="595" y="722" type="line"/>
			<point x="485" y="722" type="line"/>
			<point x="15" y="0" type="line"/>
			<point x="118" y="0" type="line"/>
			<point x="242" y="193" type="line"/>
			<point name="n09" x="596" y="193" type="line"/>
			<point x="629" y="0" type="line"/>
		</contour>
		<contour>
			<point name="n11" x="528" y="850" type="line"/>
			<point name="n12" x="549" y="942" type="line"/>
			<point x="459" y="942" type="line"/>
			<point x="438" y="850" type="line"/>
		</contour>
		<contour>
			<point x="728" y="850" type="line"/>
			<point x="749" y="942" type="line"/>
			<point x="659" y="942" type="line"/>
			<point x="638" y="850" type="line"/>
		</contour>
	</outline>
</glyph>
<glyph name="Igrave" format="2">
	<unicode hex="00CC"/>
	<advance width="279"/>
	<outline>
		<contour>
			<point name="n00" x="314.333" y="546.667" type="line"/>
			<point name="n01" x="337.333" y="907.333" type="line"/>
			<point x="217" y="907.333" type="line"/>
			<point name="n03" x="234" y="546.667" type="line"/>
		</contour>
		<contour>
			<point name="n04" x="273.333" y="273.667" type="line"/>
			<point x="361" y="812" type="line"/>
			<point x="230.667" y="812" type="line"/>
			<point x="153" y="273.667" type="line"/>
		</contour>
	</outline>
</glyph>
<glyph name="Iacute" format="2">
	<unicode hex="00CD"/>
	<advance width="263"/>
	<outline>
		<contour>
			<point name="n00" x="413.667" y="666.667" type="line"/>
			<point name="n01" x="382.667" y="907.333" type="line"/>
			<point x="260.333" y="787.333" type="line"/>
			<point x="251.333" y="546.667" type="line"/>
		</contour>
		<contour>
			<point x="310.333" y="331" type="line"/>
			<point x="388" y="812.333" type="line"/>
			<point x="241.667" y="755.333" type="line"/>
			<point x="150.667" y="274" type="line"/>
		</contour>
	</outline>
</glyph>
<glyph name="Ntilde" format="2">
	<unicode hex="00D1"/>
	<advance width="722"/>
	<outline>
		<contour>
			<point name="n00" x="643" y="0" type="line"/>
			<point name="n01" x="810" y="722" type="line"/>
			<point x="709" y="722" type="line"/>
			<point x="572" y="130" type="line"/>
			<point x="390" y="722" type="line"/>
			<point x="247" y="722" type="line"/>
			<point x="80" y="0" type="line"/>
			<point x="181" y="0" type="line"/>
			<point x="318" y="592" type="line"/>
			<point x="499" y="0" type="line"/>
		</contour>
		<contour>
			<point x="404" y="840" type="curve"/>
			<point x="459" y="840" type="line"/>
			<point x="472" y="867"/>
			<point x="486" y="881"/>
			<point name="n14" x="500" y="881" type="curve" smooth="yes"/>
			<point x="508" y="881"/>
			<point name="hr01" x="573" y="845"/>
			<point name="n17" x="610" y="845" type="curve" smooth="yes"/>
			<point x="659" y="845"/>
			<point x="701" y="892"/>
			<point x="717" y="943" type="curve"/>
			<point x="662" y="943" type="line"/>
			<point x="649" y="916"/>
			<point x="635" y="902"/>
			<point name="n24" x="622" y="902" type="curve" smooth="yes"/>
			<point x="614" y="902"/>
			<point name="hr02" x="550" y="938"/>
			<point name="n27" x="511" y="938" type="curve" smooth="yes"/>
			<point x="462" y="938"/>
			<point x="420" y="890"/>
		</contour>
	</outline>
</glyph>
<glyph name="multiply" format="2">
	<unicode hex="00D7"/>
	<advance width="880"/>
	<outline>
		<contour>
			<point x="726" y="69" type="line"/>
			<point x="549" y="300" type="line"/>
			<point name="n02" x="833" y="531" type="line"/>
			<point x="803" y="570" type="line"/>
			<point x="518" y="338" type="line"/>
			<point name="n05" x="341" y="570" type="line"/>
			<point x="293" y="531" type="line"/>
			<point x="469" y="300" type="line"/>
			<point name="n08" x="186" y="69" type="line"/>
			<point name="n09" x="216" y="30" type="line"/>
			<point x="500" y="262" type="line"/>
			<point x="678" y="30" type="line"/>
		</contour>
	</outline>
</glyph>
<glyph name="Oslash" format="2">
	<unicode hex="00D8"/>
	<advance width="774"/>
	<outline>
		<contour>
			<point x="651" y="621" type="curve"/>
			<point x="246" y="170" type="line"/>
			<point x="228" y="220"/>
			<point x="229" y="288"/>
			<point x="249" y="375" type="curve" smooth="yes"/>
			<point x="291" y="558"/>
			<point x="387" y="649"/>
			<point name="n07" x="537" y="649" type="curve" smooth="yes"/>
			<point x="584" y="649"/>
			<point x="621" y="640"/>
		</contour>
		<contour>
			<point x="697" y="375" type="curve" smooth="yes"/>
			<point x="658" y="207"/>
			<point x="573" y="74"/>
			<point name="n13" x="404" y="74" type="curve" smooth="yes"/>
			<point x="359" y="74"/>
			<point x="323" y="86"/>
			<point x="295" y="104" type="curve"/>
			<point x="700" y="556" type="line"/>
			<point x="715" y="511"/>
			<point x="715" y="451"/>
		</contour>
		<contour>
			<point x="892" y="768" type="line"/>
			<point x="829" y="817" type="line"/>
			<point x="720" y="696" type="line"/>
			<point x="678" y="723"/>
			<point x="624" y="736"/>
			<point name="n25" x="558" y="736" type="curve" smooth="yes"/>
			<point x="340" y="736"/>
			<point x="195" y="588"/>
			<point x="145" y="372" type="curve" smooth="yes"/>
			<point x="118" y="254"/>
			<point x="127" y="160"/>
			<point x="173" y="89" type="curve"/>
			<point x="47" y="-51" type="line"/>
			<point x="111" y="-100" type="line"/>
			<point x="228" y="30" type="line"/>
			<point x="266" y="1"/>
			<point x="318" y="-13"/>
			<point name="n37" x="383" y="-13" type="curve" smooth="yes"/>
			<point x="586" y="-13"/>
			<point x="747" y="144"/>
			<point x="800" y="375" type="curve" smooth="yes"/>
			<point x="826" y="486"/>
			<point x="818" y="574"/>
			<point x="776" y="639" type="curve"/>
		</contour>
	</outline>
</glyph>
<glyph name="Ugrave" format="2">
	<unicode hex="00D9"/>
	<advance width="736"/>
	<outline>
		<contour>
			<point x="619" y="821" type="line"/>
			<point x="558" y="992" type="line"/>
			<point x="457" y="992" type="line"/>
			<point x="558" y="821" type="line"/>
		</contour>
		<contour>
			<point x="154" y="322" type="line" smooth="yes"/>
			<point x="102" y="96"/>
			<point x="149" y="-14"/>
			<point name="n07" x="365" y="-14" type="curve" smooth="yes"/>
			<point x="582" y="-14"/>
			<point x="679" y="96"/>
			<point x="731" y="322" type="curve" smooth="yes"/>
			<point name="n11" x="824" y="722" type="line"/>
			<point x="723" y="722" type="line"/>
			<point x="630" y="322" type="line" smooth="yes"/>
			<point x="595" y="171"/>
			<point x="533" y="74"/>
			<point name="n16" x="385" y="74" type="curve" smooth="yes"/>
			<point x="236" y="74"/>
			<point x="219" y="168"/>
			<point x="255" y="322" type="curve" smooth="yes"/>
			<point x="348" y="722" type="line"/>
			<point x="247" y="722" type="line"/>
		</contour>
	</outline>
</glyph>
<glyph name="Uacute" format="2">
	<unicode hex="00DA"/>
	<advance width="736"/>
	<outline>
		<contour>
			<point name="n00" x="366" y="-14" type="curve" smooth="yes"/>
			<point x="587" y="-14"/>
			<point x="679" y="96"/>
			<point x="731" y="322" type="curve" smooth="yes"/>
			<point name="n04" x="824" y="722" type="line"/>
			<point x="723" y="722" type="line"/>
			<point x="630" y="322" type="line" smooth="yes"/>
			<point x="595" y="171"/>
			<point x="533" y="74"/>
			<point name="n09" x="385" y="74" type="curve" smooth="yes"/>
			<point x="236" y="74"/>
			<point x="219" y="168"/>
			<point x="255" y="322" type="curve" smooth="yes"/>
			<point x="348" y="722" type="line"/>
			<point x="247" y="722" type="line"/>
			<point x="154" y="322" type="line" smooth="yes"/>
			<point x="102" y="96"/>
			<point x="149" y="-14"/>
		</contour>
		<contour>
			<point x="737" y="992" type="line"/>
			<point x="636" y="992" type="line"/>
			<point x="497" y="821" type="line"/>
			<point x="558" y="821" type="line"/>
		</contour>
	</outline>
</glyph>
<glyph name="Ucircumflex" format="2">
	<unicode hex="00DB"/>
	<advance width="736"/>
	<outline>
		<contour>
			<point name="n00" x="365" y="-14" type="curve" smooth="yes"/>
			<point x="557" y="-14"/>
			<point x="679" y="96"/>
			<point x="731" y="322" type="curve" smooth="yes"/>
			<point name="n04" x="824" y="722" type="line"/>
			<point x="723" y="722" type="line"/>
			<point x="630" y="322" type="line" smooth="yes"/>
			<point x="595" y="171"/>
			<point x="533" y="74"/>
			<point name="n09" x="385" y="74" type="curve" smooth="yes"/>
			<point x="236" y="74"/>
			<point x="219" y="168"/>
			<point x="255" y="322" type="curve" smooth="yes"/>
			<point x="348" y="722" type="line"/>
			<point x="247" y="722" type="line"/>
			<point x="154" y="322" type="line" smooth="yes"/>
			<point x="102" y="96"/>
			<point x="149" y="-14"/>
		</contour>
		<contour>
			<point x="703" y="821" type="line"/>
			<point x="652" y="991" type="line"/>
			<point x="542" y="991" type="line"/>
			<point x="413" y="821" type="line"/>
			<point x="473" y="821" type="line"/>
			<point x="583" y="931" type="line"/>
			<point x="643" y="821" type="line"/>
		</contour>
	</outline>
</glyph>
<glyph name="Udieresis" format="2">
	<unicode hex="00DC"/>
	<advance width="736"/>
	<outline>
		<contour>
			<point name="n00" x="723" y="837" type="line"/>
			<point name="n01" x="744" y="929" type="line"/>
			<point x="654" y="929" type="line"/>
			<point x="633" y="837" type="line"/>
		</contour>
		<contour>
			<point x="523" y="837" type="line"/>
			<point x="544" y="929" type="line"/>
			<point x="454" y="929" type="line"/>
			<point x="433" y="837" type="line"/>
		</contour>
		<contour>
			<point x="154" y="322" type="line" smooth="yes"/>
			<point x="102" y="96"/>
			<point x="149" y="-14"/>
			<point name="n11" x="365" y="-14" type="curve" smooth="yes"/>
			<point x="582" y="-14"/>
			<point x="679" y="96"/>
			<point x="731" y="322" type="curve" smooth="yes"/>
			<point name="n15" x="824" y="722" type="line"/>
			<point x="723" y="722" type="line"/>
			<point x="630" y="322" type="line" smooth="yes"/>
			<point x="592" y="157"/>
			<point x="527" y="74"/>
			<point name="n20" x="385" y="74" type="curve" smooth="yes"/>
			<point x="236" y="74"/>
			<point x="219" y="168"/>
			<point x="255" y="322" type="curve" smooth="yes"/>
			<point x="348" y="722" type="line"/>
			<point x="247" y="722" type="line"/>
		</contour>
	</outline>
</glyph>
<glyph name="Thorn" format="2">
	<unicode hex="00DE"/>
	<advance width="622"/>
	<outline>
		<contour>
			<point x="347" y="260" type="curve" smooth="yes"/>
			<point name="n01" x="241" y="260" type="line"/>
			<point x="297" y="501" type="line"/>
			<point name="n03" x="403" y="501" type="line" smooth="yes"/>
			<point x="511" y="501"/>
			<point x="576" y="478"/>
			<point x="553" y="379" type="curve" smooth="yes"/>
			<point x="530" y="280"/>
			<point x="456" y="260"/>
		</contour>
		<contour>
			<point x="651" y="380" type="curve" smooth="yes"/>
			<point x="690" y="551"/>
			<point x="579" y="588"/>
			<point name="n12" x="420" y="588" type="curve" smooth="yes"/>
			<point x="317" y="588" type="line"/>
			<point name="n14" x="348" y="723" type="line"/>
			<point x="247" y="723" type="line"/>
			<point name="n16" x="80" y="1" type="line"/>
			<point x="181" y="1" type="line"/>
			<point name="n18" x="221" y="172" type="line"/>
			<point x="324" y="172" type="line" smooth="yes"/>
			<point x="489" y="172"/>
			<point x="613" y="215"/>
		</contour>
	</outline>
</glyph>
<glyph name="ccedilla" format="2">
	<unicode hex="00E7"/>
	<advance width="508"/>
	<outline>
		<contour>
			<point name="n00" x="543" y="341" type="line"/>
			<point x="561" y="453"/>
			<point x="497" y="512"/>
			<point name="n03" x="386" y="512" type="curve" smooth="yes"/>
			<point x="237" y="512"/>
			<point x="132" y="399"/>
			<point x="96" y="244" type="curve" smooth="yes"/>
			<point x="61" y="91"/>
			<point x="110" y="0"/>
			<point name="n09" x="232" y="-13" type="curve"/>
			<point x="212" y="-100" type="line"/>
			<point name="n11" x="246" y="-100" type="line" smooth="yes"/>
			<point x="284" y="-100"/>
			<point x="326" y="-121"/>
			<point x="317" y="-159" type="curve" smooth="yes"/>
			<point x="311" y="-184"/>
			<point x="285" y="-196"/>
			<point name="n17" x="236" y="-196" type="curve" smooth="yes"/>
			<point x="201" y="-196"/>
			<point x="170" y="-193"/>
			<point x="134" y="-184" type="curve"/>
			<point x="122" y="-234" type="line"/>
			<point x="160" y="-240"/>
			<point x="191" y="-243"/>
			<point name="n24" x="216" y="-243" type="curve" smooth="yes"/>
			<point x="280" y="-243"/>
			<point x="375" y="-217"/>
			<point x="389" y="-158" type="curve" smooth="yes"/>
			<point x="406" y="-86"/>
			<point x="362" y="-50"/>
			<point name="n30" x="263" y="-50" type="curve"/>
			<point x="272" y="-14" type="line"/>
			<point x="383" y="-10"/>
			<point x="477" y="62"/>
			<point name="n34" x="507" y="167" type="curve"/>
			<point name="n35" x="412" y="167" type="line"/>
			<point x="393" y="95"/>
			<point x="341" y="50"/>
			<point name="n38" x="276" y="50" type="curve" smooth="yes"/>
			<point x="190" y="50"/>
			<point x="162" y="118"/>
			<point x="194" y="255" type="curve" smooth="yes"/>
			<point x="214" y="342"/>
			<point x="262" y="447"/>
			<point name="n44" x="372" y="447" type="curve" smooth="yes"/>
			<point x="432" y="447"/>
			<point x="457" y="402"/>
			<point name="n47" x="448" y="341" type="curve"/>
		</contour>
	</outline>
</glyph>
<glyph name="igrave" format="2">
	<unicode hex="00EC"/>
	<advance width="252"/>
	<outline>
		<contour>
			<point name="n00" x="276" y="400" type="line"/>
			<point name="n01" x="281" y="686.667" type="line"/>
			<point x="164.333" y="686.667" type="line"/>
			<point name="n03" x="199.333" y="400" type="line"/>
		</contour>
		<contour>
			<point name="n04" x="238.333" y="200" type="line"/>
			<point x="292.667" y="590.333" type="line"/>
			<point x="171" y="590.333" type="line"/>
			<point x="128" y="200" type="line"/>
		</contour>
	</outline>
</glyph>
<glyph name="iacute" format="2">
	<unicode hex="00ED"/>
	<advance width="229"/>
	<outline>
		<contour>
			<point name="n00" x="354.667" y="520" type="line"/>
			<point name="n01" x="306.333" y="686.667" type="line"/>
			<point x="188.333" y="566.667" type="line"/>
			<point x="196.667" y="400" type="line"/>
		</contour>
		<contour>
			<point x="277.667" y="257" type="line"/>
			<point x="320.667" y="590.333" type="line"/>
			<point x="184.333" y="533.333" type="line"/>
			<point x="128" y="200" type="line"/>
		</contour>
	</outline>
</glyph>
<glyph name="idieresis" format="2">
	<unicode hex="00EF"/>
	<advance width="252"/>
	<outline>
		<contour>
			<point name="n00" x="344.667" y="420" type="line"/>
			<point name="n01" x="401.667" y="666.667" type="line"/>
			<point x="298.333" y="666.667" type="line"/>
			<point x="241.333" y="420" type="line"/>
		</contour>
		<contour>
			<point name="hr01" x="219.667" y="630" type="line"/>
			<point x="249" y="740.667" type="line"/>
			<point name="n06" x="142.333" y="740.667" type="line"/>
			<point name="n07" x="116.333" y="630" type="line"/>
		</contour>
		<contour>
			<point x="268.333" y="210" type="line"/>
			<point x="352.333" y="574" type="line"/>
			<point x="232.333" y="574" type="line"/>
			<point x="148.333" y="210" type="line"/>
		</contour>
	</outline>
</glyph>
<glyph name="eth" format="2">
  <advance width="598"/>
  <unicode hex="00F0"/>
  <outline>
    <contour>
      <point x="93" y="174.667" type="curve" smooth="yes"/>
      <point x="93" y="45.6667"/>
      <point x="172.333" y="-15.3333"/>
      <point x="297.667" y="-15.3333" type="curve" smooth="yes"/>
      <point x="515" y="-15.3333"/>
      <point x="622" y="166"/>
      <point x="622" y="356" type="curve" smooth="yes"/>
      <point x="622" y="481.667"/>
      <point x="572" y="575.333"/>
      <point x="518.333" y="631.667" type="curve"/>
      <point x="665.667" y="694" type="line"/>
      <point x="654" y="744.667" type="line"/>
      <point x="481.667" y="673" type="line"/>
      <point x="460.213" y="690.735"/>
      <point x="395.825" y="730.266"/>
      <point x="364" y="741.333" type="curve"/>
      <point x="302" y="706.333" type="line"/>
      <point x="326.148" y="693.256"/>
      <point x="369.943" y="659.119"/>
      <point x="392.333" y="635.333" type="curve"/>
      <point x="224.667" y="566" type="line"/>
      <point x="235.667" y="516.333" type="line"/>
      <point x="428.333" y="595.333" type="line"/>
      <point x="447" y="574"/>
      <point x="467" y="540.667"/>
      <point x="472.333" y="505" type="curve"/>
      <point x="463.647" y="506.544"/>
      <point x="424.489" y="511.314"/>
      <point x="408" y="512.333" type="curve"/>
      <point x="219.667" y="512.333"/>
      <point x="93" y="349.667"/>
    </contour>
    <contour>
      <point x="213" y="181.333" type="curve" smooth="yes"/>
      <point x="213" y="284.333"/>
      <point x="277.667" y="431"/>
      <point x="401.667" y="431" type="curve" smooth="yes"/>
      <point x="465" y="431"/>
      <point x="496.333" y="393"/>
      <point x="496.333" y="318.333" type="curve" smooth="yes"/>
      <point x="496.333" y="217"/>
      <point x="439" y="68.6667"/>
      <point x="311" y="68.6667" type="curve" smooth="yes"/>
      <point x="243.333" y="68.6667"/>
      <point x="213" y="110.667"/>
    </contour>
  </outline>
</glyph>
<glyph name="oacute" format="2">
	<unicode hex="00F3"/>
	<advance width="580"/>
	<outline>
		<contour>
			<point x="503" y="248" type="curve" smooth="yes"/>
			<point x="480" y="148"/>
			<point x="405" y="51"/>
			<point name="n03" x="302" y="51" type="curve" smooth="yes"/>
			<point x="199" y="51"/>
			<point x="168" y="148"/>
			<point x="191" y="248" type="curve" smooth="yes"/>
			<point x="214" y="349"/>
			<point x="290" y="447"/>
			<point name="n09" x="393" y="447" type="curve" smooth="yes"/>
			<point x="496" y="447"/>
			<point x="526" y="349"/>
		</contour>
		<contour>
			<point x="598" y="250" type="line"/>
			<point x="635" y="410"/>
			<point x="564" y="512"/>
			<point name="n15" x="408" y="512" type="curve" smooth="yes"/>
			<point x="253" y="512"/>
			<point x="134" y="408"/>
			<point x="97" y="249" type="curve" smooth="yes"/>
			<point x="60" y="90"/>
			<point x="132" y="-14"/>
			<point name="n21" x="287" y="-14" type="curve" smooth="yes"/>
			<point x="443" y="-14"/>
			<point x="560" y="88"/>
			<point x="597" y="248" type="curve"/>
		</contour>
		<contour>
			<point x="613" y="771" type="line"/>
			<point x="512" y="771" type="line"/>
			<point x="373" y="600" type="line"/>
			<point x="434" y="600" type="line"/>
		</contour>
	</outline>
</glyph>
<glyph name="divide" format="2">
	<unicode hex="00F7"/>
	<advance width="1000"/>
	<outline>
		<contour>
			<point name="n00" x="595.333" y="413.667" type="curve" smooth="yes"/>
			<point x="563" y="413.667"/>
			<point x="529.333" y="386.667"/>
			<point x="521.333" y="353.667" type="curve" smooth="yes"/>
			<point x="513.333" y="320.667"/>
			<point x="535.333" y="294"/>
			<point name="n06" x="568" y="294" type="curve" smooth="yes"/>
			<point x="600.667" y="294"/>
			<point x="633.667" y="321"/>
			<point x="641.333" y="353.667" type="curve" smooth="yes"/>
			<point x="649.333" y="386.667"/>
			<point x="627.667" y="413.667"/>
		</contour>
		<contour>
			<point name="n12" x="862" y="269" type="line"/>
			<point name="n13" x="876" y="331" type="line"/>
			<point x="276" y="331" type="line"/>
			<point x="262" y="269" type="line"/>
		</contour>
		<contour>
			<point name="n16" x="570.667" y="306.333" type="curve" smooth="yes"/>
			<point name="hr02" x="538" y="306.333"/>
			<point x="504.667" y="279.333"/>
			<point x="496.667" y="246.333" type="curve" smooth="yes"/>
			<point x="488.667" y="213.333"/>
			<point x="510.667" y="187"/>
			<point name="n22" x="543" y="187" type="curve" smooth="yes"/>
			<point x="575.333" y="187"/>
			<point x="609.333" y="214"/>
			<point x="616.667" y="246.333" type="curve" smooth="yes"/>
			<point x="624.667" y="279.333"/>
			<point x="603.333" y="306.333"/>
		</contour>
	</outline>
</glyph>
<glyph name="ugrave" format="2">
	<unicode hex="00F9"/>
	<advance width="572"/>
	<outline>
		<contour>
			<point name="n00" x="292" y="48" type="line"/>
			<point x="226" y="48"/>
			<point x="184" y="103"/>
			<point x="199" y="169" type="curve" smooth="yes"/>
			<point name="n04" x="275" y="500" type="line"/>
			<point x="185" y="500" type="line"/>
			<point x="109" y="171" type="line" smooth="yes"/>
			<point x="80" y="46"/>
			<point x="130" y="-13"/>
			<point name="n09" x="258" y="-13" type="curve" smooth="yes"/>
			<point x="327" y="-13"/>
			<point x="384" y="13"/>
			<point x="429" y="64" type="curve"/>
			<point name="n13" x="414" y="0" type="line"/>
			<point x="504" y="0" type="line"/>
			<point x="619" y="500" type="line"/>
			<point x="529" y="500" type="line"/>
			<point x="455" y="178" type="line" smooth="yes"/>
			<point x="438" y="103"/>
			<point name="hr02" x="367" y="48"/>
			<point x="293" y="48" type="curve"/>
		</contour>
		<contour>
			<point x="484" y="600" type="line"/>
			<point x="423" y="771" type="line"/>
			<point x="322" y="771" type="line"/>
			<point x="423" y="600" type="line"/>
		</contour>
	</outline>
</glyph>
<glyph name="udieresis" format="2">
	<unicode hex="00FC"/>
	<advance width="572"/>
	<outline>
		<contour>
			<point name="n00" x="292" y="48" type="line"/>
			<point x="226" y="48"/>
			<point x="184" y="103"/>
			<point x="199" y="169" type="curve" smooth="yes"/>
			<point name="n04" x="275" y="500" type="line"/>
			<point x="185" y="500" type="line"/>
			<point x="109" y="171" type="line" smooth="yes"/>
			<point x="80" y="46"/>
			<point x="130" y="-13"/>
			<point name="n09" x="258" y="-13" type="curve" smooth="yes"/>
			<point x="327" y="-13"/>
			<point x="384" y="13"/>
			<point x="429" y="64" type="curve"/>
			<point name="n13" x="414" y="0" type="line"/>
			<point x="504" y="0" type="line"/>
			<point x="619" y="500" type="line"/>
			<point x="529" y="500" type="line"/>
			<point x="455" y="178" type="line" smooth="yes"/>
			<point x="438" y="103"/>
			<point name="hr02" x="367" y="48"/>
			<point x="293" y="48" type="curve"/>
		</contour>
		<contour>
			<point name="n21" x="377" y="630" type="line"/>
			<point name="n22" x="399" y="722" type="line"/>
			<point x="309" y="722" type="line"/>
			<point x="287" y="630" type="line"/>
		</contour>
		<contour>
			<point x="577" y="630" type="line"/>
			<point x="599" y="722" type="line"/>
			<point x="509" y="722" type="line"/>
			<point x="487" y="630" type="line"/>
		</contour>
	</outline>
</glyph>
<glyph name="thorn" format="2">
  <advance width="617"/>
  <unicode hex="00FE"/>
  <outline>
    <contour>
      <point x="633.667" y="346.333" type="curve"/>
      <point x="630.333" y="444.667"/>
      <point x="578.333" y="513.333"/>
      <point x="460" y="513.333" type="curve" smooth="yes"/>
      <point x="388" y="513.333"/>
      <point x="333.667" y="487.667"/>
      <point x="290.667" y="433.333" type="curve"/>
      <point x="357.333" y="722" type="line"/>
      <point x="237.333" y="722" type="line"/>
      <point x="24.3333" y="-200" type="line"/>
      <point x="144.333" y="-200" type="line"/>
      <point x="201" y="48.6667" type="line"/>
      <point x="227" y="9"/>
      <point x="272.667" y="-13.3333"/>
      <point x="337.333" y="-13.3333" type="curve" smooth="yes"/>
      <point x="529.333" y="-13.3333"/>
      <point x="633.667" y="175"/>
    </contour>
    <contour>
      <point x="419.333" y="431.667" type="curve" smooth="yes"/>
      <point x="485.667" y="431.667"/>
      <point x="511.333" y="383.333"/>
      <point x="511.333" y="320.333" type="curve" smooth="yes"/>
      <point x="511.333" y="220.333"/>
      <point x="445.333" y="64.6667"/>
      <point x="325.333" y="64.6667" type="curve" smooth="yes"/>
      <point x="257.667" y="64.6667"/>
      <point x="238" y="113.333"/>
      <point x="238" y="170.333" type="curve" smooth="yes"/>
      <point x="238" y="274.333"/>
      <point x="300.667" y="431.667"/>
    </contour>
  </outline>
</glyph>
<glyph name="amacron" format="2">
	<unicode hex="0101"/>
	<advance width="535"/>
	<outline>
		<contour>
			<point name="n00" x="541" y="573" type="line"/>
			<point name="n01" x="557" y="642" type="line"/>
			<point x="295" y="642" type="line"/>
			<point x="279" y="573" type="line"/>
		</contour>
		<contour>
			<point name="n04" x="385" y="447" type="curve" smooth="yes"/>
			<point x="454" y="447"/>
			<point x="489" y="412"/>
			<point x="475" y="350" type="curve"/>
			<point x="472" y="339"/>
			<point x="468" y="327"/>
			<point x="462" y="314" type="curve"/>
			<point x="448" y="314"/>
			<point x="408" y="316"/>
			<point name="n13" x="394" y="316" type="curve" smooth="yes"/>
			<point x="266" y="316"/>
			<point x="114" y="281"/>
			<point x="80" y="132" type="curve" smooth="yes"/>
			<point x="59" y="40"/>
			<point x="146" y="-13"/>
			<point name="n19" x="238" y="-13" type="curve" smooth="yes"/>
			<point x="316" y="-13"/>
			<point x="360" y="25"/>
			<point x="412" y="73" type="curve"/>
			<point x="409" y="62"/>
			<point x="408" y="38"/>
			<point name="n25" x="406" y="0" type="curve"/>
			<point name="n26" x="496" y="0" type="line"/>
			<point x="493" y="25"/>
			<point x="503" y="86"/>
			<point x="525" y="183" type="curve" smooth="yes"/>
			<point x="550" y="290" type="line" smooth="yes"/>
			<point x="568" y="366"/>
			<point x="574" y="412"/>
			<point x="571" y="429" type="curve" smooth="yes"/>
			<point x="561" y="486"/>
			<point x="504" y="514"/>
			<point name="n36" x="398" y="514" type="curve" smooth="yes"/>
			<point x="264" y="514"/>
			<point x="184" y="463"/>
			<point name="n39" x="162" y="366" type="curve"/>
			<point name="n40" x="255" y="366" type="line"/>
			<point x="268" y="424"/>
			<point x="328" y="447"/>
		</contour>
		<contour>
			<point x="177" y="144" type="curve" smooth="yes"/>
			<point x="197" y="229"/>
			<point x="315" y="249"/>
			<point name="n46" x="395" y="249" type="curve"/>
			<point x="396" y="249"/>
			<point x="413" y="248"/>
			<point x="446" y="246" type="curve"/>
			<point x="418" y="126"/>
			<point x="372" y="55"/>
			<point name="n52" x="256" y="55" type="curve" smooth="yes"/>
			<point x="202" y="55"/>
			<point x="165" y="91"/>
		</contour>
	</outline>
</glyph>
<glyph name="Ccaron" format="2">
	<unicode hex="010C"/>
	<advance width="660"/>
	<outline>
		<contour>
			<point x="627" y="529" type="curve"/>
			<point x="728" y="529" type="line"/>
			<point x="760" y="668"/>
			<point x="670" y="736"/>
			<point name="n04" x="519" y="736" type="curve" smooth="yes"/>
			<point x="302" y="736"/>
			<point x="182" y="572"/>
			<point x="132" y="357" type="curve" smooth="yes"/>
			<point x="83" y="143"/>
			<point x="129" y="-14"/>
			<point name="n10" x="344" y="-14" type="curve" smooth="yes"/>
			<point x="488" y="-14"/>
			<point x="624" y="58"/>
			<point x="655" y="193" type="curve"/>
			<point x="554" y="193" type="line"/>
			<point x="535" y="109"/>
			<point x="469" y="67"/>
			<point name="n17" x="361" y="67" type="curve" smooth="yes"/>
			<point x="208" y="67"/>
			<point x="194" y="183"/>
			<point x="234" y="356" type="curve" smooth="yes"/>
			<point x="280" y="557"/>
			<point x="370" y="657"/>
			<point name="n23" x="502" y="657" type="curve" smooth="yes"/>
			<point x="602" y="657"/>
			<point x="649" y="623"/>
		</contour>
		<contour>
			<point x="717" y="966" type="line"/>
			<point x="657" y="966" type="line"/>
			<point x="547" y="856" type="line"/>
			<point x="487" y="966" type="line"/>
			<point x="427" y="966" type="line"/>
			<point x="478" y="796" type="line"/>
			<point x="588" y="796" type="line"/>
		</contour>
	</outline>
</glyph>
<glyph name="Dcroat" format="2">
	<unicode hex="0110"/>
	<advance width="719"/>
	<outline>
		<contour>
			<point name="n00" x="328" y="88" type="curve" smooth="yes"/>
			<point x="202" y="88" type="line"/>
			<point name="n02" x="256" y="320" type="line"/>
			<point x="425" y="320" type="line"/>
			<point x="444" y="403" type="line"/>
			<point name="n05" x="275" y="403" type="line"/>
			<point x="329" y="636" type="line"/>
			<point name="n07" x="455" y="636" type="line" smooth="yes"/>
			<point x="619" y="636"/>
			<point x="685" y="531"/>
			<point x="646" y="363" type="curve" smooth="yes"/>
			<point x="608" y="197"/>
			<point x="491" y="88"/>
		</contour>
		<contour>
			<point x="744" y="362" type="line"/>
			<point x="795" y="583"/>
			<point x="712" y="723"/>
			<point name="n16" x="472" y="723" type="curve" smooth="yes"/>
			<point x="247" y="723" type="line"/>
			<point x="173" y="403" type="line"/>
			<point x="93" y="403" type="line"/>
			<point x="74" y="320" type="line"/>
			<point x="154" y="320" type="line"/>
			<point x="80" y="1" type="line"/>
			<point name="n23" x="305" y="1" type="line" smooth="yes"/>
			<point x="529" y="1"/>
			<point x="691" y="130"/>
			<point x="745" y="363" type="curve"/>
		</contour>
	</outline>
</glyph>
<glyph name="dcroat" format="2">
	<unicode hex="0111"/>
	<advance width="561"/>
	<outline>
		<contour>
			<point name="n00" x="511" y="0" type="line"/>
			<point name="n01" x="643" y="573" type="line"/>
			<point x="692" y="573" type="line"/>
			<point x="708" y="642" type="line"/>
			<point name="n04" x="659" y="642" type="line"/>
			<point name="n05" x="678" y="722" type="line"/>
			<point x="588" y="722" type="line"/>
			<point x="569" y="642" type="line"/>
			<point x="446" y="642" type="line"/>
			<point x="430" y="573" type="line"/>
			<point x="553" y="573" type="line"/>
			<point x="521" y="435" type="line"/>
			<point x="498" y="479"/>
			<point x="459" y="513"/>
			<point name="n14" x="381" y="513" type="curve" smooth="yes"/>
			<point x="265" y="513"/>
			<point x="137" y="421"/>
			<point x="97" y="247" type="curve" smooth="yes"/>
			<point x="64" y="103"/>
			<point name="hr01" x="122" y="-13"/>
			<point name="n20" x="269" y="-13" type="curve" smooth="yes"/>
			<point x="329" y="-13"/>
			<point x="401" y="28"/>
			<point x="434" y="57" type="curve"/>
			<point name="hr02" x="421" y="0" type="line"/>
		</contour>
		<contour>
			<point x="189" y="248" type="curve" smooth="yes"/>
			<point x="212" y="346"/>
			<point x="271" y="449"/>
			<point name="n28" x="368" y="449" type="curve" smooth="yes"/>
			<point x="467" y="449"/>
			<point x="508" y="376"/>
			<point x="477" y="242" type="curve" smooth="yes"/>
			<point x="451" y="129"/>
			<point name="hr03" x="386" y="55"/>
			<point name="n34" x="289" y="55" type="curve" smooth="yes"/>
			<point x="197" y="55"/>
			<point x="167" y="152"/>
		</contour>
	</outline>
</glyph>
<glyph name="Ecaron" format="2">
	<unicode hex="011A"/>
	<advance width="577"/>
	<outline>
		<contour>
			<point name="n00" x="516" y="0" type="line"/>
			<point name="n01" x="536" y="87" type="line"/>
			<point x="180" y="87" type="line"/>
			<point name="n03" x="235" y="326" type="line"/>
			<point x="571" y="326" type="line"/>
			<point x="591" y="413" type="line"/>
			<point name="n06" x="255" y="413" type="line"/>
			<point x="307" y="635" type="line"/>
			<point name="n08" x="653" y="635" type="line"/>
			<point name="n09" x="673" y="722" type="line"/>
			<point x="226" y="722" type="line"/>
			<point x="59" y="0" type="line"/>
		</contour>
		<contour>
			<point x="651" y="966" type="line"/>
			<point x="591" y="966" type="line"/>
			<point x="481" y="856" type="line"/>
			<point x="421" y="966" type="line"/>
			<point x="361" y="966" type="line"/>
			<point x="412" y="796" type="line"/>
			<point x="522" y="796" type="line"/>
		</contour>
	</outline>
</glyph>
<glyph name="ecaron" format="2">
	<unicode hex="011B"/>
	<advance width="537"/>
	<outline>
		<contour>
			<point x="470" y="302" type="curve"/>
			<point name="n01" x="206" y="302" type="line"/>
			<point x="231" y="399"/>
			<point x="298" y="447"/>
			<point name="n04" x="370" y="447" type="curve" smooth="yes"/>
			<point x="478" y="447"/>
			<point x="484" y="362"/>
		</contour>
		<contour>
			<point x="592" y="743" type="line"/>
			<point x="532" y="743" type="line"/>
			<point x="421" y="633" type="line"/>
			<point x="362" y="743" type="line"/>
			<point x="302" y="743" type="line"/>
			<point x="352" y="573" type="line"/>
			<point x="462" y="573" type="line"/>
		</contour>
		<contour>
			<point name="n14" x="190" y="236" type="curve"/>
			<point x="548" y="236" type="line"/>
			<point x="559" y="283" type="line" smooth="yes"/>
			<point x="591" y="423"/>
			<point x="532" y="512"/>
			<point name="n19" x="387" y="512" type="curve" smooth="yes"/>
			<point x="234" y="512"/>
			<point x="134" y="405"/>
			<point x="98" y="251" type="curve" smooth="yes"/>
			<point x="64" y="102"/>
			<point x="106" y="-14"/>
			<point name="n25" x="271" y="-14" type="curve" smooth="yes"/>
			<point x="395" y="-14"/>
			<point x="488" y="55"/>
			<point name="n28" x="532" y="160" type="curve"/>
			<point name="n29" x="436" y="160" type="line"/>
			<point x="416" y="98"/>
			<point x="362" y="51"/>
			<point name="n32" x="294" y="51" type="curve" smooth="yes"/>
			<point x="198" y="51"/>
			<point x="166" y="134"/>
		</contour>
	</outline>
</glyph>
<glyph name="Gcircumflex" format="2">
	<unicode hex="011C"/>
	<advance width="735"/>
	<outline>
		<contour>
			<point x="679" y="36" type="curve"/>
			<point x="760" y="385" type="line"/>
			<point name="n02" x="495" y="385" type="line"/>
			<point name="n03" x="475" y="298" type="line"/>
			<point x="639" y="298" type="line"/>
			<point x="593" y="98" type="line"/>
			<point x="536" y="85"/>
			<point x="477" y="74"/>
			<point name="n08" x="413" y="74" type="curve" smooth="yes"/>
			<point x="235" y="74"/>
			<point x="202" y="211"/>
			<point x="243" y="388" type="curve" smooth="yes"/>
			<point x="281" y="551"/>
			<point x="391" y="649"/>
			<point name="n14" x="558" y="649" type="curve" smooth="yes"/>
			<point x="658" y="649"/>
			<point x="711" y="593"/>
			<point x="699" y="542" type="curve"/>
			<point x="800" y="542" type="line"/>
			<point x="829" y="669"/>
			<point x="704" y="736"/>
			<point name="n21" x="569" y="736" type="curve" smooth="yes"/>
			<point x="364" y="736"/>
			<point x="186" y="591"/>
			<point x="140" y="390" type="curve" smooth="yes"/>
			<point x="78" y="121"/>
			<point x="166" y="-14"/>
			<point name="n27" x="404" y="-14" type="curve" smooth="yes"/>
			<point x="517" y="-14"/>
			<point x="607" y="12"/>
		</contour>
		<contour>
			<point x="728" y="796" type="line"/>
			<point x="677" y="966" type="line"/>
			<point x="567" y="966" type="line"/>
			<point x="438" y="796" type="line"/>
			<point x="498" y="796" type="line"/>
			<point x="608" y="906" type="line"/>
			<point x="668" y="796" type="line"/>
		</contour>
	</outline>
</glyph>
<glyph name="gbreve" format="2">
	<unicode hex="011F"/>
	<advance width="560"/>
	<outline>
		<contour>
			<point x="191" y="266" type="curve" smooth="yes"/>
			<point x="219" y="387"/>
			<point x="277" y="448"/>
			<point name="n03" x="368" y="448" type="curve" smooth="yes"/>
			<point x="475" y="448"/>
			<point x="505" y="382"/>
			<point x="478" y="264" type="curve" smooth="yes"/>
			<point x="452" y="153"/>
			<point x="391" y="77"/>
			<point name="n09" x="288" y="77" type="curve" smooth="yes"/>
			<point x="189" y="77"/>
			<point x="167" y="162"/>
		</contour>
		<contour>
			<point x="98" y="266" type="curve" smooth="yes"/>
			<point x="62" y="110"/>
			<point x="109" y="14"/>
			<point name="n15" x="264" y="14" type="curve" smooth="yes"/>
			<point x="343" y="14"/>
			<point x="396" y="50"/>
			<point x="441" y="93" type="curve"/>
			<point x="401" y="-79"/>
			<point x="346" y="-136"/>
			<point name="n21" x="251" y="-136" type="curve" smooth="yes"/>
			<point x="187" y="-136"/>
			<point x="134" y="-104"/>
			<point name="n24" x="149" y="-40" type="curve"/>
			<point name="n25" x="55" y="-40" type="line"/>
			<point x="31" y="-143"/>
			<point x="109" y="-198"/>
			<point name="n28" x="218" y="-198" type="curve" smooth="yes"/>
			<point x="374" y="-198"/>
			<point x="483" y="-105"/>
			<point x="514" y="29" type="curve" smooth="yes"/>
			<point name="n32" x="622" y="499" type="line"/>
			<point name="hr01" x="532" y="499" type="line"/>
			<point x="520" y="444" type="line"/>
			<point x="503" y="482"/>
			<point x="447" y="512"/>
			<point name="n37" x="378" y="512" type="curve" smooth="yes"/>
			<point x="242" y="512"/>
			<point x="129" y="399"/>
		</contour>
		<contour>
			<point name="n40" x="409" y="636" type="curve" smooth="yes"/>
			<point x="388" y="636"/>
			<point x="332" y="636"/>
			<point name="n43" x="332" y="690" type="curve"/>
			<point name="n44" x="280" y="690" type="line"/>
			<point x="273" y="626"/>
			<point x="320" y="573"/>
			<point name="n47" x="393" y="573" type="curve" smooth="yes"/>
			<point x="467" y="573"/>
			<point x="537" y="627"/>
			<point x="561" y="690" type="curve"/>
			<point x="505" y="690" type="line"/>
			<point x="468" y="636"/>
			<point x="431" y="636"/>
		</contour>
	</outline>
</glyph>
<glyph name="gdotaccent" format="2">
	<unicode hex="0121"/>
	<advance width="560"/>
	<outline>
		<contour>
			<point x="191" y="266" type="curve" smooth="yes"/>
			<point x="219" y="387"/>
			<point x="277" y="448"/>
			<point name="n03" x="368" y="448" type="curve" smooth="yes"/>
			<point x="475" y="448"/>
			<point x="505" y="382"/>
			<point x="478" y="264" type="curve" smooth="yes"/>
			<point x="452" y="153"/>
			<point x="391" y="77"/>
			<point name="n09" x="288" y="77" type="curve" smooth="yes"/>
			<point x="189" y="77"/>
			<point x="167" y="162"/>
		</contour>
		<contour>
			<point x="98" y="266" type="curve" smooth="yes"/>
			<point x="62" y="110"/>
			<point x="109" y="14"/>
			<point name="n15" x="264" y="14" type="curve" smooth="yes"/>
			<point x="343" y="14"/>
			<point x="396" y="50"/>
			<point x="441" y="93" type="curve"/>
			<point x="401" y="-79"/>
			<point x="346" y="-136"/>
			<point name="n21" x="251" y="-136" type="curve" smooth="yes"/>
			<point x="187" y="-136"/>
			<point x="134" y="-104"/>
			<point name="n24" x="149" y="-40" type="curve"/>
			<point name="n25" x="55" y="-40" type="line"/>
			<point x="31" y="-143"/>
			<point x="109" y="-198"/>
			<point name="n28" x="218" y="-198" type="curve" smooth="yes"/>
			<point x="374" y="-198"/>
			<point x="483" y="-105"/>
			<point x="514" y="29" type="curve" smooth="yes"/>
			<point name="n32" x="622" y="499" type="line"/>
			<point name="hr01" x="532" y="499" type="line"/>
			<point x="520" y="444" type="line"/>
			<point x="503" y="482"/>
			<point x="447" y="512"/>
			<point name="n37" x="378" y="512" type="curve" smooth="yes"/>
			<point x="242" y="512"/>
			<point x="129" y="399"/>
		</contour>
		<contour>
			<point name="n40" x="440" y="573" type="line"/>
			<point name="n41" x="463" y="673" type="line"/>
			<point x="373" y="673" type="line"/>
			<point x="350" y="573" type="line"/>
		</contour>
	</outline>
</glyph>
<glyph name="Gcedilla" format="2">
	<unicode hex="0122"/>
	<advance width="735"/>
	<outline>
		<contour>
			<point x="679" y="36" type="curve"/>
			<point x="760" y="385" type="line"/>
			<point name="n02" x="495" y="385" type="line"/>
			<point name="n03" x="475" y="298" type="line"/>
			<point x="639" y="298" type="line"/>
			<point x="593" y="98" type="line"/>
			<point x="536" y="85"/>
			<point x="477" y="74"/>
			<point name="n08" x="413" y="74" type="curve" smooth="yes"/>
			<point x="235" y="74"/>
			<point x="202" y="211"/>
			<point x="243" y="388" type="curve" smooth="yes"/>
			<point x="281" y="551"/>
			<point x="391" y="649"/>
			<point name="n14" x="558" y="649" type="curve" smooth="yes"/>
			<point x="658" y="649"/>
			<point x="711" y="593"/>
			<point x="699" y="542" type="curve"/>
			<point x="800" y="542" type="line"/>
			<point x="829" y="669"/>
			<point x="704" y="736"/>
			<point name="n21" x="569" y="736" type="curve" smooth="yes"/>
			<point x="364" y="736"/>
			<point x="186" y="591"/>
			<point x="140" y="390" type="curve" smooth="yes"/>
			<point x="78" y="121"/>
			<point x="166" y="-14"/>
			<point name="n27" x="404" y="-14" type="curve" smooth="yes"/>
			<point x="517" y="-14"/>
			<point x="607" y="12"/>
		</contour>
		<contour>
			<point x="480" y="-74" type="line"/>
			<point x="360" y="-74" type="line"/>
			<point x="242" y="-324" type="line"/>
			<point x="312" y="-324" type="line"/>
		</contour>
	</outline>
</glyph>
<glyph name="gcedilla" format="2">
	<unicode hex="0123"/>
	<advance width="560"/>
	<outline>
		<contour>
			<point x="336" y="600" type="line"/>
			<point x="456" y="600" type="line"/>
			<point x="573" y="850" type="line"/>
			<point x="503" y="850" type="line"/>
		</contour>
		<contour>
			<point x="191" y="266" type="curve" smooth="yes"/>
			<point x="219" y="387"/>
			<point x="277" y="448"/>
			<point name="n07" x="368" y="448" type="curve" smooth="yes"/>
			<point x="475" y="448"/>
			<point x="505" y="382"/>
			<point x="478" y="264" type="curve" smooth="yes"/>
			<point x="452" y="153"/>
			<point x="391" y="77"/>
			<point name="n13" x="288" y="77" type="curve" smooth="yes"/>
			<point x="189" y="77"/>
			<point x="167" y="162"/>
		</contour>
		<contour>
			<point x="98" y="266" type="curve" smooth="yes"/>
			<point x="62" y="110"/>
			<point x="109" y="14"/>
			<point name="n19" x="264" y="14" type="curve" smooth="yes"/>
			<point x="343" y="14"/>
			<point x="396" y="50"/>
			<point x="441" y="93" type="curve"/>
			<point x="401" y="-79"/>
			<point x="346" y="-136"/>
			<point name="n25" x="251" y="-136" type="curve" smooth="yes"/>
			<point x="187" y="-136"/>
			<point x="134" y="-104"/>
			<point name="n28" x="149" y="-40" type="curve"/>
			<point name="n29" x="55" y="-40" type="line"/>
			<point x="31" y="-143"/>
			<point x="109" y="-198"/>
			<point name="n32" x="218" y="-198" type="curve" smooth="yes"/>
			<point x="374" y="-198"/>
			<point x="483" y="-105"/>
			<point x="514" y="29" type="curve" smooth="yes"/>
			<point name="n36" x="622" y="499" type="line"/>
			<point name="hr01" x="532" y="499" type="line"/>
			<point x="520" y="444" type="line"/>
			<point x="503" y="482"/>
			<point x="447" y="512"/>
			<point name="n41" x="378" y="512" type="curve" smooth="yes"/>
			<point x="242" y="512"/>
			<point x="129" y="399"/>
		</contour>
	</outline>
</glyph>
<glyph name="Hbar" format="2">
	<unicode hex="0126"/>
	<advance width="669"/>
	<outline>
		<contour>
			<point name="n00" x="609" y="0" type="line"/>
			<point name="n01" x="728" y="516" type="line"/>
			<point x="773" y="516" type="line"/>
			<point x="788" y="581" type="line"/>
			<point name="n04" x="743" y="581" type="line"/>
			<point name="n05" x="776" y="722" type="line"/>
			<point x="675" y="722" type="line"/>
			<point x="642" y="581" type="line"/>
			<point x="295" y="581" type="line"/>
			<point x="328" y="722" type="line"/>
			<point x="227" y="722" type="line"/>
			<point x="194" y="581" type="line"/>
			<point x="149" y="581" type="line"/>
			<point x="134" y="516" type="line"/>
			<point x="179" y="516" type="line"/>
			<point x="60" y="0" type="line"/>
			<point x="161" y="0" type="line"/>
			<point name="n17" x="236" y="326" type="line"/>
			<point x="583" y="326" type="line"/>
			<point x="508" y="0" type="line"/>
		</contour>
		<contour>
			<point x="280" y="516" type="line"/>
			<point x="627" y="516" type="line"/>
			<point x="603" y="413" type="line"/>
			<point name="n23" x="256" y="413" type="line"/>
		</contour>
	</outline>
</glyph>
<glyph name="Imacron" format="2">
	<unicode hex="012A"/>
	<advance width="280"/>
	<outline>
		<contour>
			<point name="n00" x="386" y="530" type="line"/>
			<point name="n01" x="453.667" y="823.333" type="line"/>
			<point x="206.667" y="823.333" type="line"/>
			<point x="139" y="530" type="line"/>
		</contour>
		<contour>
			<point name="n04" x="295" y="265.333" type="line"/>
			<point name="n05" x="411.667" y="769.667" type="line"/>
			<point x="224.333" y="769.667" type="line"/>
			<point x="107.667" y="265.333" type="line"/>
		</contour>
	</outline>
</glyph>
<glyph name="imacron" format="2">
	<unicode hex="012B"/>
	<advance width="252"/>
	<outline>
		<contour>
			<point name="n00" x="336" y="382" type="line"/>
			<point name="n01" x="387" y="601.333" type="line"/>
			<point x="143.667" y="601.333" type="line"/>
			<point name="n03" x="92.6667" y="382" type="line"/>
		</contour>
		<contour>
			<point name="n04" x="259.333" y="191" type="line"/>
			<point name="n05" x="341.333" y="547.333" type="line"/>
			<point x="164" y="547.333" type="line"/>
			<point x="82" y="191" type="line"/>
		</contour>
	</outline>
</glyph>
<glyph name="ij" format="2">
	<unicode hex="0133"/>
	<advance width="481"/>
	<outline>
		<contour>
			<point name="n00" x="167" y="0" type="line"/>
			<point name="n01" x="282" y="500" type="line"/>
			<point x="192" y="500" type="line"/>
			<point x="77" y="0" type="line"/>
		</contour>
		<contour>
			<point name="n04" x="320" y="630" type="line"/>
			<point name="n05" x="342" y="722" type="line"/>
			<point x="236" y="722" type="line"/>
			<point x="214" y="630" type="line"/>
		</contour>
		<contour>
			<point x="269" y="-140" type="line"/>
			<point x="258" y="-140"/>
			<point x="242" y="-140"/>
			<point name="n11" x="223" y="-141" type="curve"/>
			<point x="209" y="-205" type="line"/>
			<point name="n13" x="220" y="-205" type="line" smooth="yes"/>
			<point x="228" y="-205"/>
			<point x="235" y="-205"/>
			<point x="244" y="-206" type="curve"/>
			<point x="253" y="-206" type="line" smooth="yes"/>
			<point x="323" y="-206"/>
			<point x="384" y="-167"/>
			<point x="404" y="-80" type="curve" smooth="yes"/>
			<point x="537" y="500" type="line"/>
			<point x="447" y="500" type="line"/>
			<point x="320" y="-50" type="line" smooth="yes"/>
			<point x="309" y="-97"/>
			<point x="300" y="-140"/>
			<point x="268" y="-140" type="curve"/>
		</contour>
		<contour>
			<point x="576" y="630" type="line"/>
			<point x="598" y="722" type="line"/>
			<point x="492" y="722" type="line"/>
			<point x="470" y="630" type="line"/>
		</contour>
	</outline>
</glyph>
<glyph name="kgreenlandic" format="2">
  <advance width="479"/>
  <unicode hex="0138"/>
  <anchor x="255.333" y="-60" name="bottom"/>
  <anchor x="290.667" y="800" name="top"/>
  <outline>
    <contour>
      <point x="509.667" y="0" type="line"/>
      <point x="372.667" y="283.333" type="line"/>
      <point x="608.667" y="500" type="line"/>
      <point x="463" y="500" type="line"/>
      <point x="248.333" y="298" type="line"/>
      <point x="295" y="500" type="line"/>
      <point x="161" y="455.333" type="line"/>
      <point x="60" y="0" type="line"/>
      <point x="180" y="0" type="line"/>
      <point x="240.667" y="263" type="line"/>
      <point x="360.667" y="0" type="line"/>
    </contour>
  </outline>
</glyph>
<glyph name="lacute" format="2">
	<unicode hex="013A"/>
	<advance width="253"/>
	<outline>
		<contour>
			<point name="n00" x="413" y="641.333" type="line"/>
			<point name="n01" x="382" y="882" type="line"/>
			<point x="264" y="762" type="line"/>
			<point x="255" y="521.333" type="line"/>
		</contour>
		<contour>
			<point x="301.667" y="317.667" type="line"/>
			<point x="379.333" y="799" type="line"/>
			<point x="243" y="742" type="line"/>
			<point x="152" y="260.667" type="line"/>
		</contour>
	</outline>
</glyph>
<glyph name="lcaron" format="2">
	<unicode hex="013E"/>
	<advance width="307"/>
	<outline>
		<contour>
			<point name="n00" x="610" y="962.667" type="line"/>
			<point name="n01" x="565.667" y="1203.33" type="line"/>
			<point x="508.333" y="1010" type="line"/>
			<point x="518" y="769.333" type="line"/>
		</contour>
		<contour>
			<point x="317.333" y="240.667" type="line"/>
			<point x="388.667" y="722" type="line"/>
			<point x="259.333" y="638.667" type="line"/>
			<point x="171.333" y="157.333" type="line"/>
		</contour>
	</outline>
</glyph>
<glyph name="Ldot" format="2">
	<unicode hex="013F"/>
	<advance width="495"/>
	<outline>
		<contour>
			<point name="n00" x="480" y="-1" type="line"/>
			<point name="n01" x="500" y="86" type="line"/>
			<point x="181" y="86" type="line"/>
			<point name="n03" x="327" y="721" type="line"/>
			<point x="226" y="721" type="line"/>
			<point x="60" y="-1" type="line"/>
		</contour>
		<contour>
			<point name="n06" x="395" y="306" type="line"/>
			<point name="n07" x="423" y="429" type="line"/>
			<point x="315" y="429" type="line"/>
			<point x="287" y="306" type="line"/>
		</contour>
	</outline>
</glyph>
<glyph name="ldot" format="2">
	<unicode hex="0140"/>
	<advance width="504"/>
	<outline>
		<contour>
			<point name="n00" x="408.667" y="184" type="line"/>
			<point name="n01" x="484.333" y="512.667" type="line"/>
			<point x="370.333" y="512.667" type="line"/>
			<point x="294.667" y="184" type="line"/>
		</contour>
		<contour>
			<point name="n04" x="272" y="92.6667" type="line"/>
			<point name="n05" x="393" y="615" type="line"/>
			<point x="267" y="615" type="line"/>
			<point x="146" y="92.6667" type="line"/>
		</contour>
	</outline>
</glyph>
<glyph name="Lslash" format="2">
	<unicode hex="0141"/>
	<advance width="627"/>
	<outline>
		<contour>
			<point name="n00" x="581.667" y="0" type="line"/>
			<point name="n01" x="606.333" y="105.667" type="line"/>
			<point x="282.667" y="105.667" type="line"/>
			<point x="350.667" y="400.667" type="line"/>
			<point x="486" y="510" type="line"/>
			<point x="511" y="618.667" type="line"/>
			<point x="375.667" y="509" type="line"/>
			<point name="n07" x="425" y="722" type="line"/>
			<point x="291.333" y="722" type="line"/>
			<point x="211.667" y="377.333" type="line"/>
			<point x="89.3333" y="279" type="line"/>
			<point x="64.6667" y="171.333" type="line"/>
			<point x="186.667" y="269.333" type="line"/>
			<point x="124.333" y="0" type="line"/>
		</contour>
	</outline>
</glyph>
<glyph name="lslash" format="2">
	<unicode hex="0142"/>
	<advance width="353"/>
	<outline>
		<contour>
			<point x="437.667" y="471" type="line"/>
			<point x="463" y="579.667" type="line"/>
			<point x="350" y="488.667" type="line"/>
			<point name="n03" x="404" y="722" type="line"/>
			<point x="284" y="722" type="line"/>
			<point x="208.667" y="397" type="line"/>
			<point x="95.6667" y="306" type="line"/>
			<point x="71.6667" y="200.333" type="line"/>
			<point x="183.667" y="290.333" type="line"/>
			<point name="n09" x="117" y="0" type="line"/>
			<point x="237" y="0" type="line"/>
			<point x="325.333" y="381" type="line"/>
		</contour>
	</outline>
</glyph>
<glyph name="Ncaron" format="2">
	<unicode hex="0147"/>
	<advance width="683"/>
	<outline>
		<contour>
			<point name="n00" x="622" y="0" type="line"/>
			<point name="n01" x="789" y="722" type="line"/>
			<point x="688" y="722" type="line"/>
			<point x="551" y="130" type="line"/>
			<point x="369" y="722" type="line"/>
			<point x="226" y="722" type="line"/>
			<point x="59" y="0" type="line"/>
			<point x="160" y="0" type="line"/>
			<point x="297" y="592" type="line"/>
			<point x="478" y="0" type="line"/>
		</contour>
		<contour>
			<point x="709" y="966" type="line"/>
			<point x="701" y="966" type="line"/>
			<point x="539" y="856" type="line"/>
			<point x="479" y="966" type="line"/>
			<point x="419" y="966" type="line"/>
			<point x="470" y="796" type="line"/>
			<point x="580" y="796" type="line"/>
		</contour>
	</outline>
</glyph>
<glyph name="ncaron" format="2">
	<unicode hex="0148"/>
	<advance width="534"/>
	<outline>
		<contour>
			<point name="n00" x="377" y="453" type="line"/>
			<point x="444" y="453"/>
			<point x="486" y="398"/>
			<point x="471" y="331" type="curve" smooth="yes"/>
			<point name="n04" x="395" y="0" type="line"/>
			<point x="484" y="0" type="line"/>
			<point x="560" y="329" type="line" smooth="yes"/>
			<point x="588" y="452"/>
			<point x="538" y="513"/>
			<point name="n09" x="410" y="513" type="curve" smooth="yes"/>
			<point x="310" y="513"/>
			<point x="286" y="473"/>
			<point x="240" y="436" type="curve"/>
			<point name="n13" x="254" y="500" type="line"/>
			<point x="164" y="500" type="line"/>
			<point x="49" y="0" type="line"/>
			<point x="139" y="0" type="line"/>
			<point x="214" y="323" type="line" smooth="yes"/>
			<point x="231" y="398"/>
			<point name="hr02" x="302" y="453"/>
			<point x="376" y="453" type="curve"/>
		</contour>
		<contour>
			<point x="584" y="743" type="line"/>
			<point x="524" y="743" type="line"/>
			<point x="413" y="633" type="line"/>
			<point x="354" y="743" type="line"/>
			<point x="294" y="743" type="line"/>
			<point x="344" y="573" type="line"/>
			<point x="454" y="573" type="line"/>
		</contour>
	</outline>
</glyph>
<glyph name="Eng" format="2">
  <advance width="683"/>
  <unicode hex="014A"/>
  <outline>
    <component base="N"/>
    <contour>
      <point x="558" y="19.6667" type="line"/>
      <point x="542" y="-49" type="line" smooth="yes"/>
      <point x="534.333" y="-81.3333"/>
      <point x="515" y="-103.667"/>
      <point x="482.333" y="-103.667" type="curve" smooth="yes"/>
      <point x="462.333" y="-103.667"/>
      <point x="445.333" y="-95.3333"/>
      <point x="431.333" y="-76" type="curve"/>
      <point x="357" y="-143.333" type="line"/>
      <point x="383" y="-181"/>
      <point x="425" y="-200"/>
      <point x="478.333" y="-200" type="curve" smooth="yes"/>
      <point x="568" y="-200"/>
      <point x="640.333" y="-146.333"/>
      <point x="659" y="-62.3333" type="curve" smooth="yes"/>
      <point x="677.667" y="19.6667" type="line"/>
    </contour>
  </outline>
</glyph>
<glyph name="omacron" format="2">
	<unicode hex="014D"/>
	<advance width="572"/>
	<outline>
		<contour>
			<point x="494" y="248" type="curve" smooth="yes"/>
			<point x="471" y="148"/>
			<point x="398" y="51"/>
			<point name="n03" x="297" y="51" type="curve" smooth="yes"/>
			<point x="196" y="51"/>
			<point x="167" y="148"/>
			<point x="190" y="248" type="curve" smooth="yes"/>
			<point x="213" y="349"/>
			<point x="287" y="447"/>
			<point name="n09" x="388" y="447" type="curve" smooth="yes"/>
			<point x="489" y="447"/>
			<point x="517" y="349"/>
		</contour>
		<contour>
			<point x="589" y="250" type="line"/>
			<point x="626" y="410"/>
			<point x="556" y="512"/>
			<point name="n15" x="403" y="512" type="curve" smooth="yes"/>
			<point x="250" y="512"/>
			<point x="133" y="408"/>
			<point x="96" y="249" type="curve" smooth="yes"/>
			<point x="59" y="90"/>
			<point x="129" y="-14"/>
			<point name="n21" x="282" y="-14" type="curve" smooth="yes"/>
			<point x="435" y="-14"/>
			<point x="551" y="88"/>
			<point x="588" y="248" type="curve"/>
		</contour>
		<contour>
			<point name="n25" x="548" y="573" type="line"/>
			<point name="n26" x="564" y="642" type="line"/>
			<point x="302" y="642" type="line"/>
			<point x="286" y="573" type="line"/>
		</contour>
	</outline>
</glyph>
<glyph name="Ohungarumlaut" format="2">
	<unicode hex="0150"/>
	<advance width="754"/>
	<outline>
		<contour>
			<point x="688" y="375" type="curve" smooth="yes"/>
			<point x="649" y="207"/>
			<point x="563" y="74"/>
			<point name="n03" x="395" y="74" type="curve" smooth="yes"/>
			<point x="227" y="74"/>
			<point x="201" y="208"/>
			<point x="240" y="375" type="curve" smooth="yes"/>
			<point x="282" y="558"/>
			<point x="378" y="649"/>
			<point name="n09" x="528" y="649" type="curve" smooth="yes"/>
			<point x="694" y="649"/>
			<point x="726" y="540"/>
		</contour>
		<contour>
			<point x="791" y="375" type="curve" smooth="yes"/>
			<point x="840" y="589"/>
			<point x="762" y="736"/>
			<point name="n15" x="548" y="736" type="curve" smooth="yes"/>
			<point x="333" y="736"/>
			<point x="186" y="589"/>
			<point x="137" y="375" type="curve" smooth="yes"/>
			<point x="87" y="158"/>
			<point x="157" y="-14"/>
			<point name="n21" x="375" y="-14" type="curve" smooth="yes"/>
			<point x="592" y="-14"/>
			<point x="741" y="157"/>
		</contour>
		<contour>
			<point x="666" y="967" type="line"/>
			<point x="576" y="967" type="line"/>
			<point x="467" y="796" type="line"/>
			<point x="517" y="796" type="line"/>
		</contour>
		<contour>
			<point x="806" y="967" type="line"/>
			<point x="716" y="967" type="line"/>
			<point x="607" y="796" type="line"/>
			<point x="657" y="796" type="line"/>
		</contour>
	</outline>
</glyph>
<glyph name="Tcedilla" format="2">
	<unicode hex="0162"/>
	<advance width="622"/>
	<outline>
		<contour>
			<point name="n00" x="741" y="635" type="line"/>
			<point name="n01" x="761" y="722" type="line"/>
			<point x="188" y="722" type="line"/>
			<point x="168" y="635" type="line"/>
			<point x="404" y="635" type="line"/>
			<point x="257" y="0" type="line"/>
			<point x="286" y="0" type="line"/>
			<point x="265" y="-92" type="line"/>
			<point name="n08" x="299" y="-92" type="line" smooth="yes"/>
			<point x="336" y="-92"/>
			<point x="381" y="-111"/>
			<point x="372" y="-151" type="curve" smooth="yes"/>
			<point x="366" y="-176"/>
			<point x="338" y="-188"/>
			<point x="291" y="-188" type="curve" smooth="yes"/>
			<point name="n15" x="285" y="-188" type="line" smooth="yes"/>
			<point x="255" y="-188"/>
			<point x="222" y="-184"/>
			<point x="188" y="-176" type="curve"/>
			<point x="177" y="-226" type="line"/>
			<point x="215" y="-232"/>
			<point x="246" y="-235"/>
			<point name="n22" x="271" y="-235" type="curve" smooth="yes"/>
			<point x="335" y="-235"/>
			<point x="429" y="-209"/>
			<point x="443" y="-150" type="curve"/>
			<point x="441" y="-150" type="line"/>
			<point x="458" y="-78"/>
			<point x="416" y="-42"/>
			<point name="n29" x="316" y="-42" type="curve"/>
			<point x="326" y="0" type="line"/>
			<point x="358" y="0" type="line"/>
			<point x="505" y="635" type="line"/>
		</contour>
	</outline>
</glyph>
<glyph name="Tcaron" format="2">
	<unicode hex="0164"/>
	<advance width="622"/>
	<outline>
		<contour>
			<point name="n00" x="739" y="635" type="line"/>
			<point name="n01" x="759" y="722" type="line"/>
			<point x="186" y="722" type="line"/>
			<point x="166" y="635" type="line"/>
			<point x="402" y="635" type="line"/>
			<point name="n05" x="255" y="0" type="line"/>
			<point x="356" y="0" type="line"/>
			<point x="503" y="635" type="line"/>
		</contour>
		<contour>
			<point x="674" y="966" type="line"/>
			<point x="614" y="966" type="line"/>
			<point x="504" y="856" type="line"/>
			<point x="444" y="966" type="line"/>
			<point x="384" y="966" type="line"/>
			<point x="435" y="796" type="line"/>
			<point x="545" y="796" type="line"/>
		</contour>
	</outline>
</glyph>
<glyph name="tcaron" format="2">
	<unicode hex="0165"/>
	<advance width="370"/>
	<outline>
		<contour>
			<point x="250" y="131" type="line"/>
			<point name="n01" x="321" y="436" type="line"/>
			<point x="378" y="436" type="line"/>
			<point x="354" y="386" type="line"/>
			<point x="424" y="386" type="line"/>
			<point x="592" y="636" type="line"/>
			<point x="472" y="636" type="line"/>
			<point x="407" y="500" type="line"/>
			<point name="n08" x="335" y="500" type="line"/>
			<point x="367" y="636" type="line"/>
			<point x="268" y="599" type="line"/>
			<point x="245" y="500" type="line"/>
			<point x="155" y="500" type="line"/>
			<point x="141" y="436" type="line"/>
			<point x="231" y="436" type="line"/>
			<point x="160" y="131" type="line" smooth="yes"/>
			<point x="138" y="35"/>
			<point x="154" y="-14"/>
			<point x="240" y="-14" type="curve" smooth="yes"/>
			<point name="n19" x="252" y="-14" type="line"/>
			<point x="281" y="-13"/>
			<point x="307" y="-9"/>
			<point x="330" y="-2" type="curve"/>
			<point x="344" y="62" type="line"/>
			<point x="327" y="57"/>
			<point x="308" y="54"/>
			<point x="287" y="53" type="curve"/>
			<point name="n27" x="281" y="53" type="line" smooth="yes"/>
			<point x="243" y="53"/>
			<point x="240" y="83"/>
			<point x="250" y="128" type="curve"/>
		</contour>
	</outline>
</glyph>
<glyph name="tbar" format="2">
  <advance width="370"/>
  <unicode hex="0167"/>
  <outline>
    <component base="t"/>
    <contour>
      <point x="137" y="319.667" type="line"/>
      <point x="119.333" y="241.333" type="line"/>
      <point x="386" y="241.333" type="line"/>
      <point x="403.667" y="319.667" type="line"/>
    </contour>
  </outline>
</glyph>
<glyph name="Utilde" format="2">
	<unicode hex="0168"/>
	<advance width="697"/>
	<outline>
		<contour>
			<point x="347" y="-14" type="line"/>
			<point x="564" y="-14"/>
			<point x="661" y="96"/>
			<point x="713" y="322" type="curve" smooth="yes"/>
			<point name="n04" x="806" y="722" type="line"/>
			<point x="705" y="722" type="line"/>
			<point x="612" y="322" type="line" smooth="yes"/>
			<point x="574" y="157"/>
			<point x="509" y="74"/>
			<point name="n09" x="367" y="74" type="curve" smooth="yes"/>
			<point x="218" y="74"/>
			<point x="201" y="168"/>
			<point x="237" y="322" type="curve" smooth="yes"/>
			<point x="330" y="722" type="line"/>
			<point x="229" y="722" type="line"/>
			<point x="136" y="322" type="line" smooth="yes"/>
			<point x="84" y="96"/>
			<point x="131" y="-14"/>
			<point name="n18" x="348" y="-14" type="curve"/>
		</contour>
		<contour>
			<point x="389" y="796" type="curve"/>
			<point x="442" y="796" type="line"/>
			<point x="455" y="823"/>
			<point x="469" y="837"/>
			<point name="n23" x="483" y="837" type="curve" smooth="yes"/>
			<point x="491" y="837"/>
			<point name="hr01" x="556" y="801"/>
			<point name="n26" x="593" y="801" type="curve" smooth="yes"/>
			<point x="642" y="801"/>
			<point x="685" y="849"/>
			<point x="701" y="899" type="curve"/>
			<point x="646" y="899" type="line"/>
			<point x="633" y="872"/>
			<point x="619" y="858"/>
			<point name="n33" x="606" y="858" type="curve" smooth="yes"/>
			<point x="598" y="858"/>
			<point name="hr02" x="533" y="894"/>
			<point name="n36" x="494" y="894" type="curve" smooth="yes"/>
			<point x="446" y="894"/>
			<point x="404" y="845"/>
		</contour>
	</outline>
</glyph>
<glyph name="ubreve" format="2">
	<unicode hex="016D"/>
	<advance width="533"/>
	<outline>
		<contour>
			<point name="n00" x="270" y="48" type="line"/>
			<point x="204" y="48"/>
			<point x="162" y="103"/>
			<point x="177" y="169" type="curve" smooth="yes"/>
			<point name="n04" x="253" y="500" type="line"/>
			<point x="163" y="500" type="line"/>
			<point x="87" y="171" type="line" smooth="yes"/>
			<point x="58" y="46"/>
			<point x="108" y="-13"/>
			<point name="n09" x="236" y="-13" type="curve" smooth="yes"/>
			<point x="305" y="-13"/>
			<point x="362" y="13"/>
			<point x="407" y="64" type="curve"/>
			<point name="n13" x="392" y="0" type="line"/>
			<point x="482" y="0" type="line"/>
			<point x="597" y="500" type="line"/>
			<point x="507" y="500" type="line"/>
			<point x="433" y="178" type="line" smooth="yes"/>
			<point x="416" y="103"/>
			<point name="hr02" x="345" y="48"/>
			<point x="271" y="48" type="curve"/>
		</contour>
		<contour>
			<point name="n21" x="412" y="636" type="curve" smooth="yes"/>
			<point x="375" y="636"/>
			<point x="336" y="660"/>
			<point name="n24" x="336" y="690" type="curve"/>
			<point name="n25" x="284" y="690" type="line"/>
			<point x="277" y="626"/>
			<point x="324" y="573"/>
			<point name="n28" x="397" y="573" type="curve" smooth="yes"/>
			<point x="471" y="573"/>
			<point x="541" y="627"/>
			<point x="565" y="690" type="curve"/>
			<point x="513" y="690" type="line"/>
			<point x="499" y="659"/>
			<point x="450" y="636"/>
		</contour>
	</outline>
</glyph>
<glyph name="Uring" format="2">
	<unicode hex="016E"/>
	<advance width="697"/>
	<outline>
		<contour>
			<point x="344" y="-14" type="line"/>
			<point x="561" y="-14"/>
			<point x="658" y="96"/>
			<point x="710" y="322" type="curve" smooth="yes"/>
			<point name="n04" x="803" y="722" type="line"/>
			<point x="702" y="722" type="line"/>
			<point x="609" y="322" type="line" smooth="yes"/>
			<point x="571" y="157"/>
			<point x="506" y="74"/>
			<point name="n09" x="364" y="74" type="curve" smooth="yes"/>
			<point x="215" y="74"/>
			<point x="198" y="168"/>
			<point x="234" y="322" type="curve" smooth="yes"/>
			<point x="327" y="722" type="line"/>
			<point x="226" y="722" type="line"/>
			<point x="133" y="322" type="line" smooth="yes"/>
			<point x="81" y="96"/>
			<point x="128" y="-14"/>
			<point name="n18" x="345" y="-14" type="curve"/>
		</contour>
		<contour>
			<point name="n19" x="541" y="836" type="curve" smooth="yes"/>
			<point x="502" y="836"/>
			<point x="477" y="867"/>
			<point x="486" y="906" type="curve" smooth="yes"/>
			<point x="495" y="945"/>
			<point x="534" y="976"/>
			<point name="n25" x="573" y="976" type="curve" smooth="yes"/>
			<point x="612" y="976"/>
			<point x="636" y="945"/>
			<point x="627" y="906" type="curve" smooth="yes"/>
			<point x="618" y="867"/>
			<point x="580" y="836"/>
		</contour>
		<contour>
			<point name="n31" x="583" y="1016" type="curve" smooth="yes"/>
			<point x="522" y="1016"/>
			<point x="461" y="967"/>
			<point x="447" y="906" type="curve" smooth="yes"/>
			<point x="433" y="845"/>
			<point x="471" y="796"/>
			<point name="n37" x="532" y="796" type="curve" smooth="yes"/>
			<point x="592" y="796"/>
			<point x="653" y="846"/>
			<point x="667" y="906" type="curve" smooth="yes"/>
			<point x="681" y="967"/>
			<point x="644" y="1016"/>
		</contour>
	</outline>
</glyph>
<glyph name="Uhungarumlaut" format="2">
	<unicode hex="0170"/>
	<advance width="706"/>
	<outline>
		<contour>
			<point x="345" y="-14" type="line"/>
			<point x="562" y="-14"/>
			<point x="659" y="96"/>
			<point x="711" y="322" type="curve" smooth="yes"/>
			<point name="n04" x="804" y="722" type="line"/>
			<point x="703" y="722" type="line"/>
			<point x="610" y="322" type="line" smooth="yes"/>
			<point x="572" y="157"/>
			<point x="507" y="74"/>
			<point name="n09" x="365" y="74" type="curve" smooth="yes"/>
			<point x="216" y="74"/>
			<point x="199" y="168"/>
			<point x="235" y="322" type="curve" smooth="yes"/>
			<point x="328" y="722" type="line"/>
			<point x="227" y="722" type="line"/>
			<point x="134" y="322" type="line" smooth="yes"/>
			<point x="82" y="96"/>
			<point x="129" y="-14"/>
			<point name="n18" x="346" y="-14" type="curve"/>
		</contour>
		<contour>
			<point x="636" y="967" type="line"/>
			<point x="546" y="967" type="line"/>
			<point x="437" y="796" type="line"/>
			<point x="487" y="796" type="line"/>
		</contour>
		<contour>
			<point x="776" y="967" type="line"/>
			<point x="686" y="967" type="line"/>
			<point x="577" y="796" type="line"/>
			<point x="627" y="796" type="line"/>
		</contour>
	</outline>
</glyph>
<glyph name="uhungarumlaut" format="2">
	<unicode hex="0171"/>
	<advance width="533"/>
	<outline>
		<contour>
			<point name="n00" x="271" y="48" type="line"/>
			<point x="205" y="48"/>
			<point x="163" y="103"/>
			<point x="178" y="169" type="curve" smooth="yes"/>
			<point name="n04" x="254" y="500" type="line"/>
			<point x="164" y="500" type="line"/>
			<point x="88" y="171" type="line" smooth="yes"/>
			<point x="59" y="46"/>
			<point x="109" y="-13"/>
			<point name="n09" x="237" y="-13" type="curve" smooth="yes"/>
			<point x="306" y="-13"/>
			<point x="363" y="13"/>
			<point x="408" y="64" type="curve"/>
			<point name="n13" x="393" y="0" type="line"/>
			<point x="483" y="0" type="line"/>
			<point x="598" y="500" type="line"/>
			<point x="508" y="500" type="line"/>
			<point x="434" y="178" type="line" smooth="yes"/>
			<point x="417" y="103"/>
			<point name="hr02" x="346" y="48"/>
			<point x="272" y="48" type="curve"/>
		</contour>
		<contour>
			<point x="503" y="744" type="line"/>
			<point x="413" y="744" type="line"/>
			<point x="303" y="573" type="line"/>
			<point x="353" y="573" type="line"/>
		</contour>
		<contour>
			<point x="643" y="744" type="line"/>
			<point x="553" y="744" type="line"/>
			<point x="443" y="573" type="line"/>
			<point x="493" y="573" type="line"/>
		</contour>
	</outline>
</glyph>
<glyph name="wcircumflex" format="2">
	<unicode hex="0175"/>
	<advance width="814"/>
	<outline>
		<contour>
			<point name="n00" x="914" y="500" type="line"/>
			<point x="818" y="500" type="line"/>
			<point x="610" y="110" type="line"/>
			<point x="582" y="500" type="line"/>
			<point x="462" y="500" type="line"/>
			<point x="254" y="110" type="line"/>
			<point name="n06" x="226" y="500" type="line"/>
			<point name="n07" x="130" y="500" type="line"/>
			<point name="n08" x="184" y="0" type="line"/>
			<point x="274" y="0" type="line"/>
			<point x="503" y="415" type="line"/>
			<point x="540" y="0" type="line"/>
			<point x="630" y="0" type="line"/>
		</contour>
		<contour>
			<point x="684" y="573" type="line"/>
			<point x="634" y="743" type="line"/>
			<point x="524" y="743" type="line"/>
			<point x="394" y="573" type="line"/>
			<point x="454" y="573" type="line"/>
			<point x="565" y="683" type="line"/>
			<point x="624" y="573" type="line"/>
		</contour>
	</outline>
</glyph>
<glyph name="uni01C0" format="2">
	<unicode hex="01C0"/>
	<advance width="344"/>
	<outline>
		<contour>
			<point x="144.667" y="-258" type="line"/>
			<point name="n01" x="388.667" y="796" type="line"/>
			<point x="324.333" y="796" type="line"/>
			<point name="n03" x="80.3333" y="-258" type="line"/>
		</contour>
	</outline>
</glyph>
<glyph name="uni01C1" format="2">
	<unicode hex="01C1"/>
	<advance width="688"/>
	<outline>
		<contour>
			<point x="374" y="-258" type="line"/>
			<point name="n01" x="618" y="796" type="line"/>
			<point x="553.667" y="796" type="line"/>
			<point name="n03" x="309.667" y="-258" type="line"/>
		</contour>
		<contour>
			<point x="259.333" y="-258" type="line"/>
			<point name="n05" x="503.333" y="796" type="line"/>
			<point x="439" y="796" type="line"/>
			<point name="n07" x="195" y="-258" type="line"/>
		</contour>
	</outline>
</glyph>
<glyph name="uni01C2" format="2">
	<unicode hex="01C2"/>
	<advance width="405"/>
	<outline>
		<contour>
			<point name="n00" x="448" y="272" type="line"/>
			<point name="n01" x="460" y="323" type="line"/>
			<point x="303" y="323" type="line"/>
			<point name="n03" x="323" y="413" type="line"/>
			<point x="480" y="413" type="line"/>
			<point x="492" y="464" type="line"/>
			<point name="n06" x="335" y="464" type="line"/>
			<point name="n07" x="398" y="736" type="line"/>
			<point x="347" y="736" type="line"/>
			<point x="284" y="464" type="line"/>
			<point x="126" y="464" type="line"/>
			<point x="114" y="413" type="line"/>
			<point x="272" y="413" type="line"/>
			<point x="252" y="323" type="line"/>
			<point x="94" y="323" type="line"/>
			<point x="82" y="272" type="line"/>
			<point x="240" y="272" type="line"/>
			<point name="n17" x="177" y="0" type="line"/>
			<point x="228" y="0" type="line"/>
			<point x="291" y="272" type="line"/>
		</contour>
	</outline>
</glyph>
<glyph name="uni01C6" format="2">
	<unicode hex="01C6"/>
	<advance width="1028"/>
	<outline>
		<contour>
			<point x="189" y="248" type="curve" smooth="yes"/>
			<point x="212" y="346"/>
			<point x="271" y="449"/>
			<point name="n03" x="368" y="449" type="curve" smooth="yes"/>
			<point x="467" y="449"/>
			<point x="508" y="376"/>
			<point x="477" y="242" type="curve" smooth="yes"/>
			<point x="451" y="129"/>
			<point x="386" y="55"/>
			<point name="n09" x="289" y="55" type="curve" smooth="yes"/>
			<point x="197" y="55"/>
			<point x="167" y="152"/>
		</contour>
		<contour>
			<point x="511" y="0" type="line"/>
			<point name="n13" x="678" y="722" type="line"/>
			<point x="588" y="722" type="line"/>
			<point x="521" y="435" type="line"/>
			<point x="498" y="479"/>
			<point x="459" y="513"/>
			<point name="n18" x="381" y="513" type="curve" smooth="yes"/>
			<point x="265" y="513"/>
			<point x="137" y="421"/>
			<point x="97" y="247" type="curve" smooth="yes"/>
			<point x="64" y="103"/>
			<point x="122" y="-13"/>
			<point name="n24" x="269" y="-13" type="curve" smooth="yes"/>
			<point x="329" y="-13"/>
			<point x="401" y="28"/>
			<point x="434" y="57" type="curve"/>
			<point x="421" y="0" type="line"/>
		</contour>
		<contour>
			<point name="n29" x="979" y="0" type="line"/>
			<point name="n30" x="995" y="70" type="line"/>
			<point x="727" y="70" type="line"/>
			<point x="1075" y="417" type="line"/>
			<point x="1094" y="500" type="line"/>
			<point name="n34" x="746" y="500" type="line"/>
			<point name="n35" x="730" y="430" type="line"/>
			<point x="976" y="430" type="line"/>
			<point x="630" y="83" type="line"/>
			<point x="611" y="0" type="line"/>
		</contour>
		<contour>
			<point x="1103" y="770" type="line"/>
			<point x="1043" y="770" type="line"/>
			<point x="932" y="660" type="line"/>
			<point x="873" y="770" type="line"/>
			<point x="813" y="770" type="line"/>
			<point x="864" y="600" type="line"/>
			<point x="974" y="600" type="line"/>
		</contour>
	</outline>
</glyph>
<glyph name="uni01E0" format="2">
	<unicode hex="01E0"/>
	<advance width="750"/>
	<outline>
		<contour>
			<point name="n00" x="573" y="278" type="line"/>
			<point x="300" y="278" type="line"/>
			<point x="512" y="611" type="line"/>
		</contour>
		<contour>
			<point name="n03" x="735" y="0" type="line"/>
			<point name="n04" x="595" y="722" type="line"/>
			<point x="485" y="722" type="line"/>
			<point x="15" y="0" type="line"/>
			<point x="118" y="0" type="line"/>
			<point x="242" y="193" type="line"/>
			<point name="n09" x="596" y="193" type="line"/>
			<point x="629" y="0" type="line"/>
		</contour>
		<contour>
			<point name="n11" x="602" y="796" type="line"/>
			<point name="n12" x="625" y="896" type="line"/>
			<point x="535" y="896" type="line"/>
			<point x="512" y="796" type="line"/>
		</contour>
		<contour>
			<point name="n15" x="725" y="956" type="line"/>
			<point name="n16" x="741" y="1025" type="line"/>
			<point x="479" y="1025" type="line"/>
			<point x="463" y="956" type="line"/>
		</contour>
	</outline>
</glyph>
<glyph name="uni01E3" format="2">
	<unicode hex="01E3"/>
	<advance width="913"/>
	<outline>
		<contour>
			<point x="840" y="306" type="curve"/>
			<point name="n01" x="578" y="306" type="line"/>
			<point x="605" y="389"/>
			<point x="659" y="449"/>
			<point name="n04" x="744" y="449" type="curve" smooth="yes"/>
			<point x="835" y="449"/>
			<point x="853" y="394"/>
		</contour>
		<contour>
			<point x="238" y="-13" type="line"/>
			<point x="355" y="-13"/>
			<point x="439" y="33"/>
			<point x="489" y="126" type="curve"/>
			<point x="487" y="38"/>
			<point x="550" y="-13"/>
			<point name="n13" x="656" y="-13" type="curve" smooth="yes"/>
			<point x="768" y="-13"/>
			<point x="854" y="55"/>
			<point x="891" y="157" type="curve"/>
			<point x="801" y="157" type="line"/>
			<point x="771" y="90"/>
			<point x="721" y="56"/>
			<point name="n20" x="652" y="56" type="curve" smooth="yes"/>
			<point x="556" y="56"/>
			<point x="536" y="143"/>
			<point name="n23" x="558" y="238" type="curve"/>
			<point x="917" y="238" type="line"/>
			<point x="928" y="280" type="line"/>
			<point x="955" y="398"/>
			<point x="913" y="513"/>
			<point name="n28" x="772" y="513" type="curve" smooth="yes"/>
			<point x="661" y="513"/>
			<point x="605" y="473"/>
			<point x="555" y="390" type="curve"/>
			<point x="539" y="489"/>
			<point x="487" y="514"/>
			<point x="405" y="514" type="curve" smooth="yes"/>
			<point x="277" y="514"/>
			<point x="188" y="481"/>
			<point name="n37" x="164" y="376" type="curve"/>
			<point name="n38" x="257" y="376" type="line"/>
			<point x="268" y="424"/>
			<point x="308" y="448"/>
			<point x="379" y="448" type="curve" smooth="yes"/>
			<point x="385" y="448" type="line"/>
			<point x="468" y="447"/>
			<point x="500" y="400"/>
			<point name="n45" x="481" y="307" type="curve"/>
			<point x="476" y="307"/>
			<point x="415" y="313"/>
			<point name="n48" x="379" y="313" type="curve" smooth="yes"/>
			<point x="364" y="313" type="line"/>
			<point x="202" y="310"/>
			<point x="108" y="251"/>
			<point x="81" y="136" type="curve" smooth="yes"/>
			<point x="58" y="38"/>
			<point x="133" y="-12"/>
			<point x="237" y="-12" type="curve"/>
		</contour>
		<contour>
			<point name="n56" x="727" y="573" type="line"/>
			<point name="n57" x="743" y="642" type="line"/>
			<point x="481" y="642" type="line"/>
			<point x="465" y="573" type="line"/>
		</contour>
		<contour>
			<point x="471" y="242" type="curve"/>
			<point x="467" y="225" type="line" smooth="yes"/>
			<point x="446" y="135"/>
			<point x="393" y="61"/>
			<point x="270" y="59" type="curve"/>
			<point x="267" y="59" type="line" smooth="yes"/>
			<point x="207" y="59"/>
			<point x="160" y="88"/>
			<point x="174" y="147" type="curve" smooth="yes"/>
			<point x="193" y="229"/>
			<point x="316" y="245"/>
			<point name="n71" x="395" y="245" type="curve" smooth="yes"/>
			<point x="410" y="245" type="line" smooth="yes"/>
			<point x="431" y="245"/>
			<point x="451" y="244"/>
		</contour>
	</outline>
</glyph>
<glyph name="gcaron" format="2">
	<unicode hex="01E7"/>
	<advance width="560"/>
	<outline>
		<contour>
			<point x="191" y="266" type="curve" smooth="yes"/>
			<point x="219" y="387"/>
			<point x="277" y="448"/>
			<point name="n03" x="368" y="448" type="curve" smooth="yes"/>
			<point x="475" y="448"/>
			<point x="505" y="382"/>
			<point x="478" y="264" type="curve" smooth="yes"/>
			<point x="452" y="153"/>
			<point x="391" y="77"/>
			<point name="n09" x="288" y="77" type="curve" smooth="yes"/>
			<point x="189" y="77"/>
			<point x="167" y="162"/>
		</contour>
		<contour>
			<point x="102" y="267" type="line"/>
			<point x="67" y="114"/>
			<point x="108" y="14"/>
			<point name="n15" x="264" y="14" type="curve" smooth="yes"/>
			<point x="343" y="14"/>
			<point x="396" y="50"/>
			<point x="441" y="93" type="curve"/>
			<point x="401" y="-79"/>
			<point x="346" y="-136"/>
			<point name="n21" x="251" y="-136" type="curve" smooth="yes"/>
			<point x="187" y="-136"/>
			<point x="134" y="-104"/>
			<point name="n24" x="149" y="-40" type="curve"/>
			<point name="n25" x="55" y="-40" type="line"/>
			<point x="35" y="-127"/>
			<point x="93" y="-198"/>
			<point name="n28" x="218" y="-198" type="curve" smooth="yes"/>
			<point x="374" y="-198"/>
			<point x="483" y="-105"/>
			<point x="514" y="29" type="curve" smooth="yes"/>
			<point name="n32" x="622" y="499" type="line"/>
			<point name="hr01" x="532" y="499" type="line"/>
			<point x="520" y="444" type="line"/>
			<point x="503" y="482"/>
			<point x="447" y="512"/>
			<point name="n37" x="378" y="512" type="curve" smooth="yes"/>
			<point x="242" y="512"/>
			<point x="129" y="399"/>
			<point x="98" y="266" type="curve"/>
		</contour>
		<contour>
			<point x="580" y="743" type="line"/>
			<point x="520" y="743" type="line"/>
			<point x="409" y="633" type="line"/>
			<point x="350" y="743" type="line"/>
			<point x="290" y="743" type="line"/>
			<point x="340" y="573" type="line"/>
			<point x="450" y="573" type="line"/>
		</contour>
	</outline>
</glyph>
<glyph name="uni01F1" format="2">
	<unicode hex="01F1"/>
	<advance width="1316"/>
	<outline>
		<contour>
			<point x="307" y="87" type="curve" smooth="yes"/>
			<point x="181" y="87" type="line"/>
			<point x="308" y="635" type="line"/>
			<point name="n03" x="434" y="635" type="line" smooth="yes"/>
			<point x="598" y="635"/>
			<point x="664" y="530"/>
			<point x="625" y="362" type="curve" smooth="yes"/>
			<point x="587" y="196"/>
			<point x="470" y="87"/>
		</contour>
		<contour>
			<point x="724" y="362" type="curve" smooth="yes"/>
			<point x="777" y="593"/>
			<point x="686" y="722"/>
			<point name="n12" x="452" y="722" type="curve" smooth="yes"/>
			<point x="227" y="722" type="line"/>
			<point x="60" y="0" type="line"/>
			<point x="285" y="0" type="line" smooth="yes"/>
			<point x="514" y="0"/>
			<point x="671" y="134"/>
		</contour>
		<contour>
			<point name="n18" x="1266" y="0" type="line"/>
			<point name="n19" x="1286" y="87" type="line"/>
			<point x="870" y="87" type="line"/>
			<point x="1397" y="612" type="line"/>
			<point x="1423" y="722" type="line"/>
			<point x="927" y="722" type="line"/>
			<point x="907" y="635" type="line"/>
			<point x="1293" y="635" type="line"/>
			<point x="765" y="110" type="line"/>
			<point x="740" y="0" type="line"/>
		</contour>
	</outline>
</glyph>
<glyph name="uni01F9" format="2">
	<unicode hex="01F9"/>
	<advance width="534"/>
	<outline>
		<contour>
			<point name="n00" x="378" y="453" type="line"/>
			<point x="445" y="453"/>
			<point x="487" y="398"/>
			<point x="472" y="331" type="curve" smooth="yes"/>
			<point name="n04" x="396" y="0" type="line"/>
			<point x="485" y="0" type="line"/>
			<point x="561" y="329" type="line" smooth="yes"/>
			<point x="589" y="452"/>
			<point x="539" y="513"/>
			<point name="n09" x="411" y="513" type="curve" smooth="yes"/>
			<point x="311" y="513"/>
			<point x="287" y="473"/>
			<point x="241" y="436" type="curve"/>
			<point name="n13" x="255" y="500" type="line"/>
			<point x="165" y="500" type="line"/>
			<point x="50" y="0" type="line"/>
			<point x="140" y="0" type="line"/>
			<point x="215" y="323" type="line" smooth="yes"/>
			<point x="232" y="398"/>
			<point name="hr02" x="303" y="453"/>
			<point x="377" y="453" type="curve"/>
		</contour>
		<contour>
			<point x="430" y="573" type="line"/>
			<point x="370" y="744" type="line"/>
			<point x="269" y="744" type="line"/>
			<point x="369" y="573" type="line"/>
		</contour>
	</outline>
</glyph>
<glyph name="oslashacute" format="2">
	<unicode hex="01FF"/>
	<advance width="591"/>
	<outline>
		<contour>
			<point x="504" y="248" type="curve" smooth="yes"/>
			<point x="480" y="145"/>
			<point x="406" y="49"/>
			<point name="n03" x="306" y="49" type="curve" smooth="yes"/>
			<point x="273" y="49"/>
			<point x="245" y="59"/>
			<point x="224" y="80" type="curve"/>
			<point x="504" y="371" type="line"/>
			<point x="514" y="332"/>
			<point x="514" y="291"/>
		</contour>
		<contour>
			<point x="472" y="421" type="curve"/>
			<point x="198" y="135" type="line"/>
			<point x="190" y="169"/>
			<point x="191" y="207"/>
			<point x="200" y="248" type="curve" smooth="yes"/>
			<point x="224" y="351"/>
			<point x="298" y="447"/>
			<point name="n17" x="398" y="447" type="curve" smooth="yes"/>
			<point x="430" y="447"/>
			<point x="455" y="438"/>
		</contour>
		<contour>
			<point x="678" y="554" type="line"/>
			<point x="635" y="591" type="line"/>
			<point x="532" y="484" type="line"/>
			<point x="500" y="503"/>
			<point x="461" y="513"/>
			<point name="n25" x="414" y="513" type="curve" smooth="yes"/>
			<point x="272" y="513"/>
			<point x="147" y="420"/>
			<point x="108" y="250" type="curve" smooth="yes"/>
			<point x="89" y="166"/>
			<point x="94" y="103"/>
			<point x="127" y="62" type="curve"/>
			<point x="21" y="-44" type="line"/>
			<point x="63" y="-81" type="line"/>
			<point x="165" y="22" type="line"/>
			<point x="199" y="-1"/>
			<point x="241" y="-13"/>
			<point name="n37" x="293" y="-13" type="curve" smooth="yes"/>
			<point x="434" y="-13"/>
			<point x="559" y="78"/>
			<point x="598" y="249" type="curve" smooth="yes"/>
			<point x="619" y="338"/>
			<point x="611" y="403"/>
			<point x="572" y="444" type="curve"/>
		</contour>
		<contour>
			<point x="651" y="822" type="line"/>
			<point x="550" y="822" type="line"/>
			<point x="410" y="651" type="line"/>
			<point x="471" y="651" type="line"/>
		</contour>
	</outline>
</glyph>
<glyph name="uni0200" format="2">
	<unicode hex="0200"/>
	<advance width="750"/>
	<outline>
		<contour>
			<point name="n00" x="573" y="278" type="line"/>
			<point x="300" y="278" type="line"/>
			<point x="512" y="611" type="line"/>
		</contour>
		<contour>
			<point name="n03" x="735" y="0" type="line"/>
			<point name="n04" x="595" y="722" type="line"/>
			<point x="485" y="722" type="line"/>
			<point x="15" y="0" type="line"/>
			<point x="118" y="0" type="line"/>
			<point x="242" y="193" type="line"/>
			<point name="n09" x="596" y="193" type="line"/>
			<point x="629" y="0" type="line"/>
		</contour>
		<contour>
			<point x="512" y="796" type="line"/>
			<point x="481" y="967" type="line"/>
			<point x="391" y="967" type="line"/>
			<point x="462" y="796" type="line"/>
		</contour>
		<contour>
			<point x="652" y="796" type="line"/>
			<point x="621" y="967" type="line"/>
			<point x="531" y="967" type="line"/>
			<point x="602" y="796" type="line"/>
		</contour>
	</outline>
</glyph>
<glyph name="uni0202" format="2">
	<unicode hex="0202"/>
	<advance width="750"/>
	<outline>
		<contour>
			<point name="n00" x="575" y="278" type="line"/>
			<point x="302" y="278" type="line"/>
			<point x="514" y="611" type="line"/>
		</contour>
		<contour>
			<point name="n03" x="737" y="0" type="line"/>
			<point name="n04" x="597" y="722" type="line"/>
			<point x="487" y="722" type="line"/>
			<point x="17" y="0" type="line"/>
			<point x="120" y="0" type="line"/>
			<point x="244" y="193" type="line"/>
			<point name="n09" x="598" y="193" type="line"/>
			<point x="631" y="0" type="line"/>
		</contour>
		<contour>
			<point name="n11" x="698" y="796" type="line"/>
			<point x="702" y="861"/>
			<point x="653" y="913"/>
			<point name="n14" x="584" y="913" type="curve" smooth="yes"/>
			<point x="513" y="913"/>
			<point x="439" y="862"/>
			<point x="416" y="796" type="curve"/>
			<point x="468" y="796" type="line"/>
			<point x="481" y="827"/>
			<point x="534" y="849"/>
			<point name="n21" x="570" y="849" type="curve" smooth="yes"/>
			<point x="606" y="849"/>
			<point x="649" y="827"/>
			<point name="n24" x="648" y="796" type="curve"/>
		</contour>
	</outline>
</glyph>
<glyph name="uni020F" format="2">
	<unicode hex="020F"/>
	<advance width="580"/>
	<outline>
		<contour>
			<point x="503" y="248" type="curve" smooth="yes"/>
			<point x="480" y="148"/>
			<point x="405" y="51"/>
			<point name="n03" x="302" y="51" type="curve" smooth="yes"/>
			<point x="199" y="51"/>
			<point x="168" y="148"/>
			<point x="191" y="248" type="curve" smooth="yes"/>
			<point x="214" y="349"/>
			<point x="290" y="447"/>
			<point name="n09" x="393" y="447" type="curve" smooth="yes"/>
			<point x="496" y="447"/>
			<point x="526" y="349"/>
		</contour>
		<contour>
			<point x="598" y="250" type="line"/>
			<point x="635" y="410"/>
			<point x="564" y="512"/>
			<point name="n15" x="408" y="512" type="curve" smooth="yes"/>
			<point x="253" y="512"/>
			<point x="134" y="408"/>
			<point x="97" y="249" type="curve" smooth="yes"/>
			<point x="60" y="90"/>
			<point x="132" y="-14"/>
			<point name="n21" x="287" y="-14" type="curve" smooth="yes"/>
			<point x="443" y="-14"/>
			<point x="560" y="88"/>
			<point x="597" y="248" type="curve"/>
		</contour>
		<contour>
			<point name="n25" x="558" y="573" type="line"/>
			<point x="562" y="638"/>
			<point x="513" y="690"/>
			<point name="n28" x="444" y="690" type="curve" smooth="yes"/>
			<point x="373" y="690"/>
			<point x="299" y="639"/>
			<point x="276" y="573" type="curve"/>
			<point x="328" y="573" type="line"/>
			<point x="341" y="604"/>
			<point x="395" y="626"/>
			<point name="n35" x="431" y="626" type="curve" smooth="yes"/>
			<point x="467" y="626"/>
			<point x="509" y="604"/>
			<point name="n38" x="508" y="573" type="curve"/>
		</contour>
	</outline>
</glyph>
<glyph name="uni0211" format="2">
	<unicode hex="0211"/>
	<advance width="373"/>
	<outline>
		<contour>
			<point x="419" y="420" type="line"/>
			<point name="n01" x="437" y="500" type="line"/>
			<point x="317" y="500"/>
			<point x="279" y="481"/>
			<point x="240" y="432" type="curve"/>
			<point x="255" y="500" type="line"/>
			<point x="165" y="500" type="line"/>
			<point name="n07" x="50" y="0" type="line"/>
			<point x="140" y="0" type="line"/>
			<point x="205" y="280" type="line" smooth="yes"/>
			<point x="226" y="373"/>
			<point x="298" y="420"/>
			<point x="420" y="420" type="curve"/>
		</contour>
		<contour>
			<point x="273" y="573" type="line"/>
			<point x="243" y="744" type="line"/>
			<point x="153" y="744" type="line"/>
			<point x="223" y="573" type="line"/>
		</contour>
		<contour>
			<point x="413" y="573" type="line"/>
			<point x="383" y="744" type="line"/>
			<point x="293" y="744" type="line"/>
			<point x="363" y="573" type="line"/>
		</contour>
	</outline>
</glyph>
<glyph name="uni0213" format="2">
	<unicode hex="0213"/>
	<advance width="343"/>
	<outline>
		<contour>
			<point x="421" y="420" type="line"/>
			<point name="n01" x="439" y="500" type="line"/>
			<point x="319" y="500"/>
			<point x="281" y="481"/>
			<point x="242" y="432" type="curve"/>
			<point x="257" y="500" type="line"/>
			<point x="167" y="500" type="line"/>
			<point name="n07" x="52" y="0" type="line"/>
			<point x="142" y="0" type="line"/>
			<point x="207" y="280" type="line" smooth="yes"/>
			<point x="228" y="373"/>
			<point x="300" y="420"/>
			<point x="422" y="420" type="curve"/>
		</contour>
		<contour>
			<point name="n13" x="459" y="573" type="line"/>
			<point x="463" y="638"/>
			<point x="414" y="690"/>
			<point name="n16" x="345" y="690" type="curve" smooth="yes"/>
			<point x="274" y="690"/>
			<point x="200" y="639"/>
			<point x="177" y="573" type="curve"/>
			<point x="229" y="573" type="line"/>
			<point x="242" y="604"/>
			<point x="296" y="626"/>
			<point name="n23" x="332" y="626" type="curve" smooth="yes"/>
			<point x="368" y="626"/>
			<point x="410" y="604"/>
			<point name="n26" x="409" y="573" type="curve"/>
		</contour>
	</outline>
</glyph>
<glyph name="uni021A" format="2">
	<unicode hex="021A"/>
	<advance width="622"/>
	<outline>
		<contour>
			<point name="n00" x="739" y="635" type="line"/>
			<point name="n01" x="759" y="722" type="line"/>
			<point x="186" y="722" type="line"/>
			<point x="166" y="635" type="line"/>
			<point x="402" y="635" type="line"/>
			<point name="n05" x="255" y="0" type="line"/>
			<point x="356" y="0" type="line"/>
			<point x="503" y="635" type="line"/>
		</contour>
		<contour>
			<point x="382" y="-60" type="line"/>
			<point x="262" y="-60" type="line"/>
			<point x="144" y="-310" type="line"/>
			<point x="214" y="-310" type="line"/>
		</contour>
	</outline>
</glyph>
<glyph name="Hcaron" format="2">
	<unicode hex="021E"/>
	<advance width="669"/>
	<outline>
		<contour>
			<point name="n00" x="608" y="0" type="line"/>
			<point name="n01" x="775" y="722" type="line"/>
			<point x="674" y="722" type="line"/>
			<point x="602" y="413" type="line"/>
			<point name="n04" x="255" y="413" type="line"/>
			<point x="327" y="722" type="line"/>
			<point x="226" y="722" type="line"/>
			<point x="59" y="0" type="line"/>
			<point x="160" y="0" type="line"/>
			<point name="n09" x="235" y="326" type="line"/>
			<point x="582" y="326" type="line"/>
			<point x="507" y="0" type="line"/>
		</contour>
		<contour>
			<point x="702" y="966" type="line"/>
			<point x="642" y="966" type="line"/>
			<point x="532" y="856" type="line"/>
			<point x="472" y="966" type="line"/>
			<point x="412" y="966" type="line"/>
			<point x="463" y="796" type="line"/>
			<point x="573" y="796" type="line"/>
		</contour>
	</outline>
</glyph>
<glyph name="uni0229" format="2">
	<unicode hex="0229"/>
	<advance width="537"/>
	<outline>
		<contour>
			<point x="472" y="302" type="curve"/>
			<point name="n01" x="208" y="302" type="line"/>
			<point x="233" y="399"/>
			<point x="300" y="447"/>
			<point name="n04" x="372" y="447" type="curve" smooth="yes"/>
			<point x="480" y="447"/>
			<point x="486" y="362"/>
		</contour>
		<contour>
			<point x="401" y="-163" type="line"/>
			<point x="418" y="-91"/>
			<point x="376" y="-55"/>
			<point name="n10" x="276" y="-55" type="curve"/>
			<point x="286" y="-14" type="line"/>
			<point x="403" y="-9"/>
			<point x="491" y="59"/>
			<point name="n14" x="533" y="160" type="curve"/>
			<point name="n15" x="437" y="160" type="line"/>
			<point x="417" y="98"/>
			<point x="363" y="51"/>
			<point name="n18" x="295" y="51" type="curve" smooth="yes"/>
			<point x="199" y="51"/>
			<point x="167" y="134"/>
			<point name="n21" x="191" y="236" type="curve"/>
			<point x="549" y="236" type="line"/>
			<point x="560" y="283" type="line" smooth="yes"/>
			<point x="592" y="423"/>
			<point x="533" y="512"/>
			<point name="n26" x="388" y="512" type="curve" smooth="yes"/>
			<point x="235" y="512"/>
			<point x="135" y="405"/>
			<point x="99" y="251" type="curve" smooth="yes"/>
			<point x="66" y="110"/>
			<point x="102" y="-1"/>
			<point name="n32" x="245" y="-13" type="curve"/>
			<point x="224" y="-105" type="line"/>
			<point name="n34" x="258" y="-105" type="line" smooth="yes"/>
			<point x="295" y="-105"/>
			<point x="340" y="-124"/>
			<point x="331" y="-164" type="curve" smooth="yes"/>
			<point x="325" y="-189"/>
			<point x="297" y="-201"/>
			<point x="250" y="-201" type="curve" smooth="yes"/>
			<point name="n41" x="244" y="-201" type="line" smooth="yes"/>
			<point x="214" y="-201"/>
			<point x="181" y="-197"/>
			<point x="147" y="-189" type="curve"/>
			<point x="136" y="-239" type="line"/>
			<point x="174" y="-245"/>
			<point x="205" y="-248"/>
			<point name="n48" x="230" y="-248" type="curve" smooth="yes"/>
			<point x="294" y="-248"/>
			<point x="388" y="-222"/>
			<point x="402" y="-163" type="curve"/>
		</contour>
	</outline>
</glyph>
<glyph name="uni022B" format="2">
	<unicode hex="022B"/>
	<advance width="591"/>
	<outline>
		<contour>
			<point x="503" y="248" type="curve" smooth="yes"/>
			<point x="480" y="148"/>
			<point x="405" y="51"/>
			<point name="n03" x="302" y="51" type="curve" smooth="yes"/>
			<point x="199" y="51"/>
			<point x="168" y="148"/>
			<point x="191" y="248" type="curve" smooth="yes"/>
			<point x="214" y="349"/>
			<point x="290" y="447"/>
			<point name="n09" x="393" y="447" type="curve" smooth="yes"/>
			<point x="496" y="447"/>
			<point x="526" y="349"/>
		</contour>
		<contour>
			<point x="598" y="250" type="line"/>
			<point x="635" y="410"/>
			<point x="564" y="512"/>
			<point name="n15" x="408" y="512" type="curve" smooth="yes"/>
			<point x="253" y="512"/>
			<point x="134" y="408"/>
			<point x="97" y="249" type="curve" smooth="yes"/>
			<point x="60" y="90"/>
			<point x="132" y="-14"/>
			<point name="n21" x="287" y="-14" type="curve" smooth="yes"/>
			<point x="443" y="-14"/>
			<point x="560" y="88"/>
			<point x="597" y="248" type="curve"/>
		</contour>
		<contour>
			<point name="n25" x="386" y="630" type="line"/>
			<point name="n26" x="408" y="722" type="line"/>
			<point x="318" y="722" type="line"/>
			<point x="296" y="630" type="line"/>
		</contour>
		<contour>
			<point x="586" y="630" type="line"/>
			<point x="608" y="722" type="line"/>
			<point x="518" y="722" type="line"/>
			<point x="496" y="630" type="line"/>
		</contour>
		<contour>
			<point name="n33" x="608" y="782" type="line"/>
			<point name="n34" x="623" y="851" type="line"/>
			<point x="361" y="851" type="line"/>
			<point x="346" y="782" type="line"/>
		</contour>
	</outline>
</glyph>
<glyph name="uni022C" format="2">
	<unicode hex="022C"/>
	<advance width="773"/>
	<outline>
		<contour>
			<point x="695" y="374" type="line"/>
			<point x="656" y="206"/>
			<point x="571" y="73"/>
			<point name="n03" x="402" y="73" type="curve" smooth="yes"/>
			<point x="238" y="73"/>
			<point x="208" y="204"/>
			<point x="247" y="375" type="curve" smooth="yes"/>
			<point x="289" y="558"/>
			<point x="385" y="649"/>
			<point name="n09" x="535" y="649" type="curve" smooth="yes"/>
			<point x="701" y="649"/>
			<point x="733" y="540"/>
			<point x="695" y="375" type="curve"/>
		</contour>
		<contour>
			<point x="800" y="375" type="line"/>
			<point x="849" y="588"/>
			<point x="772" y="735"/>
			<point name="n16" x="557" y="735" type="curve" smooth="yes"/>
			<point x="341" y="735"/>
			<point x="194" y="588"/>
			<point x="145" y="375" type="curve" smooth="yes"/>
			<point x="101" y="184"/>
			<point x="147" y="-14"/>
			<point name="n22" x="382" y="-14" type="curve" smooth="yes"/>
			<point x="585" y="-14"/>
			<point x="745" y="143"/>
			<point x="798" y="374" type="curve"/>
		</contour>
		<contour>
			<point x="436" y="840" type="curve"/>
			<point x="491" y="840" type="line"/>
			<point x="504" y="867"/>
			<point x="518" y="881"/>
			<point name="n30" x="532" y="881" type="curve" smooth="yes"/>
			<point x="540" y="881"/>
			<point name="hr01" x="602" y="845"/>
			<point name="n33" x="642" y="845" type="curve" smooth="yes"/>
			<point x="692" y="845"/>
			<point x="733" y="891"/>
			<point x="749" y="943" type="curve"/>
			<point x="694" y="943" type="line"/>
			<point x="681" y="916"/>
			<point x="667" y="902"/>
			<point name="n40" x="654" y="902" type="curve" smooth="yes"/>
			<point x="646" y="902"/>
			<point name="hr02" x="582" y="938"/>
			<point name="n43" x="543" y="938" type="curve" smooth="yes"/>
			<point x="494" y="938"/>
			<point x="452" y="890"/>
		</contour>
		<contour>
			<point name="n46" x="737" y="1002" type="line"/>
			<point name="n47" x="753" y="1071" type="line"/>
			<point x="491" y="1071" type="line"/>
			<point x="475" y="1002" type="line"/>
		</contour>
	</outline>
</glyph>
<glyph name="uni0233" format="2">
	<unicode hex="0233"/>
	<advance width="535"/>
	<outline>
		<contour>
			<point x="194" y="-56" type="line" smooth="yes"/>
			<point x="137" y="-152"/>
			<point x="109" y="-200"/>
			<point x="109" y="-200" type="curve"/>
			<point x="201" y="-200" type="line"/>
			<point x="344" y="35"/>
			<point x="490" y="267"/>
			<point name="n07" x="635" y="501" type="curve"/>
			<point x="538" y="501" type="line"/>
			<point x="305" y="124" type="line"/>
			<point x="235" y="501" type="line"/>
			<point x="130" y="501" type="line"/>
			<point x="228" y="1" type="line"/>
		</contour>
		<contour>
			<point name="n13" x="530" y="573" type="line"/>
			<point name="n14" x="546" y="642" type="line"/>
			<point x="284" y="642" type="line"/>
			<point x="268" y="573" type="line"/>
		</contour>
	</outline>
</glyph>
<glyph name="j.dotless" format="2">
  <advance width="312"/>
  <unicode hex="0237"/>
  <anchor x="316.667" y="580" name="top"/>
  <outline>
    <contour>
      <point x="22.3333" y="-208" type="line"/>
      <point x="52.3333" y="-208" type="line" smooth="yes"/>
      <point x="143" y="-208"/>
      <point x="208.333" y="-182.333"/>
      <point x="232.333" y="-78" type="curve" smooth="yes"/>
      <point x="365" y="500" type="line"/>
      <point x="245" y="500" type="line"/>
      <point x="118.667" y="-48" type="line" smooth="yes"/>
      <point x="109.333" y="-86"/>
      <point x="94.6667" y="-113"/>
      <point x="53.3333" y="-113" type="curve" smooth="yes"/>
      <point x="43.3333" y="-113" type="line"/>
    </contour>
  </outline>
</glyph>
<glyph name="uni0253" format="2">
	<unicode hex="0253"/>
	<advance width="590"/>
	<outline>
		<contour>
			<point x="505" y="261" type="line"/>
			<point x="503" y="252" type="line" smooth="yes"/>
			<point x="479" y="147"/>
			<point x="401" y="55"/>
			<point name="n04" x="314" y="53" type="curve"/>
			<point x="308" y="53" type="line" smooth="yes"/>
			<point x="216" y="53"/>
			<point x="186" y="122"/>
			<point x="218" y="261" type="curve" smooth="yes"/>
			<point x="244" y="374"/>
			<point x="317" y="456"/>
			<point name="n11" x="406" y="456" type="curve" smooth="yes"/>
			<point x="494" y="456"/>
			<point x="529" y="383"/>
			<point x="503" y="261" type="curve"/>
		</contour>
		<contour>
			<point x="603" y="271" type="line"/>
			<point x="635" y="409"/>
			<point x="574" y="514"/>
			<point name="n18" x="445" y="514" type="curve" smooth="yes"/>
			<point x="371" y="514"/>
			<point x="309" y="487"/>
			<point x="257" y="432" type="curve"/>
			<point x="277" y="517"/>
			<point x="291" y="570"/>
			<point x="302" y="591" type="curve"/>
			<point x="326" y="640"/>
			<point x="366" y="665"/>
			<point name="n27" x="419" y="665" type="curve" smooth="yes"/>
			<point x="460" y="665"/>
			<point x="490" y="655"/>
			<point x="510" y="634" type="curve"/>
			<point x="576" y="686" type="line"/>
			<point x="552" y="719"/>
			<point x="504" y="735"/>
			<point name="n34" x="432" y="735" type="curve" smooth="yes"/>
			<point x="337" y="735"/>
			<point x="221" y="651"/>
			<point x="197" y="545" type="curve" smooth="yes"/>
			<point name="n38" x="71" y="0" type="line"/>
			<point x="161" y="0" type="line"/>
			<point x="175" y="59" type="line"/>
			<point x="212" y="11"/>
			<point name="hr02" x="262" y="-13"/>
			<point name="n43" x="327" y="-13" type="curve" smooth="yes"/>
			<point x="443" y="-13"/>
			<point x="565" y="107"/>
			<point x="603" y="270" type="curve"/>
		</contour>
	</outline>
</glyph>
<glyph name="uni0255" format="2">
  <advance width="555"/>
  <unicode hex="0255"/>
  <outline>
    <contour>
      <point x="318.333" y="61" type="curve" smooth="yes"/>
      <point x="295" y="61"/>
      <point x="259.333" y="66"/>
      <point x="240" y="81" type="curve"/>
      <point x="274" y="122"/>
      <point x="342.333" y="170.333"/>
      <point x="392" y="170.333" type="curve" smooth="yes"/>
      <point x="417.333" y="170.333"/>
      <point x="434" y="158.333"/>
      <point x="434" y="134.333" type="curve" smooth="yes"/>
      <point x="434" y="90.6667"/>
      <point x="374.333" y="61"/>
    </contour>
    <contour>
      <point x="537" y="146.333" type="curve" smooth="yes"/>
      <point x="537" y="203.667"/>
      <point x="491.667" y="242.667"/>
      <point x="432" y="242.667" type="curve" smooth="yes"/>
      <point x="284.667" y="242.667"/>
      <point x="137.333" y="126"/>
      <point x="10" y="-125.667" type="curve"/>
      <point x="77" y="-150" type="line"/>
      <point x="110" y="-89"/>
      <point x="139.667" y="-39"/>
      <point x="180.667" y="6" type="curve"/>
      <point x="206" y="-5.66667"/>
      <point x="246" y="-14.6667"/>
      <point x="290.333" y="-14.6667" type="curve" smooth="yes"/>
      <point x="416" y="-14.6667"/>
      <point x="537" y="54.3333"/>
    </contour>
    <contour>
      <point x="99" y="152.667" type="curve" smooth="yes"/>
      <point x="99" y="93.3333"/>
      <point x="119.333" y="50.3333"/>
      <point x="154.333" y="22.3333" type="curve"/>
      <point x="225.667" y="94.6667" type="line"/>
      <point x="216.333" y="112.333"/>
      <point x="213" y="134.333"/>
      <point x="213" y="157.333" type="curve" smooth="yes"/>
      <point x="213" y="243.333"/>
      <point x="259.667" y="434.333"/>
      <point x="378.333" y="434.333" type="curve" smooth="yes"/>
      <point x="425.333" y="434.333"/>
      <point x="442.667" y="405.667"/>
      <point x="442.667" y="366.667" type="curve" smooth="yes"/>
      <point x="442.667" y="354.333"/>
      <point x="441" y="342.333"/>
      <point x="438" y="329.667" type="curve"/>
      <point x="557.667" y="329.667" type="line"/>
      <point x="561.667" y="348.667"/>
      <point x="564" y="366"/>
      <point x="564" y="383" type="curve" smooth="yes"/>
      <point x="564" y="481.333"/>
      <point x="492" y="513.333"/>
      <point x="398.333" y="513.333" type="curve" smooth="yes"/>
      <point x="205" y="513.333"/>
      <point x="99" y="322.667"/>
    </contour>
  </outline>
</glyph>
<glyph name="uni0256" format="2">
  <advance width="591"/>
  <unicode hex="0256"/>
  <outline>
    <component base="d" xOffset="-2.66667"/>
    <contour>
      <point x="432.183" y="38" type="line"/>
      <point x="551.517" y="38" type="line"/>
      <point x="529.928" y="-53.3333" type="line" smooth="yes"/>
      <point x="521.452" y="-88.6667"/>
      <point x="544.791" y="-103.667"/>
      <point x="574.124" y="-103.667" type="curve" smooth="yes"/>
      <point x="599.124" y="-103.667"/>
      <point x="620.742" y="-92.3333"/>
      <point x="634.115" y="-78.6667" type="curve"/>
      <point x="681.895" y="-146.333" type="line"/>
      <point x="640.285" y="-177.667"/>
      <point x="587.181" y="-199.333"/>
      <point x="525.515" y="-199.333" type="curve" smooth="yes"/>
      <point x="435.515" y="-199.333"/>
      <point x="389.85" y="-145"/>
      <point x="409.486" y="-60" type="curve" smooth="yes"/>
    </contour>
  </outline>
</glyph>
<glyph name="uni0259" format="2">
  <advance width="554"/>
  <unicode hex="0259"/>
  <anchor x="424" y="580" name="top"/>
  <outline>
    <contour>
      <point x="94.3333" y="156" type="curve" smooth="yes"/>
      <point x="94.3333" y="57.3333"/>
      <point x="148.333" y="-13.3333"/>
      <point x="270" y="-13.3333" type="curve" smooth="yes"/>
      <point x="464.333" y="-13.3333"/>
      <point x="580.333" y="166.667"/>
      <point x="580.333" y="340" type="curve" smooth="yes"/>
      <point x="580.333" y="448"/>
      <point x="525.333" y="513.333"/>
      <point x="392" y="513.333" type="curve" smooth="yes"/>
      <point x="264.667" y="513.333"/>
      <point x="174.667" y="453"/>
      <point x="135" y="342.667" type="curve"/>
      <point x="258" y="342.667" type="line"/>
      <point x="276" y="395.333"/>
      <point x="317.667" y="434.333"/>
      <point x="376.667" y="434.333" type="curve" smooth="yes"/>
      <point x="436.333" y="434.333"/>
      <point x="459" y="395.667"/>
      <point x="459" y="346" type="curve" smooth="yes"/>
      <point x="459" y="323.333"/>
      <point x="454" y="296.667"/>
      <point x="448.333" y="273.333" type="curve"/>
      <point x="114.667" y="273.333" type="line"/>
      <point x="103.667" y="235"/>
      <point x="94.3333" y="196.667"/>
    </contour>
    <contour>
      <point x="215.667" y="149.333" type="curve" smooth="yes"/>
      <point x="215.667" y="163.667"/>
      <point x="217.667" y="179"/>
      <point x="221.333" y="195" type="curve"/>
      <point x="429.667" y="195" type="line"/>
      <point x="411.333" y="117.667"/>
      <point x="364.667" y="65"/>
      <point x="295.667" y="65" type="curve" smooth="yes"/>
      <point x="236.333" y="65"/>
      <point x="215.667" y="103"/>
    </contour>
  </outline>
</glyph>
